0
SECTION
2
HEADER
9
$INSUNITS
70
4
0
ENDSEC
0
SECTION
2
TABLES
0
TABLE
2
LTYPE
0
LTYPE
72
65
70
64
2
CONTINUOUS
3
______
73
0
40
0
0
ENDTAB
0
TABLE
2
LAYER
0
ENDTAB
0
ENDSEC
0
SECTION
2
ENTITIES
0
LINE
8
0
10
93.9553506
20
-19.5341436
11
-7.7121092
21
-8.6906895
0
LINE
8
0
10
-9.5
20
-6.7019689
11
-9.5
21
-3.125
0
LINE
8
0
10
-9.5
20
37.125
11
-9.5
21
47.1579579
0
LINE
8
0
10
-9.5
20
20.125
11
-9.5
21
30.875
0
LINE
8
0
10
-9.5
20
3.125
11
-9.5
21
13.875
0
LINE
8
0
10
92.6008383
20
35.0686318
11
94.1837987
21
40.9763209
0
LINE
8
0
10
94.015052
20
32.6191421
11
108.0209762
21
28.8662659
0
LINE
8
0
10
109.4351899
20
26.4167762
11
99.4548555
21
-10.8303387
0
LINE
8
0
10
99.0605221
20
-11.5917775
11
91.0701023
21
-21.1966865
0
LINE
8
0
10
93.8931958
20
-24.0078522
11
95.0288167
21
-23.0549531
0
LINE
8
0
10
-114.9553506
20
-19.5341436
11
-13.2878908
21
-8.6906895
0
LINE
8
0
10
-11.5
20
-6.7019689
11
-11.5
21
-3.125
0
LINE
8
0
10
-11.5
20
37.125
11
-11.5
21
47.1579579
0
LINE
8
0
10
-11.5
20
20.125
11
-11.5
21
30.875
0
LINE
8
0
10
-11.5
20
3.125
11
-11.5
21
13.875
0
LINE
8
0
10
-115.1837987
20
40.9763209
11
-113.6008383
21
35.0686318
0
LINE
8
0
10
-115.015052
20
32.6191421
11
-129.0209762
21
28.8662659
0
LINE
8
0
10
-130.4351899
20
26.4167762
11
-120.4548555
21
-10.8303387
0
LINE
8
0
10
-120.0605221
20
-11.5917775
11
-112.0701023
21
-21.1966865
0
LINE
8
0
10
-114.8931958
20
-24.0078522
11
-116.0288167
21
-23.0549531
0
ARC
8
0
10
-7.5
20
-6.7019689
40
2
50
180
51
263.91207
0
ARC
8
0
10
94.53269
20
34.5509938
40
2
50
165.0000021
51
255.0000021
0
ARC
8
0
10
107.5033382
20
26.9344142
40
2
50
345.0000021
51
75.0000021
0
ARC
8
0
10
97.5230038
20
-10.3127006
40
2
50
320.2425903
51
345.0000021
0
ARC
8
0
10
92.6076205
20
-22.4757633
40
2
50
140.2425903
51
310.0000012
0
ARC
8
0
10
93.7432414
20
-21.5228642
40
2
50
310.0000012
51
83.91207
0
ARC
8
0
10
-13.5
20
-6.7019689
40
2
50
276.08793
51
0
0
ARC
8
0
10
-115.53269
20
34.5509938
40
2
50
284.9999979
51
14.9999979
0
ARC
8
0
10
-128.5033382
20
26.9344142
40
2
50
104.9999979
51
194.9999979
0
ARC
8
0
10
-118.5230038
20
-10.3127006
40
2
50
194.9999979
51
219.7574097
0
ARC
8
0
10
-113.6076205
20
-22.4757633
40
2
50
229.9999988
51
39.7574097
0
ARC
8
0
10
-114.7432414
20
-21.5228642
40
2
50
96.08793
51
229.9999988
0
LINE
8
0
10
-11.5
20
30.875
11
-9.5
21
30.875
0
LINE
8
0
10
-11.5
20
37.125
11
-9.5
21
37.125
0
LINE
8
0
10
-11.5
20
13.875
11
-9.5
21
13.875
0
LINE
8
0
10
-11.5
20
20.125
11
-9.5
21
20.125
0
LINE
8
0
10
-11.5
20
-3.125
11
-9.5
21
-3.125
0
LINE
8
0
10
-11.5
20
3.125
11
-9.5
21
3.125
0
ARC
8
0
10
35.5398053
20
-2.8602826
40
68.7
50
72.076381
51
129.368768
0
ARC
8
0
10
-56.5398053
20
-2.8602826
40
68.7
50
50.631232
51
107.923619
0
ARC
8
0
10
-5.5
20
47.1579579
40
4
50
129.368768
51
180
0
ARC
8
0
10
55.451157
20
58.6996725
40
4
50
423.3685802
51
72.076381
0
ARC
8
0
10
-76.451157
20
58.6996725
40
4
50
107.923619
51
116.6314198
0
ARC
8
0
10
-15.5
20
47.1579579
40
4
50
0
51
50.631232
0
ARC
8
0
10
8.6147681
20
-73.2862777
40
144.02
50
53.9202133
51
70.2657993
0
ARC
8
0
10
-29.6147681
20
-73.2862777
40
144.02
50
109.7342007
51
126.0797867
0
ARC
8
0
10
92.2519468
20
41.493959
40
2
50
345.0000021
51
53.9202133
0
ARC
8
0
10
-113.2519468
20
41.493959
40
2
50
126.0797867
51
194.9999979
0
ENDSEC
0
EOF