0
SECTION
2
HEADER
9
$INSUNITS
70
4
0
ENDSEC
0
SECTION
2
TABLES
0
TABLE
2
LTYPE
0
LTYPE
72
65
70
64
2
CONTINUOUS
3
______
73
0
40
0
0
ENDTAB
0
TABLE
2
LAYER
0
ENDTAB
0
ENDSEC
0
SECTION
2
ENTITIES
0
LINE
8
0
10
11
20
-10.5
11
11
21
3.4986364
0
LINE
8
0
10
-11
20
-10.5
11
11
21
-10.5
0
LINE
8
0
10
-11
20
-10.5
11
-11
21
44.5
0
LINE
8
0
10
-11
20
44.5
11
11
21
44.5
0
LINE
8
0
10
11
20
30.726221
11
11
21
44.5
0
LINE
8
0
10
28.6208712
20
3.9661964
11
30.3381669
21
13.7054646
0
LINE
8
0
10
11
20
3.4986364
11
27.706273
21
0.5528697
0
LINE
8
0
10
11
20
30.726221
11
15.8944586
21
58.484075
0
LINE
8
0
10
15.8944586
20
58.484075
11
37.2999906
21
54.7097022
0
LINE
8
0
10
30.3381669
20
13.7054646
11
44.9351682
21
9.7942099
0
LINE
8
0
10
40.817625
20
67.8376923
11
62.0679932
21
62.1436733
0
LINE
8
0
10
62.0679932
20
62.1436733
11
59.8680313
21
53.9333038
0
LINE
8
0
10
37.2999906
20
54.7097022
11
40.817625
21
67.8376923
0
LINE
8
0
10
42.7352063
20
1.5838404
11
61.0877969
21
-3.3337214
0
LINE
8
0
10
42.7352063
20
1.5838404
11
44.9351682
21
9.7942099
0
LINE
8
0
10
59.8680313
20
53.9333038
11
78.220622
21
49.0157419
0
LINE
8
0
10
78.220622
20
49.0157419
11
77.1206411
21
44.9105572
0
LINE
8
0
10
81.2381842
20
-13.1329252
11
95.4732318
21
39.9929953
0
LINE
8
0
10
81.2381842
20
-13.1329252
11
71.9778557
21
-10.6516277
0
LINE
8
0
10
70.4894106
20
-10.2528
11
70.9271958
21
-10.3701042
0
LINE
8
0
10
60.566714
20
-5.2784293
11
61.0877969
21
-3.3337214
0
LINE
8
0
10
77.1206411
20
44.9105572
11
95.4732318
21
39.9929953
0
LINE
8
0
10
23.4708586
20
-15.253912
11
44.1537562
21
-20.7958777
0
LINE
8
0
10
23.4708586
20
-15.253912
11
27.706273
21
0.5528697
0
LINE
8
0
10
28.6208712
20
3.9661964
11
28.9060586
21
5.0305304
0
LINE
8
0
10
28.9060586
20
5.0305304
11
50.1564268
21
-0.6634886
0
LINE
8
0
10
50.1564268
20
-0.6634886
11
49.4401625
21
-3.3366234
0
LINE
8
0
10
44.1537562
20
-20.7958777
11
61.2150209
21
-28.7516761
0
LINE
8
0
10
49.4401625
20
-3.3366234
11
50.6836787
21
-0.6698943
0
LINE
8
0
10
50.6836787
20
-0.6698943
11
60.566714
21
-5.2784293
0
LINE
8
0
10
70.4894106
20
-10.2528
11
69.4528822
21
-12.4756423
0
LINE
8
0
10
61.2150209
20
-28.7516761
11
77.1168194
21
-39.8862352
0
LINE
8
0
10
69.4528822
20
-12.4756423
11
70.9271958
21
-10.3701042
0
LINE
8
0
10
71.9778557
20
-10.6516277
11
89.1619246
21
-22.6840422
0
LINE
8
0
10
89.1619246
20
-22.6840422
11
84.6071149
21
-29.1889846
0
LINE
8
0
10
79.4873068
20
-36.5008283
11
77.1168194
21
-39.8862352
0
LINE
8
0
10
84.6071149
20
-29.1889846
11
94.8552858
21
-20.5897482
0
LINE
8
0
10
94.8552858
20
-20.5897482
11
108.3538256
21
-36.6766815
0
LINE
8
0
10
91.5008478
20
-50.818009
11
108.3538256
21
-36.6766815
0
LINE
8
0
10
79.4873068
20
-36.5008283
11
91.5008478
21
-50.818009
0
ENDSEC
0
EOF