0
SECTION
2
HEADER
9
$INSUNITS
70
4
0
ENDSEC
0
SECTION
2
TABLES
0
TABLE
2
LTYPE
0
LTYPE
72
65
70
64
2
CONTINUOUS
3
______
73
0
40
0
0
ENDTAB
0
TABLE
2
LAYER
0
ENDTAB
0
ENDSEC
0
SECTION
2
ENTITIES
0
LINE
8
0
10
-7
20
-7
11
7
21
-7
0
LINE
8
0
10
7
20
-7
11
7
21
7
0
LINE
8
0
10
7
20
7
11
-7
21
7
0
LINE
8
0
10
-7
20
7
11
-7
21
-7
0
LINE
8
0
10
-7
20
10
11
7
21
10
0
LINE
8
0
10
7
20
10
11
7
21
24
0
LINE
8
0
10
7
20
24
11
-7
21
24
0
LINE
8
0
10
-7
20
24
11
-7
21
10
0
LINE
8
0
10
-7
20
27
11
7
21
27
0
LINE
8
0
10
7
20
27
11
7
21
41
0
LINE
8
0
10
7
20
41
11
-7
21
41
0
LINE
8
0
10
-7
20
41
11
-7
21
27
0
LINE
8
0
10
10.8908085
20
7.071883
11
24.678117
21
4.6408085
0
LINE
8
0
10
24.678117
20
4.6408085
11
27.1091915
21
18.428117
0
LINE
8
0
10
27.1091915
20
18.428117
11
13.321883
21
20.8591915
0
LINE
8
0
10
13.321883
20
20.8591915
11
10.8908085
21
7.071883
0
LINE
8
0
10
13.8428275
20
23.8136148
11
27.630136
21
21.3825403
0
LINE
8
0
10
27.630136
20
21.3825403
11
30.0612105
21
35.1698488
0
LINE
8
0
10
30.0612105
20
35.1698488
11
16.273902
21
37.6009233
0
LINE
8
0
10
16.273902
20
37.6009233
11
13.8428275
21
23.8136148
0
LINE
8
0
10
16.7948465
20
40.5553466
11
30.582155
21
38.1242721
0
LINE
8
0
10
30.582155
20
38.1242721
11
33.0132295
21
51.9115806
0
LINE
8
0
10
33.0132295
20
51.9115806
11
19.225921
21
54.3426551
0
LINE
8
0
10
19.225921
20
54.3426551
11
16.7948465
21
40.5553466
0
LINE
8
0
10
31.3521475
20
17.057236
11
44.8751091
21
13.4337694
0
LINE
8
0
10
44.8751091
20
13.4337694
11
48.4985757
21
26.956731
0
LINE
8
0
10
48.4985757
20
26.956731
11
34.9756141
21
30.5801976
0
LINE
8
0
10
34.9756141
20
30.5801976
11
31.3521475
21
17.057236
0
LINE
8
0
10
35.7520712
20
33.477975
11
49.2750328
21
29.8545084
0
LINE
8
0
10
49.2750328
20
29.8545084
11
52.8984994
21
43.37747
0
LINE
8
0
10
52.8984994
20
43.37747
11
39.3755378
21
47.0009366
0
LINE
8
0
10
39.3755378
20
47.0009366
11
35.7520712
21
33.477975
0
LINE
8
0
10
40.151995
20
49.8987141
11
53.6749566
21
46.2752475
0
LINE
8
0
10
53.6749566
20
46.2752475
11
57.2984232
21
59.7982091
0
LINE
8
0
10
57.2984232
20
59.7982091
11
43.7754616
21
63.4216757
0
LINE
8
0
10
43.7754616
20
63.4216757
11
40.151995
21
49.8987141
0
LINE
8
0
10
47.5047763
20
3.9293046
11
61.0277379
21
0.305838
0
LINE
8
0
10
61.0277379
20
0.305838
11
64.6512045
21
13.8287996
0
LINE
8
0
10
64.6512045
20
13.8287996
11
51.1282429
21
17.4522662
0
LINE
8
0
10
51.1282429
20
17.4522662
11
47.5047763
21
3.9293046
0
LINE
8
0
10
51.9047001
20
20.3500436
11
65.4276617
21
16.726577
0
LINE
8
0
10
65.4276617
20
16.726577
11
69.0511283
21
30.2495386
0
LINE
8
0
10
69.0511283
20
30.2495386
11
55.5281667
21
33.8730052
0
LINE
8
0
10
55.5281667
20
33.8730052
11
51.9047001
21
20.3500436
0
LINE
8
0
10
56.3046238
20
36.7707827
11
69.8275854
21
33.1473161
0
LINE
8
0
10
69.8275854
20
33.1473161
11
73.451052
21
46.6702777
0
LINE
8
0
10
73.451052
20
46.6702777
11
59.9280904
21
50.2937443
0
LINE
8
0
10
59.9280904
20
50.2937443
11
56.3046238
21
36.7707827
0
LINE
8
0
10
64.757386
20
-5.093442
11
78.2803476
21
-8.7169086
0
LINE
8
0
10
78.2803476
20
-8.7169086
11
81.9038142
21
4.806053
0
LINE
8
0
10
81.9038142
20
4.806053
11
68.3808526
21
8.4295196
0
LINE
8
0
10
68.3808526
20
8.4295196
11
64.757386
21
-5.093442
0
LINE
8
0
10
69.1573098
20
11.3272971
11
82.6802714
21
7.7038305
0
LINE
8
0
10
82.6802714
20
7.7038305
11
86.303738
21
21.2267921
0
LINE
8
0
10
86.303738
20
21.2267921
11
72.7807764
21
24.8502587
0
LINE
8
0
10
72.7807764
20
24.8502587
11
69.1573098
21
11.3272971
0
LINE
8
0
10
73.5572336
20
27.7480361
11
87.0801952
21
24.1245695
0
LINE
8
0
10
87.0801952
20
24.1245695
11
90.7036618
21
37.6475311
0
LINE
8
0
10
90.7036618
20
37.6475311
11
77.1807002
21
41.2709977
0
LINE
8
0
10
77.1807002
20
41.2709977
11
73.5572336
21
27.7480361
0
LINE
8
0
10
45.3868568
20
-3.0089528
11
31.8638952
21
0.6145138
0
LINE
8
0
10
31.8638952
20
0.6145138
11
28.2404286
21
-12.9084478
0
LINE
8
0
10
28.2404286
20
-12.9084478
11
41.7633902
21
-16.5319144
0
LINE
8
0
10
41.7633902
20
-16.5319144
11
45.3868568
21
-3.0089528
0
LINE
8
0
10
65.5180549
20
-11.4491002
11
52.8297459
21
-5.5324446
0
LINE
8
0
10
52.8297459
20
-5.5324446
11
46.9130903
21
-18.2207536
0
LINE
8
0
10
46.9130903
20
-18.2207536
11
59.6013993
21
-24.1374092
0
LINE
8
0
10
59.6013993
20
-24.1374092
11
65.5180549
21
-11.4491002
0
LINE
8
0
10
83.8777989
20
-23.2567686
11
72.4096702
21
-15.2266985
0
LINE
8
0
10
72.4096702
20
-15.2266985
11
64.3796001
21
-26.6948272
0
LINE
8
0
10
64.3796001
20
-26.6948272
11
75.8477288
21
-34.7248973
0
LINE
8
0
10
75.8477288
20
-34.7248973
11
83.8777989
21
-23.2567686
0
LINE
8
0
10
92.315269
20
-45.565703
11
103.0398912
21
-36.5666764
0
LINE
8
0
10
103.0398912
20
-36.5666764
11
94.0408646
21
-25.8420542
0
LINE
8
0
10
94.0408646
20
-25.8420542
11
83.3162424
21
-34.8410808
0
LINE
8
0
10
83.3162424
20
-34.8410808
11
92.315269
21
-45.565703
0
ENDSEC
0
EOF