M48
; DRILL file {KiCad (6.0.4)} date Sun Jul  3 23:33:08 2022
; FORMAT={-:-/ absolute / inch / decimal}
; #@! TF.CreationDate,2022-07-03T23:33:08-04:00
; #@! TF.GenerationSoftware,Kicad,Pcbnew,(6.0.4)
; #@! TF.FileFunction,Plated,1,2,PTH
FMAT,2
INCH
; #@! TA.AperFunction,Plated,PTH,ViaDrill
T1C0.0157
; #@! TA.AperFunction,Plated,PTH,ComponentDrill
T2C0.0354
; #@! TA.AperFunction,Plated,PTH,ComponentDrill
T3C0.0390
; #@! TA.AperFunction,Plated,PTH,ComponentDrill
T4C0.0394
; #@! TA.AperFunction,Plated,PTH,ComponentDrill
T5C0.0430
; #@! TA.AperFunction,Plated,PTH,ComponentDrill
T6C0.0591
; #@! TA.AperFunction,Plated,PTH,ComponentDrill
T7C0.0866
%
G90
G05
T1
X-4.7205Y1.2283
X-4.252Y1.7283
X-4.252Y1.4291
X-4.0118Y0.8337
X-3.9724Y0.8622
X3.1929Y0.9006
X3.5049Y1.3268
X3.9606Y1.4291
T3
X-4.6678Y-0.5298
X-4.5178Y-0.7896
X-4.0668Y-0.4725
X-3.9118Y1.6634
X-3.9118Y0.9941
X-3.9118Y0.3248
X-3.777Y-0.3948
X-3.6118Y1.6634
X-3.6118Y0.9941
X-3.6118Y0.3248
X-3.1786Y-0.2893
X-3.1638Y1.8307
X-3.1638Y1.1614
X-3.1638Y0.4921
X-2.8798Y-0.2632
X-2.8638Y1.8307
X-2.8638Y1.1614
X-2.8638Y0.4921
X-2.4157Y1.998
X-2.4157Y1.3287
X-2.4157Y0.6594
X-2.1157Y1.998
X-2.1157Y1.3287
X-2.1157Y0.6594
X-1.6677Y1.6634
X-1.6677Y0.9941
X-1.6677Y0.3248
X-1.3677Y1.6634
X-1.3677Y0.9941
X-1.3677Y0.3248
X-0.9197Y1.1614
X-0.9197Y0.4921
X-0.9197Y-0.1772
X-0.6197Y1.1614
X-0.6197Y0.4921
X-0.6197Y-0.1772
X-0.15Y1.1614
X-0.15Y0.4921
X-0.15Y-0.1772
X0.15Y1.1614
X0.15Y0.4921
X0.15Y-0.1772
X0.598Y1.6634
X0.598Y0.9941
X0.598Y0.3248
X0.898Y1.6634
X0.898Y0.9941
X0.898Y0.3248
X1.3461Y1.998
X1.3461Y1.3287
X1.3461Y0.6594
X1.6461Y1.998
X1.6461Y1.3287
X1.6461Y0.6594
X2.0941Y1.8307
X2.0941Y1.1614
X2.0941Y0.4921
X2.1101Y-0.2632
X2.3941Y1.8307
X2.3941Y1.1614
X2.3941Y0.4921
X2.409Y-0.2893
X2.8421Y1.6634
X2.8421Y0.9941
X2.8421Y0.3248
X3.0073Y-0.3948
X3.1421Y1.6634
X3.1421Y0.9941
X3.1421Y0.3248
X3.2971Y-0.4725
X3.7481Y-0.7896
X3.8981Y-0.5298
T4
X-4.6406Y0.6634
X-4.5406Y0.6634
X-4.4406Y0.6634
X-4.3406Y0.6634
X3.5701Y0.6634
X3.6701Y0.6634
X3.7701Y0.6634
X3.8701Y0.6634
T5
X-4.7902Y1.8787
X-4.7902Y1.7787
X-4.7902Y1.6787
X-4.7902Y1.5787
X-4.7902Y1.4787
X-4.7902Y1.3787
X-4.7902Y1.2787
X-4.7902Y1.1787
X-4.7902Y1.0787
X-4.7902Y0.9787
X-4.7902Y0.8787
X-4.7902Y0.7787
X-4.1902Y1.8787
X-4.1902Y1.7787
X-4.1902Y1.6787
X-4.1902Y1.5787
X-4.1902Y1.4787
X-4.1902Y1.3787
X-4.1902Y1.2787
X-4.1902Y1.1787
X-4.1902Y1.0787
X-4.1902Y0.9787
X-4.1902Y0.8787
X-4.1902Y0.7787
X3.4205Y1.8787
X3.4205Y1.7787
X3.4205Y1.6787
X3.4205Y1.5787
X3.4205Y1.4787
X3.4205Y1.3787
X3.4205Y1.2787
X3.4205Y1.1787
X3.4205Y1.0787
X3.4205Y0.9787
X3.4205Y0.8787
X3.4205Y0.7787
X4.0205Y1.8787
X4.0205Y1.7787
X4.0205Y1.6787
X4.0205Y1.5787
X4.0205Y1.4787
X4.0205Y1.3787
X4.0205Y1.2787
X4.0205Y1.1787
X4.0205Y1.0787
X4.0205Y0.9787
X4.0205Y0.8787
X4.0205Y0.7787
T6
X-4.9742Y-0.6526
X-4.9474Y-0.8644
X-4.0275Y-0.8003
X-3.8159Y-0.8292
X-3.7618Y2.0728
X-3.7618Y1.4035
X-3.7618Y0.7343
X-3.565Y1.9902
X-3.565Y1.3209
X-3.565Y0.6516
X-3.1968Y-0.6189
X-3.0138Y2.2402
X-3.0138Y1.5709
X-3.0138Y0.9016
X-2.9935Y-0.6842
X-2.8169Y2.1575
X-2.8169Y1.4882
X-2.8169Y0.8189
X-2.2657Y2.4075
X-2.2657Y1.7382
X-2.2657Y1.0689
X-2.0689Y2.3248
X-2.0689Y1.6555
X-2.0689Y0.9862
X-1.5177Y2.0728
X-1.5177Y1.4035
X-1.5177Y0.7343
X-1.3209Y1.9902
X-1.3209Y1.3209
X-1.3209Y0.6516
X-0.7697Y1.5709
X-0.7697Y0.9016
X-0.7697Y0.2323
X-0.5728Y1.4882
X-0.5728Y0.8189
X-0.5728Y0.1496
X0.0Y1.5709
X0.0Y0.9016
X0.0Y0.2323
X0.1969Y1.4882
X0.1969Y0.8189
X0.1969Y0.1496
X0.748Y2.0728
X0.748Y1.4035
X0.748Y0.7343
X0.9449Y1.9902
X0.9449Y1.3209
X0.9449Y0.6516
X1.4961Y2.4075
X1.4961Y1.7382
X1.4961Y1.0689
X1.6929Y2.3248
X1.6929Y1.6555
X1.6929Y0.9862
X2.035Y-0.5846
X2.2238Y-0.6842
X2.2441Y2.2402
X2.2441Y1.5709
X2.2441Y0.9016
X2.4409Y2.1575
X2.4409Y1.4882
X2.4409Y0.8189
X2.8775Y-0.6984
X2.9921Y2.0728
X2.9921Y1.4035
X2.9921Y0.7343
X3.0462Y-0.8292
X3.189Y1.9902
X3.189Y1.3209
X3.189Y0.6516
X4.0077Y-0.9936
X4.1777Y-0.8644
T7
X-3.3898Y1.0531
X-2.6398Y1.8031
X-2.6398Y0.3031
X-1.8898Y1.0531
X1.1201Y1.0531
X1.8701Y1.8031
X1.8701Y0.3031
X2.6201Y1.0531
T2
G00X-4.6713Y0.5413
M15
G01X-4.6476Y0.5413
M16
G05
G00X-4.5531Y0.5413
M15
G01X-4.5295Y0.5413
M16
G05
G00X-4.3957Y0.5413
M15
G01X-4.372Y0.5413
M16
G05
G00X-4.3524Y0.3602
M15
G01X-4.3287Y0.3602
M16
G05
G00X3.5827Y0.5453
M15
G01X3.5591Y0.5453
M16
G05
G00X3.626Y0.3642
M15
G01X3.6024Y0.3642
M16
G05
G00X3.7835Y0.3642
M15
G01X3.7598Y0.3642
M16
G05
G00X3.9016Y0.3642
M15
G01X3.878Y0.3642
M16
G05
T0
M30
