%TF.GenerationSoftware,KiCad,Pcbnew,(6.0.4)*%
%TF.CreationDate,2022-07-03T23:33:08-04:00*%
%TF.ProjectId,glitch36,676c6974-6368-4333-962e-6b696361645f,v1.0.0*%
%TF.SameCoordinates,Original*%
%TF.FileFunction,Legend,Top*%
%TF.FilePolarity,Positive*%
%FSLAX46Y46*%
G04 Gerber Fmt 4.6, Leading zero omitted, Abs format (unit mm)*
G04 Created by KiCad (PCBNEW (6.0.4)) date 2022-07-03 23:33:08*
%MOMM*%
%LPD*%
G01*
G04 APERTURE LIST*
G04 Aperture macros list*
%AMRoundRect*
0 Rectangle with rounded corners*
0 $1 Rounding radius*
0 $2 $3 $4 $5 $6 $7 $8 $9 X,Y pos of 4 corners*
0 Add a 4 corners polygon primitive as box body*
4,1,4,$2,$3,$4,$5,$6,$7,$8,$9,$2,$3,0*
0 Add four circle primitives for the rounded corners*
1,1,$1+$1,$2,$3*
1,1,$1+$1,$4,$5*
1,1,$1+$1,$6,$7*
1,1,$1+$1,$8,$9*
0 Add four rect primitives between the rounded corners*
20,1,$1+$1,$2,$3,$4,$5,0*
20,1,$1+$1,$4,$5,$6,$7,0*
20,1,$1+$1,$6,$7,$8,$9,0*
20,1,$1+$1,$8,$9,$2,$3,0*%
G04 Aperture macros list end*
%ADD10C,0.150000*%
%ADD11C,0.100000*%
%ADD12R,1.752600X1.752600*%
%ADD13C,1.752600*%
%ADD14C,3.529000*%
%ADD15C,1.801800*%
%ADD16C,2.600000*%
%ADD17RoundRect,0.050000X-0.450000X-0.600000X0.450000X-0.600000X0.450000X0.600000X-0.450000X0.600000X0*%
%ADD18C,2.005000*%
%ADD19RoundRect,0.050000X-0.889000X-0.889000X0.889000X-0.889000X0.889000X0.889000X-0.889000X0.889000X0*%
%ADD20RoundRect,0.050000X0.500581X0.558497X-0.395994X0.636937X-0.500581X-0.558497X0.395994X-0.636937X0*%
%ADD21RoundRect,0.050000X0.963099X0.808136X-0.808136X0.963099X-0.963099X-0.808136X0.808136X-0.963099X0*%
%ADD22RoundRect,0.050000X0.589958X0.463087X-0.279375X0.696024X-0.589958X-0.463087X0.279375X-0.696024X0*%
%ADD23RoundRect,0.050000X1.088798X0.628618X-0.628618X1.088798X-1.088798X-0.628618X0.628618X-1.088798X0*%
%ADD24RoundRect,0.050000X-0.294615X0.689711X-0.744615X-0.089711X0.294615X-0.689711X0.744615X0.089711X0*%
%ADD25RoundRect,0.050000X-0.325397X1.214397X-1.214397X-0.325397X0.325397X-1.214397X1.214397X0.325397X0*%
%ADD26RoundRect,0.050000X0.395994X0.636937X-0.500581X0.558497X-0.395994X-0.636937X0.500581X-0.558497X0*%
%ADD27RoundRect,0.050000X0.808136X0.963099X-0.963099X0.808136X-0.808136X-0.963099X0.963099X-0.808136X0*%
%ADD28RoundRect,0.050000X0.279375X0.696024X-0.589958X0.463087X-0.279375X-0.696024X0.589958X-0.463087X0*%
%ADD29RoundRect,0.050000X0.628618X1.088798X-1.088798X0.628618X-0.628618X-1.088798X1.088798X-0.628618X0*%
%ADD30RoundRect,0.050000X0.744615X-0.089711X0.294615X0.689711X-0.744615X0.089711X-0.294615X-0.689711X0*%
%ADD31RoundRect,0.050000X1.214397X-0.325397X0.325397X1.214397X-1.214397X0.325397X-0.325397X-1.214397X0*%
%ADD32RoundRect,0.050000X-0.876300X0.876300X-0.876300X-0.876300X0.876300X-0.876300X0.876300X0.876300X0*%
%ADD33C,1.852600*%
%ADD34C,1.600000*%
%ADD35O,2.300000X1.700000*%
%ADD36O,1.800000X1.800000*%
%ADD37RoundRect,0.050000X-0.850000X-0.850000X0.850000X-0.850000X0.850000X0.850000X-0.850000X0.850000X0*%
%ADD38C,4.500000*%
%ADD39C,0.900000*%
G04 APERTURE END LIST*
D10*
%TO.C,MCU1*%
X98747619Y47358095D02*
X98480952Y47739047D01*
X98290476Y47358095D02*
X98290476Y48158095D01*
X98595238Y48158095D01*
X98671428Y48120000D01*
X98709523Y48081904D01*
X98747619Y48005714D01*
X98747619Y47891428D01*
X98709523Y47815238D01*
X98671428Y47777142D01*
X98595238Y47739047D01*
X98290476Y47739047D01*
X99052380Y47586666D02*
X99433333Y47586666D01*
X98976190Y47358095D02*
X99242857Y48158095D01*
X99509523Y47358095D01*
X99700000Y48158095D02*
X99890476Y47358095D01*
X100042857Y47929523D01*
X100195238Y47358095D01*
X100385714Y48158095D01*
X98690476Y45580000D02*
X98614285Y45618095D01*
X98500000Y45618095D01*
X98385714Y45580000D01*
X98309523Y45503809D01*
X98271428Y45427619D01*
X98233333Y45275238D01*
X98233333Y45160952D01*
X98271428Y45008571D01*
X98309523Y44932380D01*
X98385714Y44856190D01*
X98500000Y44818095D01*
X98576190Y44818095D01*
X98690476Y44856190D01*
X98728571Y44894285D01*
X98728571Y45160952D01*
X98576190Y45160952D01*
X99071428Y44818095D02*
X99071428Y45618095D01*
X99528571Y44818095D01*
X99528571Y45618095D01*
X99909523Y44818095D02*
X99909523Y45618095D01*
X100100000Y45618095D01*
X100214285Y45580000D01*
X100290476Y45503809D01*
X100328571Y45427619D01*
X100366666Y45275238D01*
X100366666Y45160952D01*
X100328571Y45008571D01*
X100290476Y44932380D01*
X100214285Y44856190D01*
X100100000Y44818095D01*
X99909523Y44818095D01*
X98861904Y42278095D02*
X98595238Y42659047D01*
X98404761Y42278095D02*
X98404761Y43078095D01*
X98709523Y43078095D01*
X98785714Y43040000D01*
X98823809Y43001904D01*
X98861904Y42925714D01*
X98861904Y42811428D01*
X98823809Y42735238D01*
X98785714Y42697142D01*
X98709523Y42659047D01*
X98404761Y42659047D01*
X99166666Y42316190D02*
X99280952Y42278095D01*
X99471428Y42278095D01*
X99547619Y42316190D01*
X99585714Y42354285D01*
X99623809Y42430476D01*
X99623809Y42506666D01*
X99585714Y42582857D01*
X99547619Y42620952D01*
X99471428Y42659047D01*
X99319047Y42697142D01*
X99242857Y42735238D01*
X99204761Y42773333D01*
X99166666Y42849523D01*
X99166666Y42925714D01*
X99204761Y43001904D01*
X99242857Y43040000D01*
X99319047Y43078095D01*
X99509523Y43078095D01*
X99623809Y43040000D01*
X99852380Y43078095D02*
X100309523Y43078095D01*
X100080952Y42278095D02*
X100080952Y43078095D01*
X98233333Y40538095D02*
X98500000Y39738095D01*
X98766666Y40538095D01*
X99490476Y39814285D02*
X99452380Y39776190D01*
X99338095Y39738095D01*
X99261904Y39738095D01*
X99147619Y39776190D01*
X99071428Y39852380D01*
X99033333Y39928571D01*
X98995238Y40080952D01*
X98995238Y40195238D01*
X99033333Y40347619D01*
X99071428Y40423809D01*
X99147619Y40500000D01*
X99261904Y40538095D01*
X99338095Y40538095D01*
X99452380Y40500000D01*
X99490476Y40461904D01*
X100290476Y39814285D02*
X100252380Y39776190D01*
X100138095Y39738095D01*
X100061904Y39738095D01*
X99947619Y39776190D01*
X99871428Y39852380D01*
X99833333Y39928571D01*
X99795238Y40080952D01*
X99795238Y40195238D01*
X99833333Y40347619D01*
X99871428Y40423809D01*
X99947619Y40500000D01*
X100061904Y40538095D01*
X100138095Y40538095D01*
X100252380Y40500000D01*
X100290476Y40461904D01*
X99033333Y37617142D02*
X98766666Y37617142D01*
X98766666Y37198095D02*
X98766666Y37998095D01*
X99147619Y37998095D01*
X99795238Y37731428D02*
X99795238Y37198095D01*
X99604761Y38036190D02*
X99414285Y37464761D01*
X99909523Y37464761D01*
X99033333Y35077142D02*
X98766666Y35077142D01*
X98766666Y34658095D02*
X98766666Y35458095D01*
X99147619Y35458095D01*
X99833333Y35458095D02*
X99452380Y35458095D01*
X99414285Y35077142D01*
X99452380Y35115238D01*
X99528571Y35153333D01*
X99719047Y35153333D01*
X99795238Y35115238D01*
X99833333Y35077142D01*
X99871428Y35000952D01*
X99871428Y34810476D01*
X99833333Y34734285D01*
X99795238Y34696190D01*
X99719047Y34658095D01*
X99528571Y34658095D01*
X99452380Y34696190D01*
X99414285Y34734285D01*
X99033333Y32537142D02*
X98766666Y32537142D01*
X98766666Y32118095D02*
X98766666Y32918095D01*
X99147619Y32918095D01*
X99795238Y32918095D02*
X99642857Y32918095D01*
X99566666Y32880000D01*
X99528571Y32841904D01*
X99452380Y32727619D01*
X99414285Y32575238D01*
X99414285Y32270476D01*
X99452380Y32194285D01*
X99490476Y32156190D01*
X99566666Y32118095D01*
X99719047Y32118095D01*
X99795238Y32156190D01*
X99833333Y32194285D01*
X99871428Y32270476D01*
X99871428Y32460952D01*
X99833333Y32537142D01*
X99795238Y32575238D01*
X99719047Y32613333D01*
X99566666Y32613333D01*
X99490476Y32575238D01*
X99452380Y32537142D01*
X99414285Y32460952D01*
X99033333Y29997142D02*
X98766666Y29997142D01*
X98766666Y29578095D02*
X98766666Y30378095D01*
X99147619Y30378095D01*
X99376190Y30378095D02*
X99909523Y30378095D01*
X99566666Y29578095D01*
X98976190Y27457142D02*
X99090476Y27419047D01*
X99128571Y27380952D01*
X99166666Y27304761D01*
X99166666Y27190476D01*
X99128571Y27114285D01*
X99090476Y27076190D01*
X99014285Y27038095D01*
X98709523Y27038095D01*
X98709523Y27838095D01*
X98976190Y27838095D01*
X99052380Y27800000D01*
X99090476Y27761904D01*
X99128571Y27685714D01*
X99128571Y27609523D01*
X99090476Y27533333D01*
X99052380Y27495238D01*
X98976190Y27457142D01*
X98709523Y27457142D01*
X99928571Y27038095D02*
X99471428Y27038095D01*
X99700000Y27038095D02*
X99700000Y27838095D01*
X99623809Y27723809D01*
X99547619Y27647619D01*
X99471428Y27609523D01*
X98976190Y24917142D02*
X99090476Y24879047D01*
X99128571Y24840952D01*
X99166666Y24764761D01*
X99166666Y24650476D01*
X99128571Y24574285D01*
X99090476Y24536190D01*
X99014285Y24498095D01*
X98709523Y24498095D01*
X98709523Y25298095D01*
X98976190Y25298095D01*
X99052380Y25260000D01*
X99090476Y25221904D01*
X99128571Y25145714D01*
X99128571Y25069523D01*
X99090476Y24993333D01*
X99052380Y24955238D01*
X98976190Y24917142D01*
X98709523Y24917142D01*
X99433333Y25298095D02*
X99928571Y25298095D01*
X99661904Y24993333D01*
X99776190Y24993333D01*
X99852380Y24955238D01*
X99890476Y24917142D01*
X99928571Y24840952D01*
X99928571Y24650476D01*
X99890476Y24574285D01*
X99852380Y24536190D01*
X99776190Y24498095D01*
X99547619Y24498095D01*
X99471428Y24536190D01*
X99433333Y24574285D01*
X98976190Y22377142D02*
X99090476Y22339047D01*
X99128571Y22300952D01*
X99166666Y22224761D01*
X99166666Y22110476D01*
X99128571Y22034285D01*
X99090476Y21996190D01*
X99014285Y21958095D01*
X98709523Y21958095D01*
X98709523Y22758095D01*
X98976190Y22758095D01*
X99052380Y22720000D01*
X99090476Y22681904D01*
X99128571Y22605714D01*
X99128571Y22529523D01*
X99090476Y22453333D01*
X99052380Y22415238D01*
X98976190Y22377142D01*
X98709523Y22377142D01*
X99471428Y22681904D02*
X99509523Y22720000D01*
X99585714Y22758095D01*
X99776190Y22758095D01*
X99852380Y22720000D01*
X99890476Y22681904D01*
X99928571Y22605714D01*
X99928571Y22529523D01*
X99890476Y22415238D01*
X99433333Y21958095D01*
X99928571Y21958095D01*
X98976190Y19837142D02*
X99090476Y19799047D01*
X99128571Y19760952D01*
X99166666Y19684761D01*
X99166666Y19570476D01*
X99128571Y19494285D01*
X99090476Y19456190D01*
X99014285Y19418095D01*
X98709523Y19418095D01*
X98709523Y20218095D01*
X98976190Y20218095D01*
X99052380Y20180000D01*
X99090476Y20141904D01*
X99128571Y20065714D01*
X99128571Y19989523D01*
X99090476Y19913333D01*
X99052380Y19875238D01*
X98976190Y19837142D01*
X98709523Y19837142D01*
X99852380Y20218095D02*
X99700000Y20218095D01*
X99623809Y20180000D01*
X99585714Y20141904D01*
X99509523Y20027619D01*
X99471428Y19875238D01*
X99471428Y19570476D01*
X99509523Y19494285D01*
X99547619Y19456190D01*
X99623809Y19418095D01*
X99776190Y19418095D01*
X99852380Y19456190D01*
X99890476Y19494285D01*
X99928571Y19570476D01*
X99928571Y19760952D01*
X99890476Y19837142D01*
X99852380Y19875238D01*
X99776190Y19913333D01*
X99623809Y19913333D01*
X99547619Y19875238D01*
X99509523Y19837142D01*
X99471428Y19760952D01*
X89109523Y47358095D02*
X89109523Y48158095D01*
X89300000Y48158095D01*
X89414285Y48120000D01*
X89490476Y48043809D01*
X89528571Y47967619D01*
X89566666Y47815238D01*
X89566666Y47700952D01*
X89528571Y47548571D01*
X89490476Y47472380D01*
X89414285Y47396190D01*
X89300000Y47358095D01*
X89109523Y47358095D01*
X89833333Y48158095D02*
X90328571Y48158095D01*
X90061904Y47853333D01*
X90176190Y47853333D01*
X90252380Y47815238D01*
X90290476Y47777142D01*
X90328571Y47700952D01*
X90328571Y47510476D01*
X90290476Y47434285D01*
X90252380Y47396190D01*
X90176190Y47358095D01*
X89947619Y47358095D01*
X89871428Y47396190D01*
X89833333Y47434285D01*
X89109523Y44818095D02*
X89109523Y45618095D01*
X89300000Y45618095D01*
X89414285Y45580000D01*
X89490476Y45503809D01*
X89528571Y45427619D01*
X89566666Y45275238D01*
X89566666Y45160952D01*
X89528571Y45008571D01*
X89490476Y44932380D01*
X89414285Y44856190D01*
X89300000Y44818095D01*
X89109523Y44818095D01*
X89871428Y45541904D02*
X89909523Y45580000D01*
X89985714Y45618095D01*
X90176190Y45618095D01*
X90252380Y45580000D01*
X90290476Y45541904D01*
X90328571Y45465714D01*
X90328571Y45389523D01*
X90290476Y45275238D01*
X89833333Y44818095D01*
X90328571Y44818095D01*
X89090476Y43040000D02*
X89014285Y43078095D01*
X88900000Y43078095D01*
X88785714Y43040000D01*
X88709523Y42963809D01*
X88671428Y42887619D01*
X88633333Y42735238D01*
X88633333Y42620952D01*
X88671428Y42468571D01*
X88709523Y42392380D01*
X88785714Y42316190D01*
X88900000Y42278095D01*
X88976190Y42278095D01*
X89090476Y42316190D01*
X89128571Y42354285D01*
X89128571Y42620952D01*
X88976190Y42620952D01*
X89471428Y42278095D02*
X89471428Y43078095D01*
X89928571Y42278095D01*
X89928571Y43078095D01*
X90309523Y42278095D02*
X90309523Y43078095D01*
X90500000Y43078095D01*
X90614285Y43040000D01*
X90690476Y42963809D01*
X90728571Y42887619D01*
X90766666Y42735238D01*
X90766666Y42620952D01*
X90728571Y42468571D01*
X90690476Y42392380D01*
X90614285Y42316190D01*
X90500000Y42278095D01*
X90309523Y42278095D01*
X89090476Y40500000D02*
X89014285Y40538095D01*
X88900000Y40538095D01*
X88785714Y40500000D01*
X88709523Y40423809D01*
X88671428Y40347619D01*
X88633333Y40195238D01*
X88633333Y40080952D01*
X88671428Y39928571D01*
X88709523Y39852380D01*
X88785714Y39776190D01*
X88900000Y39738095D01*
X88976190Y39738095D01*
X89090476Y39776190D01*
X89128571Y39814285D01*
X89128571Y40080952D01*
X88976190Y40080952D01*
X89471428Y39738095D02*
X89471428Y40538095D01*
X89928571Y39738095D01*
X89928571Y40538095D01*
X90309523Y39738095D02*
X90309523Y40538095D01*
X90500000Y40538095D01*
X90614285Y40500000D01*
X90690476Y40423809D01*
X90728571Y40347619D01*
X90766666Y40195238D01*
X90766666Y40080952D01*
X90728571Y39928571D01*
X90690476Y39852380D01*
X90614285Y39776190D01*
X90500000Y39738095D01*
X90309523Y39738095D01*
X89109523Y37198095D02*
X89109523Y37998095D01*
X89300000Y37998095D01*
X89414285Y37960000D01*
X89490476Y37883809D01*
X89528571Y37807619D01*
X89566666Y37655238D01*
X89566666Y37540952D01*
X89528571Y37388571D01*
X89490476Y37312380D01*
X89414285Y37236190D01*
X89300000Y37198095D01*
X89109523Y37198095D01*
X90328571Y37198095D02*
X89871428Y37198095D01*
X90100000Y37198095D02*
X90100000Y37998095D01*
X90023809Y37883809D01*
X89947619Y37807619D01*
X89871428Y37769523D01*
X89109523Y34658095D02*
X89109523Y35458095D01*
X89300000Y35458095D01*
X89414285Y35420000D01*
X89490476Y35343809D01*
X89528571Y35267619D01*
X89566666Y35115238D01*
X89566666Y35000952D01*
X89528571Y34848571D01*
X89490476Y34772380D01*
X89414285Y34696190D01*
X89300000Y34658095D01*
X89109523Y34658095D01*
X90061904Y35458095D02*
X90138095Y35458095D01*
X90214285Y35420000D01*
X90252380Y35381904D01*
X90290476Y35305714D01*
X90328571Y35153333D01*
X90328571Y34962857D01*
X90290476Y34810476D01*
X90252380Y34734285D01*
X90214285Y34696190D01*
X90138095Y34658095D01*
X90061904Y34658095D01*
X89985714Y34696190D01*
X89947619Y34734285D01*
X89909523Y34810476D01*
X89871428Y34962857D01*
X89871428Y35153333D01*
X89909523Y35305714D01*
X89947619Y35381904D01*
X89985714Y35420000D01*
X90061904Y35458095D01*
X89109523Y32118095D02*
X89109523Y32918095D01*
X89300000Y32918095D01*
X89414285Y32880000D01*
X89490476Y32803809D01*
X89528571Y32727619D01*
X89566666Y32575238D01*
X89566666Y32460952D01*
X89528571Y32308571D01*
X89490476Y32232380D01*
X89414285Y32156190D01*
X89300000Y32118095D01*
X89109523Y32118095D01*
X90252380Y32651428D02*
X90252380Y32118095D01*
X90061904Y32956190D02*
X89871428Y32384761D01*
X90366666Y32384761D01*
X89566666Y29654285D02*
X89528571Y29616190D01*
X89414285Y29578095D01*
X89338095Y29578095D01*
X89223809Y29616190D01*
X89147619Y29692380D01*
X89109523Y29768571D01*
X89071428Y29920952D01*
X89071428Y30035238D01*
X89109523Y30187619D01*
X89147619Y30263809D01*
X89223809Y30340000D01*
X89338095Y30378095D01*
X89414285Y30378095D01*
X89528571Y30340000D01*
X89566666Y30301904D01*
X90252380Y30378095D02*
X90100000Y30378095D01*
X90023809Y30340000D01*
X89985714Y30301904D01*
X89909523Y30187619D01*
X89871428Y30035238D01*
X89871428Y29730476D01*
X89909523Y29654285D01*
X89947619Y29616190D01*
X90023809Y29578095D01*
X90176190Y29578095D01*
X90252380Y29616190D01*
X90290476Y29654285D01*
X90328571Y29730476D01*
X90328571Y29920952D01*
X90290476Y29997142D01*
X90252380Y30035238D01*
X90176190Y30073333D01*
X90023809Y30073333D01*
X89947619Y30035238D01*
X89909523Y29997142D01*
X89871428Y29920952D01*
X89109523Y27038095D02*
X89109523Y27838095D01*
X89300000Y27838095D01*
X89414285Y27800000D01*
X89490476Y27723809D01*
X89528571Y27647619D01*
X89566666Y27495238D01*
X89566666Y27380952D01*
X89528571Y27228571D01*
X89490476Y27152380D01*
X89414285Y27076190D01*
X89300000Y27038095D01*
X89109523Y27038095D01*
X89833333Y27838095D02*
X90366666Y27838095D01*
X90023809Y27038095D01*
X89147619Y24917142D02*
X89414285Y24917142D01*
X89528571Y24498095D02*
X89147619Y24498095D01*
X89147619Y25298095D01*
X89528571Y25298095D01*
X90214285Y25298095D02*
X90061904Y25298095D01*
X89985714Y25260000D01*
X89947619Y25221904D01*
X89871428Y25107619D01*
X89833333Y24955238D01*
X89833333Y24650476D01*
X89871428Y24574285D01*
X89909523Y24536190D01*
X89985714Y24498095D01*
X90138095Y24498095D01*
X90214285Y24536190D01*
X90252380Y24574285D01*
X90290476Y24650476D01*
X90290476Y24840952D01*
X90252380Y24917142D01*
X90214285Y24955238D01*
X90138095Y24993333D01*
X89985714Y24993333D01*
X89909523Y24955238D01*
X89871428Y24917142D01*
X89833333Y24840952D01*
X89376190Y22377142D02*
X89490476Y22339047D01*
X89528571Y22300952D01*
X89566666Y22224761D01*
X89566666Y22110476D01*
X89528571Y22034285D01*
X89490476Y21996190D01*
X89414285Y21958095D01*
X89109523Y21958095D01*
X89109523Y22758095D01*
X89376190Y22758095D01*
X89452380Y22720000D01*
X89490476Y22681904D01*
X89528571Y22605714D01*
X89528571Y22529523D01*
X89490476Y22453333D01*
X89452380Y22415238D01*
X89376190Y22377142D01*
X89109523Y22377142D01*
X90252380Y22491428D02*
X90252380Y21958095D01*
X90061904Y22796190D02*
X89871428Y22224761D01*
X90366666Y22224761D01*
X89376190Y19837142D02*
X89490476Y19799047D01*
X89528571Y19760952D01*
X89566666Y19684761D01*
X89566666Y19570476D01*
X89528571Y19494285D01*
X89490476Y19456190D01*
X89414285Y19418095D01*
X89109523Y19418095D01*
X89109523Y20218095D01*
X89376190Y20218095D01*
X89452380Y20180000D01*
X89490476Y20141904D01*
X89528571Y20065714D01*
X89528571Y19989523D01*
X89490476Y19913333D01*
X89452380Y19875238D01*
X89376190Y19837142D01*
X89109523Y19837142D01*
X90290476Y20218095D02*
X89909523Y20218095D01*
X89871428Y19837142D01*
X89909523Y19875238D01*
X89985714Y19913333D01*
X90176190Y19913333D01*
X90252380Y19875238D01*
X90290476Y19837142D01*
X90328571Y19760952D01*
X90328571Y19570476D01*
X90290476Y19494285D01*
X90252380Y19456190D01*
X90176190Y19418095D01*
X89985714Y19418095D01*
X89909523Y19456190D01*
X89871428Y19494285D01*
%TO.C,MCU2*%
X-109802380Y47358095D02*
X-110069047Y47739047D01*
X-110259523Y47358095D02*
X-110259523Y48158095D01*
X-109954761Y48158095D01*
X-109878571Y48120000D01*
X-109840476Y48081904D01*
X-109802380Y48005714D01*
X-109802380Y47891428D01*
X-109840476Y47815238D01*
X-109878571Y47777142D01*
X-109954761Y47739047D01*
X-110259523Y47739047D01*
X-109497619Y47586666D02*
X-109116666Y47586666D01*
X-109573809Y47358095D02*
X-109307142Y48158095D01*
X-109040476Y47358095D01*
X-108850000Y48158095D02*
X-108659523Y47358095D01*
X-108507142Y47929523D01*
X-108354761Y47358095D01*
X-108164285Y48158095D01*
X-109859523Y45580000D02*
X-109935714Y45618095D01*
X-110050000Y45618095D01*
X-110164285Y45580000D01*
X-110240476Y45503809D01*
X-110278571Y45427619D01*
X-110316666Y45275238D01*
X-110316666Y45160952D01*
X-110278571Y45008571D01*
X-110240476Y44932380D01*
X-110164285Y44856190D01*
X-110050000Y44818095D01*
X-109973809Y44818095D01*
X-109859523Y44856190D01*
X-109821428Y44894285D01*
X-109821428Y45160952D01*
X-109973809Y45160952D01*
X-109478571Y44818095D02*
X-109478571Y45618095D01*
X-109021428Y44818095D01*
X-109021428Y45618095D01*
X-108640476Y44818095D02*
X-108640476Y45618095D01*
X-108450000Y45618095D01*
X-108335714Y45580000D01*
X-108259523Y45503809D01*
X-108221428Y45427619D01*
X-108183333Y45275238D01*
X-108183333Y45160952D01*
X-108221428Y45008571D01*
X-108259523Y44932380D01*
X-108335714Y44856190D01*
X-108450000Y44818095D01*
X-108640476Y44818095D01*
X-109688095Y42278095D02*
X-109954761Y42659047D01*
X-110145238Y42278095D02*
X-110145238Y43078095D01*
X-109840476Y43078095D01*
X-109764285Y43040000D01*
X-109726190Y43001904D01*
X-109688095Y42925714D01*
X-109688095Y42811428D01*
X-109726190Y42735238D01*
X-109764285Y42697142D01*
X-109840476Y42659047D01*
X-110145238Y42659047D01*
X-109383333Y42316190D02*
X-109269047Y42278095D01*
X-109078571Y42278095D01*
X-109002380Y42316190D01*
X-108964285Y42354285D01*
X-108926190Y42430476D01*
X-108926190Y42506666D01*
X-108964285Y42582857D01*
X-109002380Y42620952D01*
X-109078571Y42659047D01*
X-109230952Y42697142D01*
X-109307142Y42735238D01*
X-109345238Y42773333D01*
X-109383333Y42849523D01*
X-109383333Y42925714D01*
X-109345238Y43001904D01*
X-109307142Y43040000D01*
X-109230952Y43078095D01*
X-109040476Y43078095D01*
X-108926190Y43040000D01*
X-108697619Y43078095D02*
X-108240476Y43078095D01*
X-108469047Y42278095D02*
X-108469047Y43078095D01*
X-110316666Y40538095D02*
X-110050000Y39738095D01*
X-109783333Y40538095D01*
X-109059523Y39814285D02*
X-109097619Y39776190D01*
X-109211904Y39738095D01*
X-109288095Y39738095D01*
X-109402380Y39776190D01*
X-109478571Y39852380D01*
X-109516666Y39928571D01*
X-109554761Y40080952D01*
X-109554761Y40195238D01*
X-109516666Y40347619D01*
X-109478571Y40423809D01*
X-109402380Y40500000D01*
X-109288095Y40538095D01*
X-109211904Y40538095D01*
X-109097619Y40500000D01*
X-109059523Y40461904D01*
X-108259523Y39814285D02*
X-108297619Y39776190D01*
X-108411904Y39738095D01*
X-108488095Y39738095D01*
X-108602380Y39776190D01*
X-108678571Y39852380D01*
X-108716666Y39928571D01*
X-108754761Y40080952D01*
X-108754761Y40195238D01*
X-108716666Y40347619D01*
X-108678571Y40423809D01*
X-108602380Y40500000D01*
X-108488095Y40538095D01*
X-108411904Y40538095D01*
X-108297619Y40500000D01*
X-108259523Y40461904D01*
X-109516666Y37617142D02*
X-109783333Y37617142D01*
X-109783333Y37198095D02*
X-109783333Y37998095D01*
X-109402380Y37998095D01*
X-108754761Y37731428D02*
X-108754761Y37198095D01*
X-108945238Y38036190D02*
X-109135714Y37464761D01*
X-108640476Y37464761D01*
X-109516666Y35077142D02*
X-109783333Y35077142D01*
X-109783333Y34658095D02*
X-109783333Y35458095D01*
X-109402380Y35458095D01*
X-108716666Y35458095D02*
X-109097619Y35458095D01*
X-109135714Y35077142D01*
X-109097619Y35115238D01*
X-109021428Y35153333D01*
X-108830952Y35153333D01*
X-108754761Y35115238D01*
X-108716666Y35077142D01*
X-108678571Y35000952D01*
X-108678571Y34810476D01*
X-108716666Y34734285D01*
X-108754761Y34696190D01*
X-108830952Y34658095D01*
X-109021428Y34658095D01*
X-109097619Y34696190D01*
X-109135714Y34734285D01*
X-109516666Y32537142D02*
X-109783333Y32537142D01*
X-109783333Y32118095D02*
X-109783333Y32918095D01*
X-109402380Y32918095D01*
X-108754761Y32918095D02*
X-108907142Y32918095D01*
X-108983333Y32880000D01*
X-109021428Y32841904D01*
X-109097619Y32727619D01*
X-109135714Y32575238D01*
X-109135714Y32270476D01*
X-109097619Y32194285D01*
X-109059523Y32156190D01*
X-108983333Y32118095D01*
X-108830952Y32118095D01*
X-108754761Y32156190D01*
X-108716666Y32194285D01*
X-108678571Y32270476D01*
X-108678571Y32460952D01*
X-108716666Y32537142D01*
X-108754761Y32575238D01*
X-108830952Y32613333D01*
X-108983333Y32613333D01*
X-109059523Y32575238D01*
X-109097619Y32537142D01*
X-109135714Y32460952D01*
X-109516666Y29997142D02*
X-109783333Y29997142D01*
X-109783333Y29578095D02*
X-109783333Y30378095D01*
X-109402380Y30378095D01*
X-109173809Y30378095D02*
X-108640476Y30378095D01*
X-108983333Y29578095D01*
X-109573809Y27457142D02*
X-109459523Y27419047D01*
X-109421428Y27380952D01*
X-109383333Y27304761D01*
X-109383333Y27190476D01*
X-109421428Y27114285D01*
X-109459523Y27076190D01*
X-109535714Y27038095D01*
X-109840476Y27038095D01*
X-109840476Y27838095D01*
X-109573809Y27838095D01*
X-109497619Y27800000D01*
X-109459523Y27761904D01*
X-109421428Y27685714D01*
X-109421428Y27609523D01*
X-109459523Y27533333D01*
X-109497619Y27495238D01*
X-109573809Y27457142D01*
X-109840476Y27457142D01*
X-108621428Y27038095D02*
X-109078571Y27038095D01*
X-108850000Y27038095D02*
X-108850000Y27838095D01*
X-108926190Y27723809D01*
X-109002380Y27647619D01*
X-109078571Y27609523D01*
X-109573809Y24917142D02*
X-109459523Y24879047D01*
X-109421428Y24840952D01*
X-109383333Y24764761D01*
X-109383333Y24650476D01*
X-109421428Y24574285D01*
X-109459523Y24536190D01*
X-109535714Y24498095D01*
X-109840476Y24498095D01*
X-109840476Y25298095D01*
X-109573809Y25298095D01*
X-109497619Y25260000D01*
X-109459523Y25221904D01*
X-109421428Y25145714D01*
X-109421428Y25069523D01*
X-109459523Y24993333D01*
X-109497619Y24955238D01*
X-109573809Y24917142D01*
X-109840476Y24917142D01*
X-109116666Y25298095D02*
X-108621428Y25298095D01*
X-108888095Y24993333D01*
X-108773809Y24993333D01*
X-108697619Y24955238D01*
X-108659523Y24917142D01*
X-108621428Y24840952D01*
X-108621428Y24650476D01*
X-108659523Y24574285D01*
X-108697619Y24536190D01*
X-108773809Y24498095D01*
X-109002380Y24498095D01*
X-109078571Y24536190D01*
X-109116666Y24574285D01*
X-109573809Y22377142D02*
X-109459523Y22339047D01*
X-109421428Y22300952D01*
X-109383333Y22224761D01*
X-109383333Y22110476D01*
X-109421428Y22034285D01*
X-109459523Y21996190D01*
X-109535714Y21958095D01*
X-109840476Y21958095D01*
X-109840476Y22758095D01*
X-109573809Y22758095D01*
X-109497619Y22720000D01*
X-109459523Y22681904D01*
X-109421428Y22605714D01*
X-109421428Y22529523D01*
X-109459523Y22453333D01*
X-109497619Y22415238D01*
X-109573809Y22377142D01*
X-109840476Y22377142D01*
X-109078571Y22681904D02*
X-109040476Y22720000D01*
X-108964285Y22758095D01*
X-108773809Y22758095D01*
X-108697619Y22720000D01*
X-108659523Y22681904D01*
X-108621428Y22605714D01*
X-108621428Y22529523D01*
X-108659523Y22415238D01*
X-109116666Y21958095D01*
X-108621428Y21958095D01*
X-109573809Y19837142D02*
X-109459523Y19799047D01*
X-109421428Y19760952D01*
X-109383333Y19684761D01*
X-109383333Y19570476D01*
X-109421428Y19494285D01*
X-109459523Y19456190D01*
X-109535714Y19418095D01*
X-109840476Y19418095D01*
X-109840476Y20218095D01*
X-109573809Y20218095D01*
X-109497619Y20180000D01*
X-109459523Y20141904D01*
X-109421428Y20065714D01*
X-109421428Y19989523D01*
X-109459523Y19913333D01*
X-109497619Y19875238D01*
X-109573809Y19837142D01*
X-109840476Y19837142D01*
X-108697619Y20218095D02*
X-108850000Y20218095D01*
X-108926190Y20180000D01*
X-108964285Y20141904D01*
X-109040476Y20027619D01*
X-109078571Y19875238D01*
X-109078571Y19570476D01*
X-109040476Y19494285D01*
X-109002380Y19456190D01*
X-108926190Y19418095D01*
X-108773809Y19418095D01*
X-108697619Y19456190D01*
X-108659523Y19494285D01*
X-108621428Y19570476D01*
X-108621428Y19760952D01*
X-108659523Y19837142D01*
X-108697619Y19875238D01*
X-108773809Y19913333D01*
X-108926190Y19913333D01*
X-109002380Y19875238D01*
X-109040476Y19837142D01*
X-109078571Y19760952D01*
X-119440476Y47358095D02*
X-119440476Y48158095D01*
X-119250000Y48158095D01*
X-119135714Y48120000D01*
X-119059523Y48043809D01*
X-119021428Y47967619D01*
X-118983333Y47815238D01*
X-118983333Y47700952D01*
X-119021428Y47548571D01*
X-119059523Y47472380D01*
X-119135714Y47396190D01*
X-119250000Y47358095D01*
X-119440476Y47358095D01*
X-118716666Y48158095D02*
X-118221428Y48158095D01*
X-118488095Y47853333D01*
X-118373809Y47853333D01*
X-118297619Y47815238D01*
X-118259523Y47777142D01*
X-118221428Y47700952D01*
X-118221428Y47510476D01*
X-118259523Y47434285D01*
X-118297619Y47396190D01*
X-118373809Y47358095D01*
X-118602380Y47358095D01*
X-118678571Y47396190D01*
X-118716666Y47434285D01*
X-119440476Y44818095D02*
X-119440476Y45618095D01*
X-119250000Y45618095D01*
X-119135714Y45580000D01*
X-119059523Y45503809D01*
X-119021428Y45427619D01*
X-118983333Y45275238D01*
X-118983333Y45160952D01*
X-119021428Y45008571D01*
X-119059523Y44932380D01*
X-119135714Y44856190D01*
X-119250000Y44818095D01*
X-119440476Y44818095D01*
X-118678571Y45541904D02*
X-118640476Y45580000D01*
X-118564285Y45618095D01*
X-118373809Y45618095D01*
X-118297619Y45580000D01*
X-118259523Y45541904D01*
X-118221428Y45465714D01*
X-118221428Y45389523D01*
X-118259523Y45275238D01*
X-118716666Y44818095D01*
X-118221428Y44818095D01*
X-119459523Y43040000D02*
X-119535714Y43078095D01*
X-119650000Y43078095D01*
X-119764285Y43040000D01*
X-119840476Y42963809D01*
X-119878571Y42887619D01*
X-119916666Y42735238D01*
X-119916666Y42620952D01*
X-119878571Y42468571D01*
X-119840476Y42392380D01*
X-119764285Y42316190D01*
X-119650000Y42278095D01*
X-119573809Y42278095D01*
X-119459523Y42316190D01*
X-119421428Y42354285D01*
X-119421428Y42620952D01*
X-119573809Y42620952D01*
X-119078571Y42278095D02*
X-119078571Y43078095D01*
X-118621428Y42278095D01*
X-118621428Y43078095D01*
X-118240476Y42278095D02*
X-118240476Y43078095D01*
X-118050000Y43078095D01*
X-117935714Y43040000D01*
X-117859523Y42963809D01*
X-117821428Y42887619D01*
X-117783333Y42735238D01*
X-117783333Y42620952D01*
X-117821428Y42468571D01*
X-117859523Y42392380D01*
X-117935714Y42316190D01*
X-118050000Y42278095D01*
X-118240476Y42278095D01*
X-119459523Y40500000D02*
X-119535714Y40538095D01*
X-119650000Y40538095D01*
X-119764285Y40500000D01*
X-119840476Y40423809D01*
X-119878571Y40347619D01*
X-119916666Y40195238D01*
X-119916666Y40080952D01*
X-119878571Y39928571D01*
X-119840476Y39852380D01*
X-119764285Y39776190D01*
X-119650000Y39738095D01*
X-119573809Y39738095D01*
X-119459523Y39776190D01*
X-119421428Y39814285D01*
X-119421428Y40080952D01*
X-119573809Y40080952D01*
X-119078571Y39738095D02*
X-119078571Y40538095D01*
X-118621428Y39738095D01*
X-118621428Y40538095D01*
X-118240476Y39738095D02*
X-118240476Y40538095D01*
X-118050000Y40538095D01*
X-117935714Y40500000D01*
X-117859523Y40423809D01*
X-117821428Y40347619D01*
X-117783333Y40195238D01*
X-117783333Y40080952D01*
X-117821428Y39928571D01*
X-117859523Y39852380D01*
X-117935714Y39776190D01*
X-118050000Y39738095D01*
X-118240476Y39738095D01*
X-119440476Y37198095D02*
X-119440476Y37998095D01*
X-119250000Y37998095D01*
X-119135714Y37960000D01*
X-119059523Y37883809D01*
X-119021428Y37807619D01*
X-118983333Y37655238D01*
X-118983333Y37540952D01*
X-119021428Y37388571D01*
X-119059523Y37312380D01*
X-119135714Y37236190D01*
X-119250000Y37198095D01*
X-119440476Y37198095D01*
X-118221428Y37198095D02*
X-118678571Y37198095D01*
X-118450000Y37198095D02*
X-118450000Y37998095D01*
X-118526190Y37883809D01*
X-118602380Y37807619D01*
X-118678571Y37769523D01*
X-119440476Y34658095D02*
X-119440476Y35458095D01*
X-119250000Y35458095D01*
X-119135714Y35420000D01*
X-119059523Y35343809D01*
X-119021428Y35267619D01*
X-118983333Y35115238D01*
X-118983333Y35000952D01*
X-119021428Y34848571D01*
X-119059523Y34772380D01*
X-119135714Y34696190D01*
X-119250000Y34658095D01*
X-119440476Y34658095D01*
X-118488095Y35458095D02*
X-118411904Y35458095D01*
X-118335714Y35420000D01*
X-118297619Y35381904D01*
X-118259523Y35305714D01*
X-118221428Y35153333D01*
X-118221428Y34962857D01*
X-118259523Y34810476D01*
X-118297619Y34734285D01*
X-118335714Y34696190D01*
X-118411904Y34658095D01*
X-118488095Y34658095D01*
X-118564285Y34696190D01*
X-118602380Y34734285D01*
X-118640476Y34810476D01*
X-118678571Y34962857D01*
X-118678571Y35153333D01*
X-118640476Y35305714D01*
X-118602380Y35381904D01*
X-118564285Y35420000D01*
X-118488095Y35458095D01*
X-119440476Y32118095D02*
X-119440476Y32918095D01*
X-119250000Y32918095D01*
X-119135714Y32880000D01*
X-119059523Y32803809D01*
X-119021428Y32727619D01*
X-118983333Y32575238D01*
X-118983333Y32460952D01*
X-119021428Y32308571D01*
X-119059523Y32232380D01*
X-119135714Y32156190D01*
X-119250000Y32118095D01*
X-119440476Y32118095D01*
X-118297619Y32651428D02*
X-118297619Y32118095D01*
X-118488095Y32956190D02*
X-118678571Y32384761D01*
X-118183333Y32384761D01*
X-118983333Y29654285D02*
X-119021428Y29616190D01*
X-119135714Y29578095D01*
X-119211904Y29578095D01*
X-119326190Y29616190D01*
X-119402380Y29692380D01*
X-119440476Y29768571D01*
X-119478571Y29920952D01*
X-119478571Y30035238D01*
X-119440476Y30187619D01*
X-119402380Y30263809D01*
X-119326190Y30340000D01*
X-119211904Y30378095D01*
X-119135714Y30378095D01*
X-119021428Y30340000D01*
X-118983333Y30301904D01*
X-118297619Y30378095D02*
X-118450000Y30378095D01*
X-118526190Y30340000D01*
X-118564285Y30301904D01*
X-118640476Y30187619D01*
X-118678571Y30035238D01*
X-118678571Y29730476D01*
X-118640476Y29654285D01*
X-118602380Y29616190D01*
X-118526190Y29578095D01*
X-118373809Y29578095D01*
X-118297619Y29616190D01*
X-118259523Y29654285D01*
X-118221428Y29730476D01*
X-118221428Y29920952D01*
X-118259523Y29997142D01*
X-118297619Y30035238D01*
X-118373809Y30073333D01*
X-118526190Y30073333D01*
X-118602380Y30035238D01*
X-118640476Y29997142D01*
X-118678571Y29920952D01*
X-119440476Y27038095D02*
X-119440476Y27838095D01*
X-119250000Y27838095D01*
X-119135714Y27800000D01*
X-119059523Y27723809D01*
X-119021428Y27647619D01*
X-118983333Y27495238D01*
X-118983333Y27380952D01*
X-119021428Y27228571D01*
X-119059523Y27152380D01*
X-119135714Y27076190D01*
X-119250000Y27038095D01*
X-119440476Y27038095D01*
X-118716666Y27838095D02*
X-118183333Y27838095D01*
X-118526190Y27038095D01*
X-119402380Y24917142D02*
X-119135714Y24917142D01*
X-119021428Y24498095D02*
X-119402380Y24498095D01*
X-119402380Y25298095D01*
X-119021428Y25298095D01*
X-118335714Y25298095D02*
X-118488095Y25298095D01*
X-118564285Y25260000D01*
X-118602380Y25221904D01*
X-118678571Y25107619D01*
X-118716666Y24955238D01*
X-118716666Y24650476D01*
X-118678571Y24574285D01*
X-118640476Y24536190D01*
X-118564285Y24498095D01*
X-118411904Y24498095D01*
X-118335714Y24536190D01*
X-118297619Y24574285D01*
X-118259523Y24650476D01*
X-118259523Y24840952D01*
X-118297619Y24917142D01*
X-118335714Y24955238D01*
X-118411904Y24993333D01*
X-118564285Y24993333D01*
X-118640476Y24955238D01*
X-118678571Y24917142D01*
X-118716666Y24840952D01*
X-119173809Y22377142D02*
X-119059523Y22339047D01*
X-119021428Y22300952D01*
X-118983333Y22224761D01*
X-118983333Y22110476D01*
X-119021428Y22034285D01*
X-119059523Y21996190D01*
X-119135714Y21958095D01*
X-119440476Y21958095D01*
X-119440476Y22758095D01*
X-119173809Y22758095D01*
X-119097619Y22720000D01*
X-119059523Y22681904D01*
X-119021428Y22605714D01*
X-119021428Y22529523D01*
X-119059523Y22453333D01*
X-119097619Y22415238D01*
X-119173809Y22377142D01*
X-119440476Y22377142D01*
X-118297619Y22491428D02*
X-118297619Y21958095D01*
X-118488095Y22796190D02*
X-118678571Y22224761D01*
X-118183333Y22224761D01*
X-119173809Y19837142D02*
X-119059523Y19799047D01*
X-119021428Y19760952D01*
X-118983333Y19684761D01*
X-118983333Y19570476D01*
X-119021428Y19494285D01*
X-119059523Y19456190D01*
X-119135714Y19418095D01*
X-119440476Y19418095D01*
X-119440476Y20218095D01*
X-119173809Y20218095D01*
X-119097619Y20180000D01*
X-119059523Y20141904D01*
X-119021428Y20065714D01*
X-119021428Y19989523D01*
X-119059523Y19913333D01*
X-119097619Y19875238D01*
X-119173809Y19837142D01*
X-119440476Y19837142D01*
X-118259523Y20218095D02*
X-118640476Y20218095D01*
X-118678571Y19837142D01*
X-118640476Y19875238D01*
X-118564285Y19913333D01*
X-118373809Y19913333D01*
X-118297619Y19875238D01*
X-118259523Y19837142D01*
X-118221428Y19760952D01*
X-118221428Y19570476D01*
X-118259523Y19494285D01*
X-118297619Y19456190D01*
X-118373809Y19418095D01*
X-118564285Y19418095D01*
X-118640476Y19456190D01*
X-118678571Y19494285D01*
%TO.C,*%
D11*
%TO.C,D1*%
X250000Y-4500000D02*
X750000Y-4500000D01*
X250000Y-4900000D02*
X-350000Y-4500000D01*
X250000Y-4100000D02*
X250000Y-4900000D01*
X-350000Y-4500000D02*
X250000Y-4100000D01*
X-350000Y-4500000D02*
X-350000Y-5050000D01*
X-350000Y-4500000D02*
X-350000Y-3950000D01*
X-750000Y-4500000D02*
X-350000Y-4500000D01*
%TO.C,D2*%
X250000Y12500000D02*
X750000Y12500000D01*
X250000Y12100000D02*
X-350000Y12500000D01*
X250000Y12900000D02*
X250000Y12100000D01*
X-350000Y12500000D02*
X250000Y12900000D01*
X-350000Y12500000D02*
X-350000Y11950000D01*
X-350000Y12500000D02*
X-350000Y13050000D01*
X-750000Y12500000D02*
X-350000Y12500000D01*
%TO.C,D3*%
X250000Y29500000D02*
X750000Y29500000D01*
X250000Y29100000D02*
X-350000Y29500000D01*
X250000Y29900000D02*
X250000Y29100000D01*
X-350000Y29500000D02*
X250000Y29900000D01*
X-350000Y29500000D02*
X-350000Y28950000D01*
X-350000Y29500000D02*
X-350000Y30050000D01*
X-750000Y29500000D02*
X-350000Y29500000D01*
%TO.C,D4*%
X19250000Y8250000D02*
X19750000Y8250000D01*
X19250000Y7850000D02*
X18650000Y8250000D01*
X19250000Y8650000D02*
X19250000Y7850000D01*
X18650000Y8250000D02*
X19250000Y8650000D01*
X18650000Y8250000D02*
X18650000Y7700000D01*
X18650000Y8250000D02*
X18650000Y8800000D01*
X18250000Y8250000D02*
X18650000Y8250000D01*
%TO.C,D5*%
X19250000Y25250000D02*
X19750000Y25250000D01*
X19250000Y24850000D02*
X18650000Y25250000D01*
X19250000Y25650000D02*
X19250000Y24850000D01*
X18650000Y25250000D02*
X19250000Y25650000D01*
X18650000Y25250000D02*
X18650000Y24700000D01*
X18650000Y25250000D02*
X18650000Y25800000D01*
X18250000Y25250000D02*
X18650000Y25250000D01*
%TO.C,D6*%
X19250000Y42250000D02*
X19750000Y42250000D01*
X19250000Y41850000D02*
X18650000Y42250000D01*
X19250000Y42650000D02*
X19250000Y41850000D01*
X18650000Y42250000D02*
X19250000Y42650000D01*
X18650000Y42250000D02*
X18650000Y41700000D01*
X18650000Y42250000D02*
X18650000Y42800000D01*
X18250000Y42250000D02*
X18650000Y42250000D01*
%TO.C,D7*%
X38250000Y16750000D02*
X38750000Y16750000D01*
X38250000Y16350000D02*
X37650000Y16750000D01*
X38250000Y17150000D02*
X38250000Y16350000D01*
X37650000Y16750000D02*
X38250000Y17150000D01*
X37650000Y16750000D02*
X37650000Y16200000D01*
X37650000Y16750000D02*
X37650000Y17300000D01*
X37250000Y16750000D02*
X37650000Y16750000D01*
%TO.C,D8*%
X38250000Y33750000D02*
X38750000Y33750000D01*
X38250000Y33350000D02*
X37650000Y33750000D01*
X38250000Y34150000D02*
X38250000Y33350000D01*
X37650000Y33750000D02*
X38250000Y34150000D01*
X37650000Y33750000D02*
X37650000Y33200000D01*
X37650000Y33750000D02*
X37650000Y34300000D01*
X37250000Y33750000D02*
X37650000Y33750000D01*
%TO.C,D9*%
X38250000Y50750000D02*
X38750000Y50750000D01*
X38250000Y50350000D02*
X37650000Y50750000D01*
X38250000Y51150000D02*
X38250000Y50350000D01*
X37650000Y50750000D02*
X38250000Y51150000D01*
X37650000Y50750000D02*
X37650000Y50200000D01*
X37650000Y50750000D02*
X37650000Y51300000D01*
X37250000Y50750000D02*
X37650000Y50750000D01*
%TO.C,D10*%
X57250000Y12500000D02*
X57750000Y12500000D01*
X57250000Y12100000D02*
X56650000Y12500000D01*
X57250000Y12900000D02*
X57250000Y12100000D01*
X56650000Y12500000D02*
X57250000Y12900000D01*
X56650000Y12500000D02*
X56650000Y11950000D01*
X56650000Y12500000D02*
X56650000Y13050000D01*
X56250000Y12500000D02*
X56650000Y12500000D01*
%TO.C,D11*%
X57250000Y29500000D02*
X57750000Y29500000D01*
X57250000Y29100000D02*
X56650000Y29500000D01*
X57250000Y29900000D02*
X57250000Y29100000D01*
X56650000Y29500000D02*
X57250000Y29900000D01*
X56650000Y29500000D02*
X56650000Y28950000D01*
X56650000Y29500000D02*
X56650000Y30050000D01*
X56250000Y29500000D02*
X56650000Y29500000D01*
%TO.C,D12*%
X57250000Y46500000D02*
X57750000Y46500000D01*
X57250000Y46100000D02*
X56650000Y46500000D01*
X57250000Y46900000D02*
X57250000Y46100000D01*
X56650000Y46500000D02*
X57250000Y46900000D01*
X56650000Y46500000D02*
X56650000Y45950000D01*
X56650000Y46500000D02*
X56650000Y47050000D01*
X56250000Y46500000D02*
X56650000Y46500000D01*
%TO.C,D13*%
X76250000Y8250000D02*
X76750000Y8250000D01*
X76250000Y7850000D02*
X75650000Y8250000D01*
X76250000Y8650000D02*
X76250000Y7850000D01*
X75650000Y8250000D02*
X76250000Y8650000D01*
X75650000Y8250000D02*
X75650000Y7700000D01*
X75650000Y8250000D02*
X75650000Y8800000D01*
X75250000Y8250000D02*
X75650000Y8250000D01*
%TO.C,D14*%
X76250000Y25250000D02*
X76750000Y25250000D01*
X76250000Y24850000D02*
X75650000Y25250000D01*
X76250000Y25650000D02*
X76250000Y24850000D01*
X75650000Y25250000D02*
X76250000Y25650000D01*
X75650000Y25250000D02*
X75650000Y24700000D01*
X75650000Y25250000D02*
X75650000Y25800000D01*
X75250000Y25250000D02*
X75650000Y25250000D01*
%TO.C,D15*%
X76250000Y42250000D02*
X76750000Y42250000D01*
X76250000Y41850000D02*
X75650000Y42250000D01*
X76250000Y42650000D02*
X76250000Y41850000D01*
X75650000Y42250000D02*
X76250000Y42650000D01*
X75650000Y42250000D02*
X75650000Y41700000D01*
X75650000Y42250000D02*
X75650000Y42800000D01*
X75250000Y42250000D02*
X75650000Y42250000D01*
%TO.C,D16*%
X57143152Y-6995335D02*
X56645055Y-6951757D01*
X57178015Y-6596857D02*
X57740869Y-7047629D01*
X57108290Y-7393813D02*
X57178015Y-6596857D01*
X57740869Y-7047629D02*
X57108290Y-7393813D01*
X57740869Y-7047629D02*
X57788805Y-6499721D01*
X57740869Y-7047629D02*
X57692933Y-7595536D01*
X58139347Y-7082491D02*
X57740869Y-7047629D01*
%TO.C,D17*%
X79824953Y-10950498D02*
X79341990Y-10821089D01*
X79928480Y-10564128D02*
X80404508Y-11105790D01*
X79721425Y-11336869D02*
X79928480Y-10564128D01*
X80404508Y-11105790D02*
X79721425Y-11336869D01*
X80404508Y-11105790D02*
X80546859Y-10574530D01*
X80404508Y-11105790D02*
X80262158Y-11637049D01*
X80790878Y-11209317D02*
X80404508Y-11105790D01*
%TO.C,D18*%
X96981715Y-16973416D02*
X96731715Y-17406429D01*
X96635305Y-16773416D02*
X97281715Y-16453801D01*
X97328125Y-17173416D02*
X96635305Y-16773416D01*
X97281715Y-16453801D02*
X97328125Y-17173416D01*
X97281715Y-16453801D02*
X96805401Y-16178801D01*
X97281715Y-16453801D02*
X97758029Y-16728801D01*
X97481715Y-16107391D02*
X97281715Y-16453801D01*
%TO.C,D19*%
X-19300000Y-4500000D02*
X-18800000Y-4500000D01*
X-19300000Y-4900000D02*
X-19900000Y-4500000D01*
X-19300000Y-4100000D02*
X-19300000Y-4900000D01*
X-19900000Y-4500000D02*
X-19300000Y-4100000D01*
X-19900000Y-4500000D02*
X-19900000Y-5050000D01*
X-19900000Y-4500000D02*
X-19900000Y-3950000D01*
X-20300000Y-4500000D02*
X-19900000Y-4500000D01*
%TO.C,D20*%
X-19300000Y12500000D02*
X-18800000Y12500000D01*
X-19300000Y12100000D02*
X-19900000Y12500000D01*
X-19300000Y12900000D02*
X-19300000Y12100000D01*
X-19900000Y12500000D02*
X-19300000Y12900000D01*
X-19900000Y12500000D02*
X-19900000Y11950000D01*
X-19900000Y12500000D02*
X-19900000Y13050000D01*
X-20300000Y12500000D02*
X-19900000Y12500000D01*
%TO.C,D21*%
X-19300000Y29500000D02*
X-18800000Y29500000D01*
X-19300000Y29100000D02*
X-19900000Y29500000D01*
X-19300000Y29900000D02*
X-19300000Y29100000D01*
X-19900000Y29500000D02*
X-19300000Y29900000D01*
X-19900000Y29500000D02*
X-19900000Y28950000D01*
X-19900000Y29500000D02*
X-19900000Y30050000D01*
X-20300000Y29500000D02*
X-19900000Y29500000D01*
%TO.C,D22*%
X-38300000Y8250000D02*
X-37800000Y8250000D01*
X-38300000Y7850000D02*
X-38900000Y8250000D01*
X-38300000Y8650000D02*
X-38300000Y7850000D01*
X-38900000Y8250000D02*
X-38300000Y8650000D01*
X-38900000Y8250000D02*
X-38900000Y7700000D01*
X-38900000Y8250000D02*
X-38900000Y8800000D01*
X-39300000Y8250000D02*
X-38900000Y8250000D01*
%TO.C,D23*%
X-38300000Y25250000D02*
X-37800000Y25250000D01*
X-38300000Y24850000D02*
X-38900000Y25250000D01*
X-38300000Y25650000D02*
X-38300000Y24850000D01*
X-38900000Y25250000D02*
X-38300000Y25650000D01*
X-38900000Y25250000D02*
X-38900000Y24700000D01*
X-38900000Y25250000D02*
X-38900000Y25800000D01*
X-39300000Y25250000D02*
X-38900000Y25250000D01*
%TO.C,D24*%
X-38300000Y42250000D02*
X-37800000Y42250000D01*
X-38300000Y41850000D02*
X-38900000Y42250000D01*
X-38300000Y42650000D02*
X-38300000Y41850000D01*
X-38900000Y42250000D02*
X-38300000Y42650000D01*
X-38900000Y42250000D02*
X-38900000Y41700000D01*
X-38900000Y42250000D02*
X-38900000Y42800000D01*
X-39300000Y42250000D02*
X-38900000Y42250000D01*
%TO.C,D25*%
X-57300000Y16750000D02*
X-56800000Y16750000D01*
X-57300000Y16350000D02*
X-57900000Y16750000D01*
X-57300000Y17150000D02*
X-57300000Y16350000D01*
X-57900000Y16750000D02*
X-57300000Y17150000D01*
X-57900000Y16750000D02*
X-57900000Y16200000D01*
X-57900000Y16750000D02*
X-57900000Y17300000D01*
X-58300000Y16750000D02*
X-57900000Y16750000D01*
%TO.C,D26*%
X-57300000Y33750000D02*
X-56800000Y33750000D01*
X-57300000Y33350000D02*
X-57900000Y33750000D01*
X-57300000Y34150000D02*
X-57300000Y33350000D01*
X-57900000Y33750000D02*
X-57300000Y34150000D01*
X-57900000Y33750000D02*
X-57900000Y33200000D01*
X-57900000Y33750000D02*
X-57900000Y34300000D01*
X-58300000Y33750000D02*
X-57900000Y33750000D01*
%TO.C,D27*%
X-57300000Y50750000D02*
X-56800000Y50750000D01*
X-57300000Y50350000D02*
X-57900000Y50750000D01*
X-57300000Y51150000D02*
X-57300000Y50350000D01*
X-57900000Y50750000D02*
X-57300000Y51150000D01*
X-57900000Y50750000D02*
X-57900000Y50200000D01*
X-57900000Y50750000D02*
X-57900000Y51300000D01*
X-58300000Y50750000D02*
X-57900000Y50750000D01*
%TO.C,D28*%
X-76300000Y12500000D02*
X-75800000Y12500000D01*
X-76300000Y12100000D02*
X-76900000Y12500000D01*
X-76300000Y12900000D02*
X-76300000Y12100000D01*
X-76900000Y12500000D02*
X-76300000Y12900000D01*
X-76900000Y12500000D02*
X-76900000Y11950000D01*
X-76900000Y12500000D02*
X-76900000Y13050000D01*
X-77300000Y12500000D02*
X-76900000Y12500000D01*
%TO.C,D29*%
X-76300000Y29500000D02*
X-75800000Y29500000D01*
X-76300000Y29100000D02*
X-76900000Y29500000D01*
X-76300000Y29900000D02*
X-76300000Y29100000D01*
X-76900000Y29500000D02*
X-76300000Y29900000D01*
X-76900000Y29500000D02*
X-76900000Y28950000D01*
X-76900000Y29500000D02*
X-76900000Y30050000D01*
X-77300000Y29500000D02*
X-76900000Y29500000D01*
%TO.C,D30*%
X-76300000Y46500000D02*
X-75800000Y46500000D01*
X-76300000Y46100000D02*
X-76900000Y46500000D01*
X-76300000Y46900000D02*
X-76300000Y46100000D01*
X-76900000Y46500000D02*
X-76300000Y46900000D01*
X-76900000Y46500000D02*
X-76900000Y45950000D01*
X-76900000Y46500000D02*
X-76900000Y47050000D01*
X-77300000Y46500000D02*
X-76900000Y46500000D01*
%TO.C,D31*%
X-95300000Y8250000D02*
X-94800000Y8250000D01*
X-95300000Y7850000D02*
X-95900000Y8250000D01*
X-95300000Y8650000D02*
X-95300000Y7850000D01*
X-95900000Y8250000D02*
X-95300000Y8650000D01*
X-95900000Y8250000D02*
X-95900000Y7700000D01*
X-95900000Y8250000D02*
X-95900000Y8800000D01*
X-96300000Y8250000D02*
X-95900000Y8250000D01*
%TO.C,D32*%
X-95300000Y25250000D02*
X-94800000Y25250000D01*
X-95300000Y24850000D02*
X-95900000Y25250000D01*
X-95300000Y25650000D02*
X-95300000Y24850000D01*
X-95900000Y25250000D02*
X-95300000Y25650000D01*
X-95900000Y25250000D02*
X-95900000Y24700000D01*
X-95900000Y25250000D02*
X-95900000Y25800000D01*
X-96300000Y25250000D02*
X-95900000Y25250000D01*
%TO.C,D33*%
X-95300000Y42250000D02*
X-94800000Y42250000D01*
X-95300000Y41850000D02*
X-95900000Y42250000D01*
X-95300000Y42650000D02*
X-95300000Y41850000D01*
X-95900000Y42250000D02*
X-95300000Y42650000D01*
X-95900000Y42250000D02*
X-95900000Y41700000D01*
X-95900000Y42250000D02*
X-95900000Y42800000D01*
X-96300000Y42250000D02*
X-95900000Y42250000D01*
%TO.C,D34*%
X-77191250Y-7038913D02*
X-77689347Y-7082491D01*
X-77226112Y-6640435D02*
X-76593533Y-6986619D01*
X-77156387Y-7437391D02*
X-77226112Y-6640435D01*
X-76593533Y-6986619D02*
X-77156387Y-7437391D01*
X-76593533Y-6986619D02*
X-76641469Y-6438712D01*
X-76593533Y-6986619D02*
X-76545597Y-7534527D01*
X-76195055Y-6951757D02*
X-76593533Y-6986619D01*
%TO.C,D35*%
X-99857915Y-11079908D02*
X-100340878Y-11209317D01*
X-99961443Y-10693537D02*
X-99278360Y-10924616D01*
X-99754388Y-11466278D02*
X-99961443Y-10693537D01*
X-99278360Y-10924616D02*
X-99754388Y-11466278D01*
X-99278360Y-10924616D02*
X-99420710Y-10393357D01*
X-99278360Y-10924616D02*
X-99136009Y-11455876D01*
X-98891990Y-10821089D02*
X-99278360Y-10924616D01*
%TO.C,D36*%
X-116781715Y-16540404D02*
X-117031715Y-16107391D01*
X-116435305Y-16340404D02*
X-116481715Y-17060019D01*
X-117128125Y-16740404D02*
X-116435305Y-16340404D01*
X-116481715Y-17060019D02*
X-117128125Y-16740404D01*
X-116481715Y-17060019D02*
X-116005401Y-16785019D01*
X-116481715Y-17060019D02*
X-116958029Y-17335019D01*
X-116281715Y-17406429D02*
X-116481715Y-17060019D01*
%TD*%
D12*
%TO.C,MCU1*%
X102120000Y47720000D03*
D13*
X102120000Y45180000D03*
X102120000Y42640000D03*
X102120000Y40100000D03*
X102120000Y37560000D03*
X102120000Y35020000D03*
X102120000Y32480000D03*
X102120000Y29940000D03*
X102120000Y27400000D03*
X102120000Y24860000D03*
X102120000Y22320000D03*
X102120000Y19780000D03*
X86880000Y47720000D03*
X86880000Y45180000D03*
X86880000Y42640000D03*
X86880000Y40100000D03*
X86880000Y37560000D03*
X86880000Y35020000D03*
X86880000Y32480000D03*
X86880000Y29940000D03*
X86880000Y27400000D03*
X86880000Y24860000D03*
X86880000Y22320000D03*
X86880000Y19780000D03*
%TD*%
D12*
%TO.C,MCU2*%
X-106430000Y47720000D03*
D13*
X-106430000Y45180000D03*
X-106430000Y42640000D03*
X-106430000Y40100000D03*
X-106430000Y37560000D03*
X-106430000Y35020000D03*
X-106430000Y32480000D03*
X-106430000Y29940000D03*
X-106430000Y27400000D03*
X-106430000Y24860000D03*
X-106430000Y22320000D03*
X-106430000Y19780000D03*
X-121670000Y47720000D03*
X-121670000Y45180000D03*
X-121670000Y42640000D03*
X-121670000Y40100000D03*
X-121670000Y37560000D03*
X-121670000Y35020000D03*
X-121670000Y32480000D03*
X-121670000Y29940000D03*
X-121670000Y27400000D03*
X-121670000Y24860000D03*
X-121670000Y22320000D03*
X-121670000Y19780000D03*
%TD*%
%LPC*%
D14*
%TO.C,S1*%
X0Y0D03*
D15*
X5500000Y0D03*
X-5500000Y0D03*
D16*
X5000000Y3800000D03*
X0Y5900000D03*
%TD*%
D17*
%TO.C,D1*%
X-1650000Y-4500000D03*
X1650000Y-4500000D03*
D18*
X3810000Y-4500000D03*
D19*
X-3810000Y-4500000D03*
%TD*%
D14*
%TO.C,S2*%
X0Y17000000D03*
D15*
X5500000Y17000000D03*
X-5500000Y17000000D03*
D16*
X5000000Y20800000D03*
X0Y22900000D03*
%TD*%
D17*
%TO.C,D2*%
X-1650000Y12500000D03*
X1650000Y12500000D03*
D18*
X3810000Y12500000D03*
D19*
X-3810000Y12500000D03*
%TD*%
D14*
%TO.C,S3*%
X0Y34000000D03*
D15*
X5500000Y34000000D03*
X-5500000Y34000000D03*
D16*
X5000000Y37800000D03*
X0Y39900000D03*
%TD*%
D17*
%TO.C,D3*%
X-1650000Y29500000D03*
X1650000Y29500000D03*
D18*
X3810000Y29500000D03*
D19*
X-3810000Y29500000D03*
%TD*%
D14*
%TO.C,S4*%
X19000000Y12750000D03*
D15*
X24500000Y12750000D03*
X13500000Y12750000D03*
D16*
X24000000Y16550000D03*
X19000000Y18650000D03*
%TD*%
D17*
%TO.C,D4*%
X17350000Y8250000D03*
X20650000Y8250000D03*
D18*
X22810000Y8250000D03*
D19*
X15190000Y8250000D03*
%TD*%
D14*
%TO.C,S5*%
X19000000Y29750000D03*
D15*
X24500000Y29750000D03*
X13500000Y29750000D03*
D16*
X24000000Y33550000D03*
X19000000Y35650000D03*
%TD*%
D17*
%TO.C,D5*%
X17350000Y25250000D03*
X20650000Y25250000D03*
D18*
X22810000Y25250000D03*
D19*
X15190000Y25250000D03*
%TD*%
D14*
%TO.C,S6*%
X19000000Y46750000D03*
D15*
X24500000Y46750000D03*
X13500000Y46750000D03*
D16*
X24000000Y50550000D03*
X19000000Y52650000D03*
%TD*%
D17*
%TO.C,D6*%
X17350000Y42250000D03*
X20650000Y42250000D03*
D18*
X22810000Y42250000D03*
D19*
X15190000Y42250000D03*
%TD*%
D14*
%TO.C,S7*%
X38000000Y21250000D03*
D15*
X43500000Y21250000D03*
X32500000Y21250000D03*
D16*
X43000000Y25050000D03*
X38000000Y27150000D03*
%TD*%
D17*
%TO.C,D7*%
X36350000Y16750000D03*
X39650000Y16750000D03*
D18*
X41810000Y16750000D03*
D19*
X34190000Y16750000D03*
%TD*%
D14*
%TO.C,S8*%
X38000000Y38250000D03*
D15*
X43500000Y38250000D03*
X32500000Y38250000D03*
D16*
X43000000Y42050000D03*
X38000000Y44150000D03*
%TD*%
D17*
%TO.C,D8*%
X36350000Y33750000D03*
X39650000Y33750000D03*
D18*
X41810000Y33750000D03*
D19*
X34190000Y33750000D03*
%TD*%
D14*
%TO.C,S9*%
X38000000Y55250000D03*
D15*
X43500000Y55250000D03*
X32500000Y55250000D03*
D16*
X43000000Y59050000D03*
X38000000Y61150000D03*
%TD*%
D17*
%TO.C,D9*%
X36350000Y50750000D03*
X39650000Y50750000D03*
D18*
X41810000Y50750000D03*
D19*
X34190000Y50750000D03*
%TD*%
D14*
%TO.C,S10*%
X57000000Y17000000D03*
D15*
X62500000Y17000000D03*
X51500000Y17000000D03*
D16*
X62000000Y20800000D03*
X57000000Y22900000D03*
%TD*%
D17*
%TO.C,D10*%
X55350000Y12500000D03*
X58650000Y12500000D03*
D18*
X60810000Y12500000D03*
D19*
X53190000Y12500000D03*
%TD*%
D14*
%TO.C,S11*%
X57000000Y34000000D03*
D15*
X62500000Y34000000D03*
X51500000Y34000000D03*
D16*
X62000000Y37800000D03*
X57000000Y39900000D03*
%TD*%
D17*
%TO.C,D11*%
X55350000Y29500000D03*
X58650000Y29500000D03*
D18*
X60810000Y29500000D03*
D19*
X53190000Y29500000D03*
%TD*%
D14*
%TO.C,S12*%
X57000000Y51000000D03*
D15*
X62500000Y51000000D03*
X51500000Y51000000D03*
D16*
X62000000Y54800000D03*
X57000000Y56900000D03*
%TD*%
D17*
%TO.C,D12*%
X55350000Y46500000D03*
X58650000Y46500000D03*
D18*
X60810000Y46500000D03*
D19*
X53190000Y46500000D03*
%TD*%
D14*
%TO.C,S13*%
X76000000Y12750000D03*
D15*
X81500000Y12750000D03*
X70500000Y12750000D03*
D16*
X81000000Y16550000D03*
X76000000Y18650000D03*
%TD*%
D17*
%TO.C,D13*%
X74350000Y8250000D03*
X77650000Y8250000D03*
D18*
X79810000Y8250000D03*
D19*
X72190000Y8250000D03*
%TD*%
D14*
%TO.C,S14*%
X76000000Y29750000D03*
D15*
X81500000Y29750000D03*
X70500000Y29750000D03*
D16*
X81000000Y33550000D03*
X76000000Y35650000D03*
%TD*%
D17*
%TO.C,D14*%
X74350000Y25250000D03*
X77650000Y25250000D03*
D18*
X79810000Y25250000D03*
D19*
X72190000Y25250000D03*
%TD*%
D14*
%TO.C,S15*%
X76000000Y46750000D03*
D15*
X81500000Y46750000D03*
X70500000Y46750000D03*
D16*
X81000000Y50550000D03*
X76000000Y52650000D03*
%TD*%
D17*
%TO.C,D15*%
X74350000Y42250000D03*
X77650000Y42250000D03*
D18*
X79810000Y42250000D03*
D19*
X72190000Y42250000D03*
%TD*%
D14*
%TO.C,S16*%
X57000000Y-11500000D03*
D15*
X51520929Y-11020643D03*
X62479071Y-11979357D03*
D16*
X51687835Y-14849761D03*
X56485781Y-17377549D03*
%TD*%
D20*
%TO.C,D16*%
X59035922Y-7160931D03*
X55748480Y-6873317D03*
D18*
X53596699Y-6685061D03*
D21*
X61187703Y-7349187D03*
%TD*%
D14*
%TO.C,S17*%
X78901748Y-15361869D03*
D15*
X73589156Y-13938364D03*
X84214340Y-16785374D03*
D16*
X73088606Y-17738292D03*
X77374716Y-21060831D03*
%TD*%
D22*
%TO.C,D17*%
X81660212Y-11442254D03*
X78472656Y-10588152D03*
D18*
X76386257Y-10029102D03*
D23*
X83746611Y-12001304D03*
%TD*%
D14*
%TO.C,S18*%
X101003830Y-19006910D03*
D15*
X98253830Y-23770050D03*
X103753830Y-14243770D03*
D16*
X101794727Y-25237037D03*
X106113380Y-21956910D03*
%TD*%
D24*
%TO.C,D18*%
X97931715Y-15327968D03*
X96281715Y-18185852D03*
D18*
X95201715Y-20056467D03*
D25*
X99011715Y-13457353D03*
%TD*%
D14*
%TO.C,S19*%
X-19550000Y0D03*
D15*
X-14050000Y0D03*
X-25050000Y0D03*
D16*
X-14550000Y3800000D03*
X-19550000Y5900000D03*
%TD*%
D17*
%TO.C,D19*%
X-21200000Y-4500000D03*
X-17900000Y-4500000D03*
D18*
X-15740000Y-4500000D03*
D19*
X-23360000Y-4500000D03*
%TD*%
D14*
%TO.C,S20*%
X-19550000Y17000000D03*
D15*
X-14050000Y17000000D03*
X-25050000Y17000000D03*
D16*
X-14550000Y20800000D03*
X-19550000Y22900000D03*
%TD*%
D17*
%TO.C,D20*%
X-21200000Y12500000D03*
X-17900000Y12500000D03*
D18*
X-15740000Y12500000D03*
D19*
X-23360000Y12500000D03*
%TD*%
D14*
%TO.C,S21*%
X-19550000Y34000000D03*
D15*
X-14050000Y34000000D03*
X-25050000Y34000000D03*
D16*
X-14550000Y37800000D03*
X-19550000Y39900000D03*
%TD*%
D17*
%TO.C,D21*%
X-21200000Y29500000D03*
X-17900000Y29500000D03*
D18*
X-15740000Y29500000D03*
D19*
X-23360000Y29500000D03*
%TD*%
D16*
%TO.C,S22*%
X-38550000Y18650000D03*
X-33550000Y16550000D03*
D15*
X-44050000Y12750000D03*
X-33050000Y12750000D03*
D14*
X-38550000Y12750000D03*
%TD*%
D17*
%TO.C,D22*%
X-40200000Y8250000D03*
X-36900000Y8250000D03*
D18*
X-34740000Y8250000D03*
D19*
X-42360000Y8250000D03*
%TD*%
D14*
%TO.C,S23*%
X-38550000Y29750000D03*
D15*
X-33050000Y29750000D03*
X-44050000Y29750000D03*
D16*
X-33550000Y33550000D03*
X-38550000Y35650000D03*
%TD*%
D17*
%TO.C,D23*%
X-40200000Y25250000D03*
X-36900000Y25250000D03*
D18*
X-34740000Y25250000D03*
D19*
X-42360000Y25250000D03*
%TD*%
D14*
%TO.C,S24*%
X-38550000Y46750000D03*
D15*
X-33050000Y46750000D03*
X-44050000Y46750000D03*
D16*
X-33550000Y50550000D03*
X-38550000Y52650000D03*
%TD*%
D17*
%TO.C,D24*%
X-40200000Y42250000D03*
X-36900000Y42250000D03*
D18*
X-34740000Y42250000D03*
D19*
X-42360000Y42250000D03*
%TD*%
D14*
%TO.C,S25*%
X-57550000Y21250000D03*
D15*
X-52050000Y21250000D03*
X-63050000Y21250000D03*
D16*
X-52550000Y25050000D03*
X-57550000Y27150000D03*
%TD*%
D17*
%TO.C,D25*%
X-59200000Y16750000D03*
X-55900000Y16750000D03*
D18*
X-53740000Y16750000D03*
D19*
X-61360000Y16750000D03*
%TD*%
D14*
%TO.C,S26*%
X-57550000Y38250000D03*
D15*
X-52050000Y38250000D03*
X-63050000Y38250000D03*
D16*
X-52550000Y42050000D03*
X-57550000Y44150000D03*
%TD*%
D17*
%TO.C,D26*%
X-59200000Y33750000D03*
X-55900000Y33750000D03*
D18*
X-53740000Y33750000D03*
D19*
X-61360000Y33750000D03*
%TD*%
D14*
%TO.C,S27*%
X-57550000Y55250000D03*
D15*
X-52050000Y55250000D03*
X-63050000Y55250000D03*
D16*
X-52550000Y59050000D03*
X-57550000Y61150000D03*
%TD*%
D17*
%TO.C,D27*%
X-59200000Y50750000D03*
X-55900000Y50750000D03*
D18*
X-53740000Y50750000D03*
D19*
X-61360000Y50750000D03*
%TD*%
D14*
%TO.C,S28*%
X-76550000Y17000000D03*
D15*
X-71050000Y17000000D03*
X-82050000Y17000000D03*
D16*
X-71550000Y20800000D03*
X-76550000Y22900000D03*
%TD*%
D17*
%TO.C,D28*%
X-78200000Y12500000D03*
X-74900000Y12500000D03*
D18*
X-72740000Y12500000D03*
D19*
X-80360000Y12500000D03*
%TD*%
D14*
%TO.C,S29*%
X-76550000Y34000000D03*
D15*
X-71050000Y34000000D03*
X-82050000Y34000000D03*
D16*
X-71550000Y37800000D03*
X-76550000Y39900000D03*
%TD*%
D17*
%TO.C,D29*%
X-78200000Y29500000D03*
X-74900000Y29500000D03*
D18*
X-72740000Y29500000D03*
D19*
X-80360000Y29500000D03*
%TD*%
D14*
%TO.C,S30*%
X-76550000Y51000000D03*
D15*
X-71050000Y51000000D03*
X-82050000Y51000000D03*
D16*
X-71550000Y54800000D03*
X-76550000Y56900000D03*
%TD*%
D17*
%TO.C,D30*%
X-78200000Y46500000D03*
X-74900000Y46500000D03*
D18*
X-72740000Y46500000D03*
D19*
X-80360000Y46500000D03*
%TD*%
D14*
%TO.C,S31*%
X-95550000Y12750000D03*
D15*
X-90050000Y12750000D03*
X-101050000Y12750000D03*
D16*
X-90550000Y16550000D03*
X-95550000Y18650000D03*
%TD*%
D17*
%TO.C,D31*%
X-97200000Y8250000D03*
X-93900000Y8250000D03*
D18*
X-91740000Y8250000D03*
D19*
X-99360000Y8250000D03*
%TD*%
D14*
%TO.C,S32*%
X-95550000Y29750000D03*
D15*
X-90050000Y29750000D03*
X-101050000Y29750000D03*
D16*
X-90550000Y33550000D03*
X-95550000Y35650000D03*
%TD*%
D17*
%TO.C,D32*%
X-97200000Y25250000D03*
X-93900000Y25250000D03*
D18*
X-91740000Y25250000D03*
D19*
X-99360000Y25250000D03*
%TD*%
D14*
%TO.C,S33*%
X-95550000Y46750000D03*
D15*
X-90050000Y46750000D03*
X-101050000Y46750000D03*
D16*
X-90550000Y50550000D03*
X-95550000Y52650000D03*
%TD*%
D17*
%TO.C,D33*%
X-97200000Y42250000D03*
X-93900000Y42250000D03*
D18*
X-91740000Y42250000D03*
D19*
X-99360000Y42250000D03*
%TD*%
D14*
%TO.C,S34*%
X-76550000Y-11500000D03*
D15*
X-82029071Y-11979357D03*
X-71070929Y-11020643D03*
D16*
X-81199782Y-15721319D03*
X-76035781Y-17377549D03*
%TD*%
D26*
%TO.C,D34*%
X-75298480Y-6873317D03*
X-78585922Y-7160931D03*
D18*
X-80737703Y-7349187D03*
D27*
X-73146699Y-6685061D03*
%TD*%
D14*
%TO.C,S35*%
X-98451748Y-15361869D03*
D15*
X-103764340Y-16785374D03*
X-93139156Y-13938364D03*
D16*
X-102297865Y-20326482D03*
X-96924716Y-21060831D03*
%TD*%
D28*
%TO.C,D35*%
X-98022656Y-10588152D03*
X-101210212Y-11442254D03*
D18*
X-103296611Y-12001304D03*
D29*
X-95936257Y-10029102D03*
%TD*%
D14*
%TO.C,S36*%
X-120553829Y-19006910D03*
D15*
X-123303829Y-14243770D03*
X-117803829Y-23770050D03*
D16*
X-126344726Y-16576783D03*
X-125663379Y-21956910D03*
%TD*%
D30*
%TO.C,D36*%
X-115831715Y-18185852D03*
X-117481715Y-15327968D03*
D18*
X-118561715Y-13457353D03*
D31*
X-114751715Y-20056467D03*
%TD*%
D32*
%TO.C,MCU1*%
X102120000Y47720000D03*
D33*
X102120000Y45180000D03*
X102120000Y42640000D03*
X102120000Y40100000D03*
X102120000Y37560000D03*
X102120000Y35020000D03*
X102120000Y32480000D03*
X102120000Y29940000D03*
X102120000Y27400000D03*
X102120000Y24860000D03*
X102120000Y22320000D03*
X102120000Y19780000D03*
X86880000Y47720000D03*
X86880000Y45180000D03*
X86880000Y42640000D03*
X86880000Y40100000D03*
X86880000Y37560000D03*
X86880000Y35020000D03*
X86880000Y32480000D03*
X86880000Y29940000D03*
X86880000Y27400000D03*
X86880000Y24860000D03*
X86880000Y22320000D03*
X86880000Y19780000D03*
%TD*%
D32*
%TO.C,MCU2*%
X-106430000Y47720000D03*
D33*
X-106430000Y45180000D03*
X-106430000Y42640000D03*
X-106430000Y40100000D03*
X-106430000Y37560000D03*
X-106430000Y35020000D03*
X-106430000Y32480000D03*
X-106430000Y29940000D03*
X-106430000Y27400000D03*
X-106430000Y24860000D03*
X-106430000Y22320000D03*
X-106430000Y19780000D03*
X-121670000Y47720000D03*
X-121670000Y45180000D03*
X-121670000Y42640000D03*
X-121670000Y40100000D03*
X-121670000Y37560000D03*
X-121670000Y35020000D03*
X-121670000Y32480000D03*
X-121670000Y29940000D03*
X-121670000Y27400000D03*
X-121670000Y24860000D03*
X-121670000Y22320000D03*
X-121670000Y19780000D03*
%TD*%
D34*
%TO.C,REF\u002A\u002A*%
X93400000Y11550000D03*
X100400000Y11550000D03*
D35*
X90700000Y13850000D03*
X91800000Y9250000D03*
X95800000Y9250000D03*
X98800000Y9250000D03*
%TD*%
D34*
%TO.C,REF\u002A\u002A*%
X-112950000Y11450000D03*
X-119950000Y11450000D03*
D35*
X-110250000Y9150000D03*
X-111350000Y13750000D03*
X-115350000Y13750000D03*
X-118350000Y13750000D03*
%TD*%
D36*
%TO.C,OLED1*%
X90680000Y16850000D03*
X93220000Y16850000D03*
X95760000Y16850000D03*
D37*
X98300000Y16850000D03*
%TD*%
D36*
%TO.C,OLED2*%
X-117870000Y16850000D03*
X-115330000Y16850000D03*
X-112790000Y16850000D03*
D37*
X-110250000Y16850000D03*
%TD*%
D38*
%TO.C,*%
X47500000Y45800000D03*
X47500000Y7700000D03*
X28450000Y26750000D03*
X66550000Y26750000D03*
%TD*%
%TO.C,*%
X-67050000Y45800000D03*
X-67050000Y7700000D03*
X-86100000Y26750000D03*
X-48000000Y26750000D03*
%TD*%
D39*
X100600000Y36300000D03*
X89024500Y33700000D03*
X81100000Y22875500D03*
X-108000000Y43900000D03*
X-108000000Y36300000D03*
X-119900000Y31200000D03*
X-101900000Y21175500D03*
X-100900000Y21900000D03*
M02*
