%TF.GenerationSoftware,KiCad,Pcbnew,(6.0.4)*%
%TF.CreationDate,2022-07-03T23:33:08-04:00*%
%TF.ProjectId,glitch36,676c6974-6368-4333-962e-6b696361645f,v1.0.0*%
%TF.SameCoordinates,Original*%
%TF.FileFunction,Paste,Bot*%
%TF.FilePolarity,Positive*%
%FSLAX46Y46*%
G04 Gerber Fmt 4.6, Leading zero omitted, Abs format (unit mm)*
G04 Created by KiCad (PCBNEW (6.0.4)) date 2022-07-03 23:33:08*
%MOMM*%
%LPD*%
G01*
G04 APERTURE LIST*
G04 Aperture macros list*
%AMRotRect*
0 Rectangle, with rotation*
0 The origin of the aperture is its center*
0 $1 length*
0 $2 width*
0 $3 Rotation angle, in degrees counterclockwise*
0 Add horizontal line*
21,1,$1,$2,0,0,$3*%
G04 Aperture macros list end*
%ADD10R,0.900000X1.200000*%
%ADD11RotRect,0.900000X1.200000X175.000000*%
%ADD12RotRect,0.900000X1.200000X165.000000*%
%ADD13RotRect,0.900000X1.200000X240.000000*%
%ADD14RotRect,0.900000X1.200000X185.000000*%
%ADD15RotRect,0.900000X1.200000X195.000000*%
%ADD16RotRect,0.900000X1.200000X120.000000*%
G04 APERTURE END LIST*
D10*
%TO.C,D1*%
X1650000Y-4500000D03*
X-1650000Y-4500000D03*
%TD*%
%TO.C,D2*%
X1650000Y12500000D03*
X-1650000Y12500000D03*
%TD*%
%TO.C,D3*%
X1650000Y29500000D03*
X-1650000Y29500000D03*
%TD*%
%TO.C,D4*%
X20650000Y8250000D03*
X17350000Y8250000D03*
%TD*%
%TO.C,D5*%
X20650000Y25250000D03*
X17350000Y25250000D03*
%TD*%
%TO.C,D6*%
X20650000Y42250000D03*
X17350000Y42250000D03*
%TD*%
%TO.C,D7*%
X39650000Y16750000D03*
X36350000Y16750000D03*
%TD*%
%TO.C,D8*%
X39650000Y33750000D03*
X36350000Y33750000D03*
%TD*%
%TO.C,D9*%
X39650000Y50750000D03*
X36350000Y50750000D03*
%TD*%
%TO.C,D10*%
X58650000Y12500000D03*
X55350000Y12500000D03*
%TD*%
%TO.C,D11*%
X58650000Y29500000D03*
X55350000Y29500000D03*
%TD*%
%TO.C,D12*%
X58650000Y46500000D03*
X55350000Y46500000D03*
%TD*%
%TO.C,D13*%
X77650000Y8250000D03*
X74350000Y8250000D03*
%TD*%
%TO.C,D14*%
X77650000Y25250000D03*
X74350000Y25250000D03*
%TD*%
%TO.C,D15*%
X77650000Y42250000D03*
X74350000Y42250000D03*
%TD*%
D11*
%TO.C,D16*%
X55748480Y-6873317D03*
X59035922Y-7160931D03*
%TD*%
D12*
%TO.C,D17*%
X78472656Y-10588152D03*
X81660212Y-11442254D03*
%TD*%
D13*
%TO.C,D18*%
X96281715Y-18185852D03*
X97931715Y-15327968D03*
%TD*%
D10*
%TO.C,D19*%
X-17900000Y-4500000D03*
X-21200000Y-4500000D03*
%TD*%
%TO.C,D20*%
X-17900000Y12500000D03*
X-21200000Y12500000D03*
%TD*%
%TO.C,D21*%
X-17900000Y29500000D03*
X-21200000Y29500000D03*
%TD*%
%TO.C,D22*%
X-36900000Y8250000D03*
X-40200000Y8250000D03*
%TD*%
%TO.C,D23*%
X-36900000Y25250000D03*
X-40200000Y25250000D03*
%TD*%
%TO.C,D24*%
X-36900000Y42250000D03*
X-40200000Y42250000D03*
%TD*%
%TO.C,D25*%
X-55900000Y16750000D03*
X-59200000Y16750000D03*
%TD*%
%TO.C,D26*%
X-55900000Y33750000D03*
X-59200000Y33750000D03*
%TD*%
%TO.C,D27*%
X-55900000Y50750000D03*
X-59200000Y50750000D03*
%TD*%
%TO.C,D28*%
X-74900000Y12500000D03*
X-78200000Y12500000D03*
%TD*%
%TO.C,D29*%
X-74900000Y29500000D03*
X-78200000Y29500000D03*
%TD*%
%TO.C,D30*%
X-74900000Y46500000D03*
X-78200000Y46500000D03*
%TD*%
%TO.C,D31*%
X-93900000Y8250000D03*
X-97200000Y8250000D03*
%TD*%
%TO.C,D32*%
X-93900000Y25250000D03*
X-97200000Y25250000D03*
%TD*%
%TO.C,D33*%
X-93900000Y42250000D03*
X-97200000Y42250000D03*
%TD*%
D14*
%TO.C,D34*%
X-78585922Y-7160931D03*
X-75298480Y-6873317D03*
%TD*%
D15*
%TO.C,D35*%
X-101210212Y-11442254D03*
X-98022656Y-10588152D03*
%TD*%
D16*
%TO.C,D36*%
X-117481715Y-15327968D03*
X-115831715Y-18185852D03*
%TD*%
M02*
