%TF.GenerationSoftware,KiCad,Pcbnew,(6.0.4)*%
%TF.CreationDate,2022-07-03T23:33:08-04:00*%
%TF.ProjectId,glitch36,676c6974-6368-4333-962e-6b696361645f,v1.0.0*%
%TF.SameCoordinates,Original*%
%TF.FileFunction,Profile,NP*%
%FSLAX46Y46*%
G04 Gerber Fmt 4.6, Leading zero omitted, Abs format (unit mm)*
G04 Created by KiCad (PCBNEW (6.0.4)) date 2022-07-03 23:33:08*
%MOMM*%
%LPD*%
G01*
G04 APERTURE LIST*
%TA.AperFunction,Profile*%
%ADD10C,0.150000*%
%TD*%
G04 APERTURE END LIST*
D10*
X99782763Y-35241180D02*
X-7975369Y-8873073D01*
X-9500000Y-6930388D02*
X-9500000Y-4250000D01*
X-9500000Y39250000D02*
X-9500000Y41894563D01*
X-9500000Y30750000D02*
X-9500000Y38250000D01*
X-9500000Y22250000D02*
X-9500000Y29750000D01*
X-9500000Y13750000D02*
X-9500000Y21250000D01*
X-9500000Y5250000D02*
X-9500000Y12750000D01*
X-9500000Y-3250000D02*
X-9500000Y4250000D01*
X85500000Y52963647D02*
X85500000Y51750000D01*
X87500000Y49750000D02*
X102000000Y49750000D01*
X104000000Y47750000D02*
X104000000Y9291438D01*
X104273138Y8282505D02*
X114904058Y-9913088D01*
X114909246Y-11922022D02*
X101990184Y-34298495D01*
X-119332763Y-35241180D02*
X-11574631Y-8873073D01*
X-10050000Y-6930388D02*
X-10050000Y-4250000D01*
X-10050000Y39250000D02*
X-10050000Y41894563D01*
X-10050000Y30750000D02*
X-10050000Y38250000D01*
X-10050000Y22250000D02*
X-10050000Y29750000D01*
X-10050000Y13750000D02*
X-10050000Y21250000D01*
X-10050000Y5250000D02*
X-10050000Y12750000D01*
X-10050000Y-3250000D02*
X-10050000Y4250000D01*
X-107050000Y49750000D02*
X-121550000Y49750000D01*
X-123550000Y47750000D02*
X-123550000Y9291438D01*
X-123823138Y8282505D02*
X-134454058Y-9913088D01*
X-134459246Y-11922022D02*
X-121540184Y-34298495D01*
X-9500000Y-6930388D02*
G75*
G03*
X-7975369Y-8873073I2000000J0D01*
G01*
X85500000Y52963647D02*
G75*
G03*
X85500000Y52964279I-2000000J0D01*
G01*
X85500000Y51750000D02*
G75*
G03*
X87500000Y49750000I2000000J0D01*
G01*
X104000000Y47750000D02*
G75*
G03*
X102000000Y49750000I-2000000J0D01*
G01*
X104000000Y9291438D02*
G75*
G03*
X104273138Y8282505I2000000J0D01*
G01*
X114909247Y-11922022D02*
G75*
G03*
X114904058Y-9913089I-1732051J1000000D01*
G01*
X99782763Y-35241181D02*
G75*
G03*
X101990184Y-34298496I475370J1942686D01*
G01*
X-11574631Y-8873073D02*
G75*
G03*
X-10050000Y-6930388I-475369J1942685D01*
G01*
X-107050000Y49750000D02*
G75*
G03*
X-105050000Y51750000I0J2000000D01*
G01*
X-121550000Y49750000D02*
G75*
G03*
X-123550000Y47750000I0J-2000000D01*
G01*
X-123823138Y8282505D02*
G75*
G03*
X-123550000Y9291438I-1726862J1008933D01*
G01*
X-134454058Y-9913088D02*
G75*
G03*
X-134459247Y-11922021I1726862J-1008934D01*
G01*
X-121540184Y-34298495D02*
G75*
G03*
X-119332764Y-35241180I1732051J1000000D01*
G01*
X-10050000Y38250000D02*
X-9500000Y38250000D01*
X-10050000Y39250000D02*
X-9500000Y39250000D01*
X-10050000Y29750000D02*
X-9500000Y29750000D01*
X-10050000Y30750000D02*
X-9500000Y30750000D01*
X-10050000Y21250000D02*
X-9500000Y21250000D01*
X-10050000Y22250000D02*
X-9500000Y22250000D01*
X-10050000Y12750000D02*
X-9500000Y12750000D01*
X-10050000Y13750000D02*
X-9500000Y13750000D01*
X-10050000Y4250000D02*
X-9500000Y4250000D01*
X-10050000Y5250000D02*
X-9500000Y5250000D01*
X-10050000Y-4250000D02*
X-9500000Y-4250000D01*
X-10050000Y-3250000D02*
X-9500000Y-3250000D01*
X43704019Y64705581D02*
G75*
G03*
X-8325347Y44726067I-3504019J-68610581D01*
G01*
X-11224652Y44726066D02*
G75*
G03*
X-63254018Y64705581I-48525348J-48631066D01*
G01*
X-63254018Y64705582D02*
G75*
G03*
X-63856460Y64628647I204018J-3994795D01*
G01*
X-10050000Y41894563D02*
G75*
G03*
X-11224652Y44726066I-4000000J0D01*
G01*
X-8325348Y44726066D02*
G75*
G03*
X-9500000Y41894563I2825348J-2831503D01*
G01*
X44306460Y64628646D02*
G75*
G03*
X43704018Y64705581I-806460J-3917859D01*
G01*
X84219335Y55482251D02*
G75*
G03*
X44306460Y64628647I-51799335J-134382251D01*
G01*
X-63856460Y64628647D02*
G75*
G03*
X-103769335Y55482251I11886460J-143528647D01*
G01*
X85500000Y53616090D02*
X85500000Y52964279D01*
X-105050000Y51750000D02*
X-105050000Y53616090D01*
X-103769335Y55482251D02*
G75*
G03*
X-105050000Y53616090I719335J-1866161D01*
G01*
X85500000Y53616090D02*
G75*
G03*
X84219335Y55482251I-2000000J0D01*
G01*
M02*
