%TF.GenerationSoftware,KiCad,Pcbnew,(6.0.4)*%
%TF.CreationDate,2022-07-03T23:33:08-04:00*%
%TF.ProjectId,glitch36,676c6974-6368-4333-962e-6b696361645f,v1.0.0*%
%TF.SameCoordinates,Original*%
%TF.FileFunction,Copper,L2,Bot*%
%TF.FilePolarity,Positive*%
%FSLAX46Y46*%
G04 Gerber Fmt 4.6, Leading zero omitted, Abs format (unit mm)*
G04 Created by KiCad (PCBNEW (6.0.4)) date 2022-07-03 23:33:08*
%MOMM*%
%LPD*%
G01*
G04 APERTURE LIST*
G04 Aperture macros list*
%AMRotRect*
0 Rectangle, with rotation*
0 The origin of the aperture is its center*
0 $1 length*
0 $2 width*
0 $3 Rotation angle, in degrees counterclockwise*
0 Add horizontal line*
21,1,$1,$2,0,0,$3*%
G04 Aperture macros list end*
%TA.AperFunction,ComponentPad*%
%ADD10C,2.500000*%
%TD*%
%TA.AperFunction,SMDPad,CuDef*%
%ADD11R,0.900000X1.200000*%
%TD*%
%TA.AperFunction,ComponentPad*%
%ADD12C,1.905000*%
%TD*%
%TA.AperFunction,ComponentPad*%
%ADD13R,1.778000X1.778000*%
%TD*%
%TA.AperFunction,SMDPad,CuDef*%
%ADD14RotRect,0.900000X1.200000X175.000000*%
%TD*%
%TA.AperFunction,ComponentPad*%
%ADD15RotRect,1.778000X1.778000X175.000000*%
%TD*%
%TA.AperFunction,SMDPad,CuDef*%
%ADD16RotRect,0.900000X1.200000X165.000000*%
%TD*%
%TA.AperFunction,ComponentPad*%
%ADD17RotRect,1.778000X1.778000X165.000000*%
%TD*%
%TA.AperFunction,SMDPad,CuDef*%
%ADD18RotRect,0.900000X1.200000X240.000000*%
%TD*%
%TA.AperFunction,ComponentPad*%
%ADD19RotRect,1.778000X1.778000X240.000000*%
%TD*%
%TA.AperFunction,SMDPad,CuDef*%
%ADD20RotRect,0.900000X1.200000X185.000000*%
%TD*%
%TA.AperFunction,ComponentPad*%
%ADD21RotRect,1.778000X1.778000X185.000000*%
%TD*%
%TA.AperFunction,SMDPad,CuDef*%
%ADD22RotRect,0.900000X1.200000X195.000000*%
%TD*%
%TA.AperFunction,ComponentPad*%
%ADD23RotRect,1.778000X1.778000X195.000000*%
%TD*%
%TA.AperFunction,SMDPad,CuDef*%
%ADD24RotRect,0.900000X1.200000X120.000000*%
%TD*%
%TA.AperFunction,ComponentPad*%
%ADD25RotRect,1.778000X1.778000X120.000000*%
%TD*%
%TA.AperFunction,ComponentPad*%
%ADD26R,1.752600X1.752600*%
%TD*%
%TA.AperFunction,ComponentPad*%
%ADD27C,1.752600*%
%TD*%
%TA.AperFunction,ComponentPad*%
%ADD28O,2.200000X1.600000*%
%TD*%
%TA.AperFunction,ComponentPad*%
%ADD29O,1.700000X1.700000*%
%TD*%
%TA.AperFunction,ComponentPad*%
%ADD30R,1.700000X1.700000*%
%TD*%
%TA.AperFunction,ComponentPad*%
%ADD31C,4.400000*%
%TD*%
%TA.AperFunction,ViaPad*%
%ADD32C,0.800000*%
%TD*%
%TA.AperFunction,Conductor*%
%ADD33C,0.250000*%
%TD*%
G04 APERTURE END LIST*
D10*
%TO.P,S1,1*%
%TO.N,pinky_bottom*%
X5000000Y3800000D03*
%TO.P,S1,2*%
%TO.N,B4*%
X0Y5900000D03*
%TD*%
D11*
%TO.P,D1,2*%
%TO.N,pinky_bottom*%
X1650000Y-4500000D03*
%TO.P,D1,1*%
%TO.N,B2*%
X-1650000Y-4500000D03*
D12*
%TO.N,pinky_bottom*%
X3810000Y-4500000D03*
D13*
%TO.P,D1,2*%
%TO.N,B2*%
X-3810000Y-4500000D03*
%TD*%
D10*
%TO.P,S2,1*%
%TO.N,pinky_home*%
X5000000Y20800000D03*
%TO.P,S2,2*%
%TO.N,B4*%
X0Y22900000D03*
%TD*%
D11*
%TO.P,D2,2*%
%TO.N,pinky_home*%
X1650000Y12500000D03*
%TO.P,D2,1*%
%TO.N,B3*%
X-1650000Y12500000D03*
D12*
%TO.N,pinky_home*%
X3810000Y12500000D03*
D13*
%TO.P,D2,2*%
%TO.N,B3*%
X-3810000Y12500000D03*
%TD*%
D10*
%TO.P,S3,1*%
%TO.N,pinky_top*%
X5000000Y37800000D03*
%TO.P,S3,2*%
%TO.N,B4*%
X0Y39900000D03*
%TD*%
D11*
%TO.P,D3,2*%
%TO.N,pinky_top*%
X1650000Y29500000D03*
%TO.P,D3,1*%
%TO.N,B1*%
X-1650000Y29500000D03*
D12*
%TO.N,pinky_top*%
X3810000Y29500000D03*
D13*
%TO.P,D3,2*%
%TO.N,B1*%
X-3810000Y29500000D03*
%TD*%
D10*
%TO.P,S4,1*%
%TO.N,ring_bottom*%
X24000000Y16550000D03*
%TO.P,S4,2*%
%TO.N,E6*%
X19000000Y18650000D03*
%TD*%
D11*
%TO.P,D4,2*%
%TO.N,ring_bottom*%
X20650000Y8250000D03*
%TO.P,D4,1*%
%TO.N,B2*%
X17350000Y8250000D03*
D12*
%TO.N,ring_bottom*%
X22810000Y8250000D03*
D13*
%TO.P,D4,2*%
%TO.N,B2*%
X15190000Y8250000D03*
%TD*%
D10*
%TO.P,S5,1*%
%TO.N,ring_home*%
X24000000Y33550000D03*
%TO.P,S5,2*%
%TO.N,E6*%
X19000000Y35650000D03*
%TD*%
D11*
%TO.P,D5,2*%
%TO.N,ring_home*%
X20650000Y25250000D03*
%TO.P,D5,1*%
%TO.N,B3*%
X17350000Y25250000D03*
D12*
%TO.N,ring_home*%
X22810000Y25250000D03*
D13*
%TO.P,D5,2*%
%TO.N,B3*%
X15190000Y25250000D03*
%TD*%
D10*
%TO.P,S6,1*%
%TO.N,ring_top*%
X24000000Y50550000D03*
%TO.P,S6,2*%
%TO.N,E6*%
X19000000Y52650000D03*
%TD*%
D11*
%TO.P,D6,2*%
%TO.N,ring_top*%
X20650000Y42250000D03*
%TO.P,D6,1*%
%TO.N,B1*%
X17350000Y42250000D03*
D12*
%TO.N,ring_top*%
X22810000Y42250000D03*
D13*
%TO.P,D6,2*%
%TO.N,B1*%
X15190000Y42250000D03*
%TD*%
D10*
%TO.P,S7,1*%
%TO.N,middle_bottom*%
X43000000Y25050000D03*
%TO.P,S7,2*%
%TO.N,D4*%
X38000000Y27150000D03*
%TD*%
D11*
%TO.P,D7,2*%
%TO.N,middle_bottom*%
X39650000Y16750000D03*
%TO.P,D7,1*%
%TO.N,B2*%
X36350000Y16750000D03*
D12*
%TO.N,middle_bottom*%
X41810000Y16750000D03*
D13*
%TO.P,D7,2*%
%TO.N,B2*%
X34190000Y16750000D03*
%TD*%
D10*
%TO.P,S8,1*%
%TO.N,middle_home*%
X43000000Y42050000D03*
%TO.P,S8,2*%
%TO.N,D4*%
X38000000Y44150000D03*
%TD*%
D11*
%TO.P,D8,2*%
%TO.N,middle_home*%
X39650000Y33750000D03*
%TO.P,D8,1*%
%TO.N,B3*%
X36350000Y33750000D03*
D12*
%TO.N,middle_home*%
X41810000Y33750000D03*
D13*
%TO.P,D8,2*%
%TO.N,B3*%
X34190000Y33750000D03*
%TD*%
D10*
%TO.P,S9,1*%
%TO.N,middle_top*%
X43000000Y59050000D03*
%TO.P,S9,2*%
%TO.N,D4*%
X38000000Y61150000D03*
%TD*%
D11*
%TO.P,D9,2*%
%TO.N,middle_top*%
X39650000Y50750000D03*
%TO.P,D9,1*%
%TO.N,B1*%
X36350000Y50750000D03*
D12*
%TO.N,middle_top*%
X41810000Y50750000D03*
D13*
%TO.P,D9,2*%
%TO.N,B1*%
X34190000Y50750000D03*
%TD*%
D10*
%TO.P,S10,1*%
%TO.N,index_bottom*%
X62000000Y20800000D03*
%TO.P,S10,2*%
%TO.N,C6*%
X57000000Y22900000D03*
%TD*%
D11*
%TO.P,D10,2*%
%TO.N,index_bottom*%
X58650000Y12500000D03*
%TO.P,D10,1*%
%TO.N,B2*%
X55350000Y12500000D03*
D12*
%TO.N,index_bottom*%
X60810000Y12500000D03*
D13*
%TO.P,D10,2*%
%TO.N,B2*%
X53190000Y12500000D03*
%TD*%
D10*
%TO.P,S11,1*%
%TO.N,index_home*%
X62000000Y37800000D03*
%TO.P,S11,2*%
%TO.N,C6*%
X57000000Y39900000D03*
%TD*%
D11*
%TO.P,D11,2*%
%TO.N,index_home*%
X58650000Y29500000D03*
%TO.P,D11,1*%
%TO.N,B3*%
X55350000Y29500000D03*
D12*
%TO.N,index_home*%
X60810000Y29500000D03*
D13*
%TO.P,D11,2*%
%TO.N,B3*%
X53190000Y29500000D03*
%TD*%
D10*
%TO.P,S12,1*%
%TO.N,index_top*%
X62000000Y54800000D03*
%TO.P,S12,2*%
%TO.N,C6*%
X57000000Y56900000D03*
%TD*%
D11*
%TO.P,D12,2*%
%TO.N,index_top*%
X58650000Y46500000D03*
%TO.P,D12,1*%
%TO.N,B1*%
X55350000Y46500000D03*
D12*
%TO.N,index_top*%
X60810000Y46500000D03*
D13*
%TO.P,D12,2*%
%TO.N,B1*%
X53190000Y46500000D03*
%TD*%
D10*
%TO.P,S13,1*%
%TO.N,inner_bottom*%
X81000000Y16550000D03*
%TO.P,S13,2*%
%TO.N,D7*%
X76000000Y18650000D03*
%TD*%
D11*
%TO.P,D13,2*%
%TO.N,inner_bottom*%
X77650000Y8250000D03*
%TO.P,D13,1*%
%TO.N,B2*%
X74350000Y8250000D03*
D12*
%TO.N,inner_bottom*%
X79810000Y8250000D03*
D13*
%TO.P,D13,2*%
%TO.N,B2*%
X72190000Y8250000D03*
%TD*%
D10*
%TO.P,S14,1*%
%TO.N,inner_home*%
X81000000Y33550000D03*
%TO.P,S14,2*%
%TO.N,D7*%
X76000000Y35650000D03*
%TD*%
D11*
%TO.P,D14,2*%
%TO.N,inner_home*%
X77650000Y25250000D03*
%TO.P,D14,1*%
%TO.N,B3*%
X74350000Y25250000D03*
D12*
%TO.N,inner_home*%
X79810000Y25250000D03*
D13*
%TO.P,D14,2*%
%TO.N,B3*%
X72190000Y25250000D03*
%TD*%
D10*
%TO.P,S15,1*%
%TO.N,inner_top*%
X81000000Y50550000D03*
%TO.P,S15,2*%
%TO.N,D7*%
X76000000Y52650000D03*
%TD*%
D11*
%TO.P,D15,2*%
%TO.N,inner_top*%
X77650000Y42250000D03*
%TO.P,D15,1*%
%TO.N,B1*%
X74350000Y42250000D03*
D12*
%TO.N,inner_top*%
X79810000Y42250000D03*
D13*
%TO.P,D15,2*%
%TO.N,B1*%
X72190000Y42250000D03*
%TD*%
D10*
%TO.P,S16,1*%
%TO.N,outer_thumbs*%
X51687835Y-14849761D03*
%TO.P,S16,2*%
%TO.N,D4*%
X56485781Y-17377549D03*
%TD*%
D14*
%TO.P,D16,2*%
%TO.N,outer_thumbs*%
X55748480Y-6873317D03*
%TO.P,D16,1*%
%TO.N,B6*%
X59035922Y-7160931D03*
D12*
%TO.N,outer_thumbs*%
X53596699Y-6685061D03*
D15*
%TO.P,D16,2*%
%TO.N,B6*%
X61187703Y-7349187D03*
%TD*%
D10*
%TO.P,S17,1*%
%TO.N,middle_thumbs*%
X73088606Y-17738292D03*
%TO.P,S17,2*%
%TO.N,C6*%
X77374716Y-21060831D03*
%TD*%
D16*
%TO.P,D17,2*%
%TO.N,middle_thumbs*%
X78472656Y-10588152D03*
%TO.P,D17,1*%
%TO.N,B6*%
X81660212Y-11442254D03*
D12*
%TO.N,middle_thumbs*%
X76386257Y-10029102D03*
D17*
%TO.P,D17,2*%
%TO.N,B6*%
X83746611Y-12001304D03*
%TD*%
D10*
%TO.P,S18,1*%
%TO.N,inner_thumbs*%
X101794727Y-25237037D03*
%TO.P,S18,2*%
%TO.N,D7*%
X106113380Y-21956910D03*
%TD*%
D18*
%TO.P,D18,2*%
%TO.N,inner_thumbs*%
X96281715Y-18185852D03*
%TO.P,D18,1*%
%TO.N,B6*%
X97931715Y-15327968D03*
D12*
%TO.N,inner_thumbs*%
X95201715Y-20056467D03*
D19*
%TO.P,D18,2*%
%TO.N,B6*%
X99011715Y-13457353D03*
%TD*%
D10*
%TO.P,S19,1*%
%TO.N,mirror_pinky_bottom*%
X-14550000Y3800000D03*
%TO.P,S19,2*%
%TO.N,B2*%
X-19550000Y5900000D03*
%TD*%
D11*
%TO.P,D19,2*%
%TO.N,mirror_pinky_bottom*%
X-17900000Y-4500000D03*
%TO.P,D19,1*%
%TO.N,B4*%
X-21200000Y-4500000D03*
D12*
%TO.N,mirror_pinky_bottom*%
X-15740000Y-4500000D03*
D13*
%TO.P,D19,2*%
%TO.N,B4*%
X-23360000Y-4500000D03*
%TD*%
D10*
%TO.P,S20,1*%
%TO.N,mirror_pinky_home*%
X-14550000Y20800000D03*
%TO.P,S20,2*%
%TO.N,B2*%
X-19550000Y22900000D03*
%TD*%
D11*
%TO.P,D20,2*%
%TO.N,mirror_pinky_home*%
X-17900000Y12500000D03*
%TO.P,D20,1*%
%TO.N,E6*%
X-21200000Y12500000D03*
D12*
%TO.N,mirror_pinky_home*%
X-15740000Y12500000D03*
D13*
%TO.P,D20,2*%
%TO.N,E6*%
X-23360000Y12500000D03*
%TD*%
D10*
%TO.P,S21,1*%
%TO.N,mirror_pinky_top*%
X-14550000Y37800000D03*
%TO.P,S21,2*%
%TO.N,B2*%
X-19550000Y39900000D03*
%TD*%
D11*
%TO.P,D21,2*%
%TO.N,mirror_pinky_top*%
X-17900000Y29500000D03*
%TO.P,D21,1*%
%TO.N,D7*%
X-21200000Y29500000D03*
D12*
%TO.N,mirror_pinky_top*%
X-15740000Y29500000D03*
D13*
%TO.P,D21,2*%
%TO.N,D7*%
X-23360000Y29500000D03*
%TD*%
D10*
%TO.P,S22,2*%
%TO.N,B3*%
X-38550000Y18650000D03*
%TO.P,S22,1*%
%TO.N,mirror_ring_bottom*%
X-33550000Y16550000D03*
%TD*%
D11*
%TO.P,D22,2*%
%TO.N,mirror_ring_bottom*%
X-36900000Y8250000D03*
%TO.P,D22,1*%
%TO.N,B4*%
X-40200000Y8250000D03*
D12*
%TO.N,mirror_ring_bottom*%
X-34740000Y8250000D03*
D13*
%TO.P,D22,2*%
%TO.N,B4*%
X-42360000Y8250000D03*
%TD*%
D10*
%TO.P,S23,1*%
%TO.N,mirror_ring_home*%
X-33550000Y33550000D03*
%TO.P,S23,2*%
%TO.N,B3*%
X-38550000Y35650000D03*
%TD*%
D11*
%TO.P,D23,2*%
%TO.N,mirror_ring_home*%
X-36900000Y25250000D03*
%TO.P,D23,1*%
%TO.N,E6*%
X-40200000Y25250000D03*
D12*
%TO.N,mirror_ring_home*%
X-34740000Y25250000D03*
D13*
%TO.P,D23,2*%
%TO.N,E6*%
X-42360000Y25250000D03*
%TD*%
D10*
%TO.P,S24,1*%
%TO.N,mirror_ring_top*%
X-33550000Y50550000D03*
%TO.P,S24,2*%
%TO.N,B3*%
X-38550000Y52650000D03*
%TD*%
D11*
%TO.P,D24,2*%
%TO.N,mirror_ring_top*%
X-36900000Y42250000D03*
%TO.P,D24,1*%
%TO.N,D7*%
X-40200000Y42250000D03*
D12*
%TO.N,mirror_ring_top*%
X-34740000Y42250000D03*
D13*
%TO.P,D24,2*%
%TO.N,D7*%
X-42360000Y42250000D03*
%TD*%
D10*
%TO.P,S25,1*%
%TO.N,mirror_middle_bottom*%
X-52550000Y25050000D03*
%TO.P,S25,2*%
%TO.N,F6*%
X-57550000Y27150000D03*
%TD*%
D11*
%TO.P,D25,2*%
%TO.N,mirror_middle_bottom*%
X-55900000Y16750000D03*
%TO.P,D25,1*%
%TO.N,B4*%
X-59200000Y16750000D03*
D12*
%TO.N,mirror_middle_bottom*%
X-53740000Y16750000D03*
D13*
%TO.P,D25,2*%
%TO.N,B4*%
X-61360000Y16750000D03*
%TD*%
D10*
%TO.P,S26,1*%
%TO.N,mirror_middle_home*%
X-52550000Y42050000D03*
%TO.P,S26,2*%
%TO.N,F6*%
X-57550000Y44150000D03*
%TD*%
D11*
%TO.P,D26,2*%
%TO.N,mirror_middle_home*%
X-55900000Y33750000D03*
%TO.P,D26,1*%
%TO.N,E6*%
X-59200000Y33750000D03*
D12*
%TO.N,mirror_middle_home*%
X-53740000Y33750000D03*
D13*
%TO.P,D26,2*%
%TO.N,E6*%
X-61360000Y33750000D03*
%TD*%
D10*
%TO.P,S27,1*%
%TO.N,mirror_middle_top*%
X-52550000Y59050000D03*
%TO.P,S27,2*%
%TO.N,F6*%
X-57550000Y61150000D03*
%TD*%
D11*
%TO.P,D27,2*%
%TO.N,mirror_middle_top*%
X-55900000Y50750000D03*
%TO.P,D27,1*%
%TO.N,D7*%
X-59200000Y50750000D03*
D12*
%TO.N,mirror_middle_top*%
X-53740000Y50750000D03*
D13*
%TO.P,D27,2*%
%TO.N,D7*%
X-61360000Y50750000D03*
%TD*%
D10*
%TO.P,S28,1*%
%TO.N,mirror_index_bottom*%
X-71550000Y20800000D03*
%TO.P,S28,2*%
%TO.N,F7*%
X-76550000Y22900000D03*
%TD*%
D11*
%TO.P,D28,2*%
%TO.N,mirror_index_bottom*%
X-74900000Y12500000D03*
%TO.P,D28,1*%
%TO.N,B4*%
X-78200000Y12500000D03*
D12*
%TO.N,mirror_index_bottom*%
X-72740000Y12500000D03*
D13*
%TO.P,D28,2*%
%TO.N,B4*%
X-80360000Y12500000D03*
%TD*%
D10*
%TO.P,S29,1*%
%TO.N,mirror_index_home*%
X-71550000Y37800000D03*
%TO.P,S29,2*%
%TO.N,F7*%
X-76550000Y39900000D03*
%TD*%
D11*
%TO.P,D29,2*%
%TO.N,mirror_index_home*%
X-74900000Y29500000D03*
%TO.P,D29,1*%
%TO.N,E6*%
X-78200000Y29500000D03*
D12*
%TO.N,mirror_index_home*%
X-72740000Y29500000D03*
D13*
%TO.P,D29,2*%
%TO.N,E6*%
X-80360000Y29500000D03*
%TD*%
D10*
%TO.P,S30,1*%
%TO.N,mirror_index_top*%
X-71550000Y54800000D03*
%TO.P,S30,2*%
%TO.N,F7*%
X-76550000Y56900000D03*
%TD*%
D11*
%TO.P,D30,2*%
%TO.N,mirror_index_top*%
X-74900000Y46500000D03*
%TO.P,D30,1*%
%TO.N,D7*%
X-78200000Y46500000D03*
D12*
%TO.N,mirror_index_top*%
X-72740000Y46500000D03*
D13*
%TO.P,D30,2*%
%TO.N,D7*%
X-80360000Y46500000D03*
%TD*%
D10*
%TO.P,S31,1*%
%TO.N,mirror_inner_bottom*%
X-90550000Y16550000D03*
%TO.P,S31,2*%
%TO.N,B1*%
X-95550000Y18650000D03*
%TD*%
D11*
%TO.P,D31,2*%
%TO.N,mirror_inner_bottom*%
X-93900000Y8250000D03*
%TO.P,D31,1*%
%TO.N,B4*%
X-97200000Y8250000D03*
D12*
%TO.N,mirror_inner_bottom*%
X-91740000Y8250000D03*
D13*
%TO.P,D31,2*%
%TO.N,B4*%
X-99360000Y8250000D03*
%TD*%
D10*
%TO.P,S32,1*%
%TO.N,mirror_inner_home*%
X-90550000Y33550000D03*
%TO.P,S32,2*%
%TO.N,B1*%
X-95550000Y35650000D03*
%TD*%
D11*
%TO.P,D32,2*%
%TO.N,mirror_inner_home*%
X-93900000Y25250000D03*
%TO.P,D32,1*%
%TO.N,E6*%
X-97200000Y25250000D03*
D12*
%TO.N,mirror_inner_home*%
X-91740000Y25250000D03*
D13*
%TO.P,D32,2*%
%TO.N,E6*%
X-99360000Y25250000D03*
%TD*%
D10*
%TO.P,S33,1*%
%TO.N,mirror_inner_top*%
X-90550000Y50550000D03*
%TO.P,S33,2*%
%TO.N,B1*%
X-95550000Y52650000D03*
%TD*%
D11*
%TO.P,D33,2*%
%TO.N,mirror_inner_top*%
X-93900000Y42250000D03*
%TO.P,D33,1*%
%TO.N,D7*%
X-97200000Y42250000D03*
D12*
%TO.N,mirror_inner_top*%
X-91740000Y42250000D03*
D13*
%TO.P,D33,2*%
%TO.N,D7*%
X-99360000Y42250000D03*
%TD*%
D10*
%TO.P,S34,1*%
%TO.N,mirror_outer_thumbs*%
X-81199782Y-15721319D03*
%TO.P,S34,2*%
%TO.N,F6*%
X-76035781Y-17377549D03*
%TD*%
D20*
%TO.P,D34,2*%
%TO.N,mirror_outer_thumbs*%
X-78585922Y-7160931D03*
%TO.P,D34,1*%
%TO.N,B5*%
X-75298480Y-6873317D03*
D12*
%TO.N,mirror_outer_thumbs*%
X-80737703Y-7349187D03*
D21*
%TO.P,D34,2*%
%TO.N,B5*%
X-73146699Y-6685061D03*
%TD*%
D10*
%TO.P,S35,1*%
%TO.N,mirror_middle_thumbs*%
X-102297865Y-20326482D03*
%TO.P,S35,2*%
%TO.N,F7*%
X-96924716Y-21060831D03*
%TD*%
D22*
%TO.P,D35,2*%
%TO.N,mirror_middle_thumbs*%
X-101210212Y-11442254D03*
%TO.P,D35,1*%
%TO.N,B5*%
X-98022656Y-10588152D03*
D12*
%TO.N,mirror_middle_thumbs*%
X-103296611Y-12001304D03*
D23*
%TO.P,D35,2*%
%TO.N,B5*%
X-95936257Y-10029102D03*
%TD*%
D10*
%TO.P,S36,1*%
%TO.N,mirror_inner_thumbs*%
X-126344726Y-16576783D03*
%TO.P,S36,2*%
%TO.N,B1*%
X-125663379Y-21956910D03*
%TD*%
D24*
%TO.P,D36,2*%
%TO.N,mirror_inner_thumbs*%
X-117481715Y-15327968D03*
%TO.P,D36,1*%
%TO.N,B5*%
X-115831715Y-18185852D03*
D12*
%TO.N,mirror_inner_thumbs*%
X-118561715Y-13457353D03*
D25*
%TO.P,D36,2*%
%TO.N,B5*%
X-114751715Y-20056467D03*
%TD*%
D26*
%TO.P,MCU1,1*%
%TO.N,RAW*%
X102120000Y47720000D03*
D27*
%TO.P,MCU1,2*%
%TO.N,GND*%
X102120000Y45180000D03*
%TO.P,MCU1,3*%
%TO.N,RST*%
X102120000Y42640000D03*
%TO.P,MCU1,4*%
%TO.N,VCC*%
X102120000Y40100000D03*
%TO.P,MCU1,5*%
%TO.N,F4*%
X102120000Y37560000D03*
%TO.P,MCU1,6*%
%TO.N,F5*%
X102120000Y35020000D03*
%TO.P,MCU1,7*%
%TO.N,F6*%
X102120000Y32480000D03*
%TO.P,MCU1,8*%
%TO.N,F7*%
X102120000Y29940000D03*
%TO.P,MCU1,9*%
%TO.N,B1*%
X102120000Y27400000D03*
%TO.P,MCU1,10*%
%TO.N,B3*%
X102120000Y24860000D03*
%TO.P,MCU1,11*%
%TO.N,B2*%
X102120000Y22320000D03*
%TO.P,MCU1,12*%
%TO.N,B6*%
X102120000Y19780000D03*
%TO.P,MCU1,13*%
%TO.N,D3*%
X86880000Y47720000D03*
%TO.P,MCU1,14*%
%TO.N,D2*%
X86880000Y45180000D03*
%TO.P,MCU1,15*%
%TO.N,GND*%
X86880000Y42640000D03*
%TO.P,MCU1,16*%
X86880000Y40100000D03*
%TO.P,MCU1,17*%
%TO.N,D1*%
X86880000Y37560000D03*
%TO.P,MCU1,18*%
%TO.N,D0*%
X86880000Y35020000D03*
%TO.P,MCU1,19*%
%TO.N,D4*%
X86880000Y32480000D03*
%TO.P,MCU1,20*%
%TO.N,C6*%
X86880000Y29940000D03*
%TO.P,MCU1,21*%
%TO.N,D7*%
X86880000Y27400000D03*
%TO.P,MCU1,22*%
%TO.N,E6*%
X86880000Y24860000D03*
%TO.P,MCU1,23*%
%TO.N,B4*%
X86880000Y22320000D03*
%TO.P,MCU1,24*%
%TO.N,B5*%
X86880000Y19780000D03*
%TD*%
D26*
%TO.P,MCU2,1*%
%TO.N,RAW*%
X-106430000Y47720000D03*
D27*
%TO.P,MCU2,2*%
%TO.N,GND*%
X-106430000Y45180000D03*
%TO.P,MCU2,3*%
%TO.N,RST*%
X-106430000Y42640000D03*
%TO.P,MCU2,4*%
%TO.N,VCC*%
X-106430000Y40100000D03*
%TO.P,MCU2,5*%
%TO.N,F4*%
X-106430000Y37560000D03*
%TO.P,MCU2,6*%
%TO.N,F5*%
X-106430000Y35020000D03*
%TO.P,MCU2,7*%
%TO.N,F6*%
X-106430000Y32480000D03*
%TO.P,MCU2,8*%
%TO.N,F7*%
X-106430000Y29940000D03*
%TO.P,MCU2,9*%
%TO.N,B1*%
X-106430000Y27400000D03*
%TO.P,MCU2,10*%
%TO.N,B3*%
X-106430000Y24860000D03*
%TO.P,MCU2,11*%
%TO.N,B2*%
X-106430000Y22320000D03*
%TO.P,MCU2,12*%
%TO.N,B6*%
X-106430000Y19780000D03*
%TO.P,MCU2,13*%
%TO.N,D3*%
X-121670000Y47720000D03*
%TO.P,MCU2,14*%
%TO.N,D2*%
X-121670000Y45180000D03*
%TO.P,MCU2,15*%
%TO.N,GND*%
X-121670000Y42640000D03*
%TO.P,MCU2,16*%
X-121670000Y40100000D03*
%TO.P,MCU2,17*%
%TO.N,D1*%
X-121670000Y37560000D03*
%TO.P,MCU2,18*%
%TO.N,D0*%
X-121670000Y35020000D03*
%TO.P,MCU2,19*%
%TO.N,D4*%
X-121670000Y32480000D03*
%TO.P,MCU2,20*%
%TO.N,C6*%
X-121670000Y29940000D03*
%TO.P,MCU2,21*%
%TO.N,D7*%
X-121670000Y27400000D03*
%TO.P,MCU2,22*%
%TO.N,E6*%
X-121670000Y24860000D03*
%TO.P,MCU2,23*%
%TO.N,B4*%
X-121670000Y22320000D03*
%TO.P,MCU2,24*%
%TO.N,B5*%
X-121670000Y19780000D03*
%TD*%
D28*
%TO.P,REF\u002A\u002A,1*%
%TO.N,GND*%
X90700000Y13850000D03*
%TO.P,REF\u002A\u002A,2*%
X91800000Y9250000D03*
%TO.P,REF\u002A\u002A,3*%
%TO.N,D2*%
X95800000Y9250000D03*
%TO.P,REF\u002A\u002A,4*%
%TO.N,VCC*%
X98800000Y9250000D03*
%TD*%
%TO.P,REF\u002A\u002A,1*%
%TO.N,GND*%
X-110250000Y9150000D03*
%TO.P,REF\u002A\u002A,2*%
X-111350000Y13750000D03*
%TO.P,REF\u002A\u002A,3*%
%TO.N,D2*%
X-115350000Y13750000D03*
%TO.P,REF\u002A\u002A,4*%
%TO.N,VCC*%
X-118350000Y13750000D03*
%TD*%
D29*
%TO.P,OLED1,4*%
%TO.N,D1*%
X90680000Y16850000D03*
%TO.P,OLED1,3*%
%TO.N,D0*%
X93220000Y16850000D03*
%TO.P,OLED1,2*%
%TO.N,VCC*%
X95760000Y16850000D03*
D30*
%TO.P,OLED1,1*%
%TO.N,GND*%
X98300000Y16850000D03*
%TD*%
D29*
%TO.P,OLED2,4*%
%TO.N,D1*%
X-117870000Y16850000D03*
%TO.P,OLED2,3*%
%TO.N,D0*%
X-115330000Y16850000D03*
%TO.P,OLED2,2*%
%TO.N,VCC*%
X-112790000Y16850000D03*
D30*
%TO.P,OLED2,1*%
%TO.N,GND*%
X-110250000Y16850000D03*
%TD*%
D31*
%TO.P,,1*%
%TO.N,N/C*%
X47500000Y45800000D03*
X47500000Y7700000D03*
X28450000Y26750000D03*
X66550000Y26750000D03*
%TD*%
%TO.P,,1*%
%TO.N,N/C*%
X-67050000Y45800000D03*
X-67050000Y7700000D03*
X-86100000Y26750000D03*
X-48000000Y26750000D03*
%TD*%
D32*
%TO.N,GND*%
X100600000Y36300000D03*
%TO.N,D0*%
X89024500Y33700000D03*
%TO.N,E6*%
X81100000Y22875500D03*
%TO.N,GND*%
X-108000000Y43900000D03*
X-108000000Y36300000D03*
%TO.N,D1*%
X-119900000Y31200000D03*
%TO.N,B2*%
X-101900000Y21175500D03*
%TO.N,B3*%
X-100900000Y21900000D03*
%TD*%
D33*
%TO.N,GND*%
X-106720000Y45180000D02*
X-106430000Y45180000D01*
X-108000000Y43900000D02*
X-106720000Y45180000D01*
%TO.N,D2*%
X-114100000Y37610000D02*
X-121670000Y45180000D01*
X-114100000Y15000000D02*
X-114100000Y37610000D01*
X-115350000Y13750000D02*
X-114100000Y15000000D01*
X94500000Y37560000D02*
X86880000Y45180000D01*
X94500000Y12359686D02*
X94500000Y37560000D01*
X95800000Y11059686D02*
X94500000Y12359686D01*
X95800000Y9250000D02*
X95800000Y11059686D01*
%TO.N,VCC*%
X98800000Y9250000D02*
X95760000Y12290000D01*
X95760000Y12290000D02*
X95760000Y16850000D01*
%TO.N,F7*%
X-78700000Y14700000D02*
X-78700000Y20750000D01*
X-76500000Y12500000D02*
X-78700000Y14700000D01*
X-96924716Y-21060831D02*
X-76500000Y-636115D01*
X-78700000Y20750000D02*
X-76550000Y22900000D01*
X-76500000Y-636115D02*
X-76500000Y12500000D01*
%TO.N,D7*%
X76000000Y8300000D02*
X73910979Y10389021D01*
X76000000Y4000000D02*
X76000000Y8300000D01*
X73910979Y10389021D02*
X73910979Y16560979D01*
X98914809Y-18914809D02*
X76000000Y4000000D01*
X98914809Y-19872212D02*
X98914809Y-18914809D01*
X73910979Y16560979D02*
X76000000Y18650000D01*
X100999507Y-21956910D02*
X98914809Y-19872212D01*
X106113380Y-21956910D02*
X100999507Y-21956910D01*
%TO.N,C6*%
X54900000Y20800000D02*
X57000000Y22900000D01*
X54900000Y14550978D02*
X54900000Y20800000D01*
X80000000Y-11600000D02*
X80000000Y-10549022D01*
X80990769Y-12590769D02*
X80000000Y-11600000D01*
X80000000Y-10549022D02*
X54900000Y14550978D01*
X80990769Y-17444778D02*
X80990769Y-12590769D01*
X77374716Y-21060831D02*
X80990769Y-17444778D01*
%TO.N,D4*%
X35900000Y25050000D02*
X38000000Y27150000D01*
X35900000Y20395677D02*
X35900000Y25050000D01*
X37200000Y19095677D02*
X35900000Y20395677D01*
X37200000Y14400000D02*
X37200000Y19095677D01*
X59089021Y-9189021D02*
X57500000Y-7600000D01*
X59089021Y-14774309D02*
X59089021Y-9189021D01*
X57500000Y-7600000D02*
X57500000Y-5900000D01*
X56485781Y-17377549D02*
X59089021Y-14774309D01*
X57500000Y-5900000D02*
X37200000Y14400000D01*
%TO.N,E6*%
X83084500Y24860000D02*
X86880000Y24860000D01*
X81100000Y22875500D02*
X83084500Y24860000D01*
%TO.N,D0*%
X89024500Y21045500D02*
X93220000Y16850000D01*
X89024500Y33700000D02*
X89024500Y21045500D01*
%TO.N,D1*%
X-119900000Y18800000D02*
X-117950000Y16850000D01*
X-117950000Y16850000D02*
X-117870000Y16850000D01*
X-119900000Y31200000D02*
X-119900000Y18800000D01*
%TO.N,GND*%
X-108000000Y19100000D02*
X-110250000Y16850000D01*
X-108000000Y36300000D02*
X-108000000Y19100000D01*
%TO.N,D1*%
X88300000Y36140000D02*
X86880000Y37560000D01*
X88300000Y19230000D02*
X88300000Y36140000D01*
X90680000Y16850000D02*
X88300000Y19230000D01*
%TO.N,VCC*%
X99800000Y37780000D02*
X102120000Y40100000D01*
X99800000Y20890000D02*
X99800000Y37780000D01*
X95760000Y16850000D02*
X99800000Y20890000D01*
%TO.N,GND*%
X100600000Y36300000D02*
X100600000Y19150000D01*
X100600000Y19150000D02*
X98300000Y16850000D01*
%TO.N,B1*%
X-97825489Y27400000D02*
X-106430000Y27400000D01*
X-97639021Y27213532D02*
X-95550000Y25124511D01*
X-95550000Y25124511D02*
X-95550000Y18650000D01*
X-97639021Y27213532D02*
X-97825489Y27400000D01*
%TO.N,B2*%
X-103400000Y21200000D02*
X-104520000Y22320000D01*
X-104520000Y22320000D02*
X-106430000Y22320000D01*
X-101924500Y21200000D02*
X-103400000Y21200000D01*
X-101900000Y21175500D02*
X-101924500Y21200000D01*
%TO.N,B3*%
X-106360000Y24860000D02*
X-106430000Y24860000D01*
X-103400000Y21900000D02*
X-106360000Y24860000D01*
X-100900000Y21900000D02*
X-103400000Y21900000D01*
%TO.N,B1*%
X-97800000Y27374511D02*
X-97639021Y27213532D01*
X-97800000Y33400000D02*
X-97800000Y27374511D01*
X-95550000Y35650000D02*
X-97800000Y33400000D01*
%TO.N,VCC*%
X-108724511Y37805489D02*
X-106430000Y40100000D01*
X-108724511Y20915489D02*
X-108724511Y37805489D01*
X-112790000Y16850000D02*
X-108724511Y20915489D01*
%TO.N,D0*%
X-119175489Y32525489D02*
X-121670000Y35020000D01*
X-119175489Y20695489D02*
X-119175489Y32525489D01*
X-115330000Y16850000D02*
X-119175489Y20695489D01*
%TO.N,F6*%
X-59639021Y18939021D02*
X-59639021Y25060979D01*
X-57600000Y16900000D02*
X-59639021Y18939021D01*
X-57600000Y-709534D02*
X-57600000Y16900000D01*
X-59639021Y25060979D02*
X-57550000Y27150000D01*
X-74268015Y-17377549D02*
X-57600000Y-709534D01*
X-76035781Y-17377549D02*
X-74268015Y-17377549D01*
%TO.N,B1*%
X-97639021Y16560979D02*
X-95550000Y18650000D01*
X-95600000Y8300000D02*
X-97639021Y10339021D01*
X-116900850Y-16100850D02*
X-95600000Y5200000D01*
X-97639021Y10339021D02*
X-97639021Y16560979D01*
X-116900850Y-18308254D02*
X-116900850Y-16100850D01*
X-120549506Y-21956910D02*
X-116900850Y-18308254D01*
X-125663379Y-21956910D02*
X-120549506Y-21956910D01*
X-95600000Y5200000D02*
X-95600000Y8300000D01*
%TO.N,D7*%
X76000000Y25200000D02*
X76000000Y18650000D01*
X73910979Y27289021D02*
X76000000Y25200000D01*
X76000000Y35650000D02*
X73910979Y33560979D01*
X73910979Y33560979D02*
X73910979Y27289021D01*
X76000000Y42174511D02*
X76000000Y35650000D01*
X73910979Y44263532D02*
X76000000Y42174511D01*
X73910979Y50560979D02*
X73910979Y44263532D01*
X76000000Y52650000D02*
X73910979Y50560979D01*
%TO.N,C6*%
X54910979Y31489021D02*
X57000000Y29400000D01*
X54910979Y37810979D02*
X54910979Y31489021D01*
X57000000Y29400000D02*
X57000000Y22900000D01*
X57000000Y39900000D02*
X54910979Y37810979D01*
X57000000Y46400000D02*
X57000000Y39900000D01*
X54910979Y54810979D02*
X54910979Y48489021D01*
X54910979Y48489021D02*
X57000000Y46400000D01*
X57000000Y56900000D02*
X54910979Y54810979D01*
%TO.N,D4*%
X38000000Y33700000D02*
X38000000Y27150000D01*
X35910979Y35789021D02*
X38000000Y33700000D01*
X35910979Y42060979D02*
X35910979Y35789021D01*
X38000000Y44150000D02*
X35910979Y42060979D01*
X38000000Y50700000D02*
X38000000Y44150000D01*
X35910979Y52789021D02*
X38000000Y50700000D01*
X35910979Y59060979D02*
X35910979Y52789021D01*
X38000000Y61150000D02*
X35910979Y59060979D01*
%TO.N,E6*%
X19000000Y25200000D02*
X19000000Y18650000D01*
X16910979Y27289021D02*
X19000000Y25200000D01*
X19000000Y35650000D02*
X16910979Y33560979D01*
X16910979Y33560979D02*
X16910979Y27289021D01*
X19000000Y42299022D02*
X19000000Y35650000D01*
X16910979Y44388043D02*
X19000000Y42299022D01*
X16910979Y50560979D02*
X16910979Y44388043D01*
X19000000Y52650000D02*
X16910979Y50560979D01*
%TO.N,B4*%
X-2089021Y14489021D02*
X0Y12400000D01*
X0Y12400000D02*
X0Y5900000D01*
X-2089021Y20810979D02*
X-2089021Y14489021D01*
X0Y22900000D02*
X-2089021Y20810979D01*
X-2089021Y31638043D02*
X0Y29549022D01*
X0Y29549022D02*
X0Y22900000D01*
X0Y39900000D02*
X-2089021Y37810979D01*
X-2089021Y37810979D02*
X-2089021Y31638043D01*
%TO.N,B2*%
X-21639021Y14638043D02*
X-19550000Y12549022D01*
X-21639021Y20810979D02*
X-21639021Y14638043D01*
X-19550000Y22900000D02*
X-21639021Y20810979D01*
X-19550000Y12549022D02*
X-19550000Y5900000D01*
X-21639021Y31638043D02*
X-19550000Y29549022D01*
X-21639021Y37810979D02*
X-21639021Y31638043D01*
X-19550000Y29549022D02*
X-19550000Y22900000D01*
X-19550000Y39900000D02*
X-21639021Y37810979D01*
%TO.N,B3*%
X-40639021Y27388043D02*
X-38550000Y25299022D01*
X-40639021Y33560979D02*
X-40639021Y27388043D01*
X-38550000Y25299022D02*
X-38550000Y18650000D01*
X-38550000Y35650000D02*
X-40639021Y33560979D01*
X-38550000Y42150000D02*
X-38550000Y35650000D01*
X-40639021Y44239021D02*
X-38550000Y42150000D01*
X-40639021Y50560979D02*
X-40639021Y44239021D01*
X-38550000Y52650000D02*
X-40639021Y50560979D01*
%TO.N,F6*%
X-57550000Y33799022D02*
X-57550000Y27150000D01*
X-59639021Y35888043D02*
X-57550000Y33799022D01*
X-59639021Y42060979D02*
X-59639021Y35888043D01*
X-57550000Y44150000D02*
X-59639021Y42060979D01*
X-57550000Y50799022D02*
X-57550000Y44150000D01*
X-59639021Y52888043D02*
X-57550000Y50799022D01*
X-57550000Y61150000D02*
X-59639021Y59060979D01*
X-59639021Y59060979D02*
X-59639021Y52888043D01*
%TO.N,F7*%
X-76550000Y29549022D02*
X-76550000Y22900000D01*
X-78639021Y31638043D02*
X-76550000Y29549022D01*
X-78639021Y37810979D02*
X-78639021Y31638043D01*
X-76550000Y39900000D02*
X-78639021Y37810979D01*
X-76550000Y46450000D02*
X-76550000Y39900000D01*
X-78639021Y48539021D02*
X-76550000Y46450000D01*
X-78639021Y54810979D02*
X-78639021Y48539021D01*
X-76550000Y56900000D02*
X-78639021Y54810979D01*
%TO.N,B1*%
X-95550000Y42150000D02*
X-95550000Y35650000D01*
X-97639021Y50560979D02*
X-97639021Y44239021D01*
X-97639021Y44239021D02*
X-95550000Y42150000D01*
X-95550000Y52650000D02*
X-97639021Y50560979D01*
%TO.N,inner_thumbs*%
X96614157Y-20056467D02*
X95201715Y-20056467D01*
X101794727Y-25237037D02*
X96614157Y-20056467D01*
%TO.N,middle_thumbs*%
X76386257Y-14440641D02*
X76386257Y-10029102D01*
X73088606Y-17738292D02*
X76386257Y-14440641D01*
%TO.N,outer_thumbs*%
X53596699Y-12940897D02*
X53596699Y-6685061D01*
X51687835Y-14849761D02*
X53596699Y-12940897D01*
%TO.N,inner_bottom*%
X81000000Y16550000D02*
X79810000Y15360000D01*
X79810000Y15360000D02*
X79810000Y8250000D01*
%TO.N,index_bottom*%
X60810000Y19610000D02*
X60810000Y12500000D01*
X62000000Y20800000D02*
X60810000Y19610000D01*
%TO.N,middle_bottom*%
X43000000Y25050000D02*
X41810000Y23860000D01*
X41810000Y23860000D02*
X41810000Y16750000D01*
%TO.N,index_home*%
X62000000Y37800000D02*
X60810000Y36610000D01*
X60810000Y36610000D02*
X60810000Y29500000D01*
%TO.N,inner_home*%
X79810000Y32360000D02*
X79810000Y25250000D01*
X81000000Y33550000D02*
X79810000Y32360000D01*
%TO.N,inner_top*%
X81000000Y50550000D02*
X79810000Y49360000D01*
X79810000Y49360000D02*
X79810000Y42250000D01*
%TO.N,index_top*%
X62000000Y54800000D02*
X60810000Y53610000D01*
X60810000Y53610000D02*
X60810000Y46500000D01*
%TO.N,middle_home*%
X41810000Y40860000D02*
X41810000Y33750000D01*
X43000000Y42050000D02*
X41810000Y40860000D01*
%TO.N,inner_thumbs*%
X96281715Y-18976467D02*
X95201715Y-20056467D01*
X96281715Y-18185852D02*
X96281715Y-18976467D01*
%TO.N,B6*%
X99011715Y-14247968D02*
X97931715Y-15327968D01*
X99011715Y-13457353D02*
X99011715Y-14247968D01*
X82219262Y-12001304D02*
X81660212Y-11442254D01*
X83746611Y-12001304D02*
X82219262Y-12001304D01*
%TO.N,middle_thumbs*%
X76945307Y-10588152D02*
X76386257Y-10029102D01*
X78472656Y-10588152D02*
X76945307Y-10588152D01*
%TO.N,B6*%
X59224178Y-7349187D02*
X59035922Y-7160931D01*
X61187703Y-7349187D02*
X59224178Y-7349187D01*
%TO.N,outer_thumbs*%
X53784955Y-6873317D02*
X53596699Y-6685061D01*
X55748480Y-6873317D02*
X53784955Y-6873317D01*
%TO.N,inner_top*%
X77650000Y42250000D02*
X79810000Y42250000D01*
%TO.N,B1*%
X72190000Y42250000D02*
X74350000Y42250000D01*
%TO.N,B3*%
X74350000Y25250000D02*
X72190000Y25250000D01*
%TO.N,inner_home*%
X79810000Y25250000D02*
X77650000Y25250000D01*
%TO.N,inner_bottom*%
X77650000Y8250000D02*
X79810000Y8250000D01*
%TO.N,B2*%
X72190000Y8250000D02*
X74350000Y8250000D01*
X55350000Y12500000D02*
X53190000Y12500000D01*
%TO.N,index_bottom*%
X60810000Y12500000D02*
X58650000Y12500000D01*
%TO.N,index_home*%
X58650000Y29500000D02*
X60810000Y29500000D01*
%TO.N,B3*%
X53190000Y29500000D02*
X55350000Y29500000D01*
%TO.N,B1*%
X55350000Y46500000D02*
X53190000Y46500000D01*
%TO.N,index_top*%
X60810000Y46500000D02*
X58650000Y46500000D01*
%TO.N,middle_bottom*%
X39650000Y16750000D02*
X41810000Y16750000D01*
%TO.N,B2*%
X34190000Y16750000D02*
X36350000Y16750000D01*
%TO.N,B3*%
X36350000Y33750000D02*
X34190000Y33750000D01*
%TO.N,middle_home*%
X41810000Y33750000D02*
X39650000Y33750000D01*
%TO.N,middle_top*%
X39650000Y50750000D02*
X41810000Y50750000D01*
%TO.N,B1*%
X34190000Y50750000D02*
X36350000Y50750000D01*
X17350000Y42250000D02*
X15190000Y42250000D01*
%TO.N,ring_top*%
X20650000Y42250000D02*
X22810000Y42250000D01*
%TO.N,ring_home*%
X20650000Y25250000D02*
X22810000Y25250000D01*
%TO.N,B3*%
X17350000Y25250000D02*
X15190000Y25250000D01*
%TO.N,ring_bottom*%
X20650000Y8250000D02*
X22810000Y8250000D01*
%TO.N,B2*%
X15190000Y8250000D02*
X17350000Y8250000D01*
%TO.N,pinky_bottom*%
X1650000Y-4500000D02*
X3810000Y-4500000D01*
%TO.N,B2*%
X-3810000Y-4500000D02*
X-1650000Y-4500000D01*
%TO.N,B3*%
X-1650000Y12500000D02*
X-3810000Y12500000D01*
%TO.N,pinky_home*%
X3810000Y12500000D02*
X1650000Y12500000D01*
%TO.N,pinky_top*%
X1650000Y29500000D02*
X3810000Y29500000D01*
%TO.N,B1*%
X-3810000Y29500000D02*
X-1650000Y29500000D01*
%TO.N,middle_top*%
X41810000Y57860000D02*
X41810000Y50750000D01*
X43000000Y59050000D02*
X41810000Y57860000D01*
%TO.N,ring_top*%
X22810000Y49360000D02*
X22810000Y42250000D01*
X24000000Y50550000D02*
X22810000Y49360000D01*
%TO.N,ring_home*%
X22810000Y32360000D02*
X22810000Y25250000D01*
X24000000Y33550000D02*
X22810000Y32360000D01*
%TO.N,ring_bottom*%
X22810000Y15360000D02*
X22810000Y8250000D01*
X24000000Y16550000D02*
X22810000Y15360000D01*
%TO.N,pinky_bottom*%
X3810000Y2610000D02*
X3810000Y-4500000D01*
X5000000Y3800000D02*
X3810000Y2610000D01*
%TO.N,pinky_home*%
X5000000Y20800000D02*
X3810000Y19610000D01*
X3810000Y19610000D02*
X3810000Y12500000D01*
%TO.N,pinky_top*%
X3810000Y36610000D02*
X3810000Y29500000D01*
X5000000Y37800000D02*
X3810000Y36610000D01*
%TO.N,mirror_inner_thumbs*%
X-121681145Y-16576783D02*
X-118561715Y-13457353D01*
X-126344726Y-16576783D02*
X-121681145Y-16576783D01*
%TO.N,mirror_middle_thumbs*%
X-102297865Y-13000050D02*
X-103296611Y-12001304D01*
X-102297865Y-20326482D02*
X-102297865Y-13000050D01*
%TO.N,mirror_outer_thumbs*%
X-80737703Y-15259240D02*
X-80737703Y-7349187D01*
X-81199782Y-15721319D02*
X-80737703Y-15259240D01*
%TO.N,mirror_pinky_bottom*%
X-15740000Y2610000D02*
X-15740000Y-4500000D01*
X-14550000Y3800000D02*
X-15740000Y2610000D01*
%TO.N,mirror_pinky_home*%
X-15740000Y19610000D02*
X-15740000Y12500000D01*
X-14550000Y20800000D02*
X-15740000Y19610000D01*
%TO.N,mirror_pinky_top*%
X-15740000Y36610000D02*
X-15740000Y29500000D01*
X-14550000Y37800000D02*
X-15740000Y36610000D01*
%TO.N,mirror_ring_bottom*%
X-34740000Y15360000D02*
X-34740000Y8250000D01*
X-33550000Y16550000D02*
X-34740000Y15360000D01*
%TO.N,mirror_ring_home*%
X-34740000Y32360000D02*
X-34740000Y25250000D01*
X-33550000Y33550000D02*
X-34740000Y32360000D01*
%TO.N,mirror_ring_top*%
X-34740000Y49360000D02*
X-34740000Y42250000D01*
X-33550000Y50550000D02*
X-34740000Y49360000D01*
%TO.N,mirror_middle_top*%
X-53740000Y57860000D02*
X-53740000Y50750000D01*
X-52550000Y59050000D02*
X-53740000Y57860000D01*
%TO.N,mirror_middle_home*%
X-53740000Y40860000D02*
X-53740000Y33750000D01*
X-52550000Y42050000D02*
X-53740000Y40860000D01*
%TO.N,mirror_middle_bottom*%
X-53740000Y23860000D02*
X-53740000Y16750000D01*
X-52550000Y25050000D02*
X-53740000Y23860000D01*
%TO.N,mirror_index_bottom*%
X-72740000Y19610000D02*
X-72740000Y12500000D01*
X-71550000Y20800000D02*
X-72740000Y19610000D01*
%TO.N,mirror_index_home*%
X-72740000Y36610000D02*
X-72740000Y29500000D01*
X-71550000Y37800000D02*
X-72740000Y36610000D01*
%TO.N,mirror_index_top*%
X-72740000Y53610000D02*
X-72740000Y46500000D01*
X-71550000Y54800000D02*
X-72740000Y53610000D01*
%TO.N,mirror_inner_bottom*%
X-91740000Y15360000D02*
X-91740000Y8250000D01*
X-90550000Y16550000D02*
X-91740000Y15360000D01*
%TO.N,mirror_inner_home*%
X-91740000Y32360000D02*
X-91740000Y25250000D01*
X-90550000Y33550000D02*
X-91740000Y32360000D01*
%TO.N,mirror_inner_top*%
X-91740000Y49360000D02*
X-91740000Y42250000D01*
X-90550000Y50550000D02*
X-91740000Y49360000D01*
%TO.N,D7*%
X-21200000Y29500000D02*
X-23360000Y29500000D01*
%TO.N,mirror_pinky_top*%
X-15740000Y29500000D02*
X-17900000Y29500000D01*
%TO.N,E6*%
X-21200000Y12500000D02*
X-23360000Y12500000D01*
%TO.N,mirror_pinky_home*%
X-15740000Y12500000D02*
X-17900000Y12500000D01*
%TO.N,mirror_pinky_bottom*%
X-15740000Y-4500000D02*
X-17900000Y-4500000D01*
%TO.N,B4*%
X-23360000Y-4500000D02*
X-21200000Y-4500000D01*
%TO.N,mirror_ring_bottom*%
X-36900000Y8250000D02*
X-34740000Y8250000D01*
%TO.N,B4*%
X-42360000Y8250000D02*
X-40200000Y8250000D01*
%TO.N,E6*%
X-40200000Y25250000D02*
X-42360000Y25250000D01*
%TO.N,mirror_ring_home*%
X-34740000Y25250000D02*
X-36900000Y25250000D01*
%TO.N,mirror_ring_top*%
X-36900000Y42250000D02*
X-34740000Y42250000D01*
%TO.N,D7*%
X-42360000Y42250000D02*
X-40200000Y42250000D01*
%TO.N,mirror_middle_top*%
X-55900000Y50750000D02*
X-53740000Y50750000D01*
%TO.N,D7*%
X-61360000Y50750000D02*
X-59200000Y50750000D01*
%TO.N,E6*%
X-59200000Y33750000D02*
X-61360000Y33750000D01*
%TO.N,mirror_middle_home*%
X-53740000Y33750000D02*
X-55900000Y33750000D01*
%TO.N,mirror_middle_bottom*%
X-55900000Y16750000D02*
X-53740000Y16750000D01*
%TO.N,B4*%
X-61360000Y16750000D02*
X-59200000Y16750000D01*
%TO.N,mirror_index_bottom*%
X-74900000Y12500000D02*
X-72740000Y12500000D01*
%TO.N,B4*%
X-80360000Y12500000D02*
X-78200000Y12500000D01*
%TO.N,E6*%
X-78200000Y29500000D02*
X-80360000Y29500000D01*
%TO.N,mirror_index_home*%
X-72740000Y29500000D02*
X-74900000Y29500000D01*
%TO.N,mirror_index_top*%
X-74900000Y46500000D02*
X-72740000Y46500000D01*
%TO.N,D7*%
X-80360000Y46500000D02*
X-78200000Y46500000D01*
X-97200000Y42250000D02*
X-99360000Y42250000D01*
%TO.N,mirror_inner_top*%
X-91740000Y42250000D02*
X-93900000Y42250000D01*
%TO.N,E6*%
X-97200000Y25250000D02*
X-99360000Y25250000D01*
%TO.N,mirror_inner_home*%
X-91740000Y25250000D02*
X-93900000Y25250000D01*
%TO.N,mirror_inner_bottom*%
X-93900000Y8250000D02*
X-91740000Y8250000D01*
%TO.N,B4*%
X-99360000Y8250000D02*
X-97200000Y8250000D01*
%TO.N,B5*%
X-75110224Y-6685061D02*
X-75298480Y-6873317D01*
X-73146699Y-6685061D02*
X-75110224Y-6685061D01*
%TO.N,mirror_outer_thumbs*%
X-78774178Y-7349187D02*
X-78585922Y-7160931D01*
X-80737703Y-7349187D02*
X-78774178Y-7349187D01*
%TO.N,B5*%
X-97463606Y-10029102D02*
X-98022656Y-10588152D01*
X-95936257Y-10029102D02*
X-97463606Y-10029102D01*
%TO.N,mirror_middle_thumbs*%
X-101769262Y-12001304D02*
X-101210212Y-11442254D01*
X-103296611Y-12001304D02*
X-101769262Y-12001304D01*
%TO.N,B5*%
X-114751715Y-20056467D02*
X-114751715Y-19265852D01*
X-114751715Y-19265852D02*
X-115831715Y-18185852D01*
%TO.N,mirror_inner_thumbs*%
X-117481715Y-14537353D02*
X-118561715Y-13457353D01*
X-117481715Y-15327968D02*
X-117481715Y-14537353D01*
%TD*%
M02*
