M48
; DRILL file {KiCad (6.0.4)} date Sun Jul  3 23:33:08 2022
; FORMAT={-:-/ absolute / inch / decimal}
; #@! TF.CreationDate,2022-07-03T23:33:08-04:00
; #@! TF.GenerationSoftware,Kicad,Pcbnew,(6.0.4)
; #@! TF.FileFunction,NonPlated,1,2,NPTH
FMAT,2
INCH
; #@! TA.AperFunction,NonPlated,NPTH,ComponentDrill
T1C0.0591
; #@! TA.AperFunction,NonPlated,NPTH,ComponentDrill
T2C0.0670
; #@! TA.AperFunction,NonPlated,NPTH,ComponentDrill
T3C0.1350
%
G90
G05
T1
X-4.7224Y0.4508
X-4.4469Y0.4508
X3.6772Y0.4547
X3.9528Y0.4547
T2
X-4.8545Y-0.5608
X-4.6379Y-0.9358
X-4.0852Y-0.6608
X-3.9783Y1.8406
X-3.9783Y1.1713
X-3.9783Y0.502
X-3.6669Y-0.5488
X-3.5453Y1.8406
X-3.5453Y1.1713
X-3.5453Y0.502
X-3.2303Y2.0079
X-3.2303Y1.3386
X-3.2303Y0.6693
X-3.2295Y-0.4716
X-2.7981Y-0.4339
X-2.7972Y2.0079
X-2.7972Y1.3386
X-2.7972Y0.6693
X-2.4823Y2.1752
X-2.4823Y1.5059
X-2.4823Y0.8366
X-2.0492Y2.1752
X-2.0492Y1.5059
X-2.0492Y0.8366
X-1.7343Y1.8406
X-1.7343Y1.1713
X-1.7343Y0.502
X-1.3012Y1.8406
X-1.3012Y1.1713
X-1.3012Y0.502
X-0.9862Y1.3386
X-0.9862Y0.6693
X-0.9862Y0.0
X-0.5531Y1.3386
X-0.5531Y0.6693
X-0.5531Y0.0
X-0.2165Y1.3386
X-0.2165Y0.6693
X-0.2165Y0.0
X0.2165Y1.3386
X0.2165Y0.6693
X0.2165Y0.0
X0.5315Y1.8406
X0.5315Y1.1713
X0.5315Y0.502
X0.9646Y1.8406
X0.9646Y1.1713
X0.9646Y0.502
X1.2795Y2.1752
X1.2795Y1.5059
X1.2795Y0.8366
X1.7126Y2.1752
X1.7126Y1.5059
X1.7126Y0.8366
X2.0276Y2.0079
X2.0276Y1.3386
X2.0276Y0.6693
X2.0284Y-0.4339
X2.4598Y-0.4716
X2.4606Y2.0079
X2.4606Y1.3386
X2.4606Y0.6693
X2.7756Y1.8406
X2.7756Y1.1713
X2.7756Y0.502
X2.8972Y-0.5488
X3.2087Y1.8406
X3.2087Y1.1713
X3.2087Y0.502
X3.3155Y-0.6608
X3.8683Y-0.9358
X4.0848Y-0.5608
T3
X-4.7462Y-0.7483
X-3.8761Y-0.6048
X-3.7618Y1.8406
X-3.7618Y1.1713
X-3.7618Y0.502
X-3.0138Y2.0079
X-3.0138Y1.3386
X-3.0138Y0.6693
X-3.0138Y-0.4528
X-2.2657Y2.1752
X-2.2657Y1.5059
X-2.2657Y0.8366
X-1.5177Y1.8406
X-1.5177Y1.1713
X-1.5177Y0.502
X-0.7697Y1.3386
X-0.7697Y0.6693
X-0.7697Y0.0
X0.0Y1.3386
X0.0Y0.6693
X0.0Y0.0
X0.748Y1.8406
X0.748Y1.1713
X0.748Y0.502
X1.4961Y2.1752
X1.4961Y1.5059
X1.4961Y0.8366
X2.2441Y2.0079
X2.2441Y1.3386
X2.2441Y0.6693
X2.2441Y-0.4528
X2.9921Y1.8406
X2.9921Y1.1713
X2.9921Y0.502
X3.1064Y-0.6048
X3.9765Y-0.7483
T0
M30
