M48
; DRILL file {KiCad (6.0.4)} date Mon Jul  4 17:42:59 2022
; FORMAT={-:-/ absolute / inch / decimal}
; #@! TF.CreationDate,2022-07-04T17:42:59-04:00
; #@! TF.GenerationSoftware,Kicad,Pcbnew,(6.0.4)
; #@! TF.FileFunction,Plated,1,2,PTH
FMAT,2
INCH
; #@! TA.AperFunction,Plated,PTH,ComponentDrill
T1C0.0354
; #@! TA.AperFunction,Plated,PTH,ComponentDrill
T2C0.0390
; #@! TA.AperFunction,Plated,PTH,ComponentDrill
T3C0.0394
; #@! TA.AperFunction,Plated,PTH,ComponentDrill
T4C0.0430
; #@! TA.AperFunction,Plated,PTH,ComponentDrill
T5C0.0591
; #@! TA.AperFunction,Plated,PTH,ComponentDrill
T6C0.0866
%
G90
G05
T2
X-4.8769Y-0.5909
X-4.7049Y-0.8367
X-4.3038Y-0.4864
X-4.0219Y-0.3838
X-3.9689Y1.6634
X-3.9689Y0.9941
X-3.9689Y0.3248
X-3.6689Y1.6634
X-3.6689Y0.9941
X-3.6689Y0.3248
X-3.4962Y-0.25
X-3.2209Y1.8307
X-3.2209Y1.1614
X-3.2209Y0.4921
X-3.2008Y-0.1979
X-2.9209Y1.8307
X-2.9209Y1.1614
X-2.9209Y0.4921
X-2.6598Y-0.1575
X-2.4728Y1.998
X-2.4728Y1.3287
X-2.4728Y0.6594
X-2.3598Y-0.1575
X-2.1728Y1.998
X-2.1728Y1.3287
X-2.1728Y0.6594
X-1.7248Y1.6634
X-1.7248Y0.9941
X-1.7248Y0.3248
X-1.4248Y1.6634
X-1.4248Y0.9941
X-1.4248Y0.3248
X-0.9768Y1.1614
X-0.9768Y0.4921
X-0.9768Y-0.1772
X-0.6768Y1.1614
X-0.6768Y0.4921
X-0.6768Y-0.1772
X-0.15Y1.1614
X-0.15Y0.4921
X-0.15Y-0.1772
X0.15Y1.1614
X0.15Y0.4921
X0.15Y-0.1772
X0.598Y1.6634
X0.598Y0.9941
X0.598Y0.3248
X0.898Y1.6634
X0.898Y0.9941
X0.898Y0.3248
X1.3461Y1.998
X1.3461Y1.3287
X1.3461Y0.6594
X1.5331Y-0.1575
X1.6461Y1.998
X1.6461Y1.3287
X1.6461Y0.6594
X1.8331Y-0.1575
X2.0941Y1.8307
X2.0941Y1.1614
X2.0941Y0.4921
X2.374Y-0.1979
X2.3941Y1.8307
X2.3941Y1.1614
X2.3941Y0.4921
X2.6695Y-0.25
X2.8421Y1.6634
X2.8421Y0.9941
X2.8421Y0.3248
X3.1421Y1.6634
X3.1421Y0.9941
X3.1421Y0.3248
X3.1951Y-0.3838
X3.4771Y-0.4864
X3.8781Y-0.8367
X4.0502Y-0.5909
T3
X-4.6976Y0.6634
X-4.5976Y0.6634
X-4.4976Y0.6634
X-4.3976Y0.6634
X3.5701Y0.6634
X3.6701Y0.6634
X3.7701Y0.6634
X3.8701Y0.6634
T4
X-4.8472Y1.8787
X-4.8472Y1.7787
X-4.8472Y1.6787
X-4.8472Y1.5787
X-4.8472Y1.4787
X-4.8472Y1.3787
X-4.8472Y1.2787
X-4.8472Y1.1787
X-4.8472Y1.0787
X-4.8472Y0.9787
X-4.8472Y0.8787
X-4.8472Y0.7787
X-4.2472Y1.8787
X-4.2472Y1.7787
X-4.2472Y1.6787
X-4.2472Y1.5787
X-4.2472Y1.4787
X-4.2472Y1.3787
X-4.2472Y1.2787
X-4.2472Y1.1787
X-4.2472Y1.0787
X-4.2472Y0.9787
X-4.2472Y0.8787
X-4.2472Y0.7787
X3.4205Y1.8787
X3.4205Y1.7787
X3.4205Y1.6787
X3.4205Y1.5787
X3.4205Y1.4787
X3.4205Y1.3787
X3.4205Y1.2787
X3.4205Y1.1787
X3.4205Y1.0787
X3.4205Y0.9787
X3.4205Y0.8787
X3.4205Y0.7787
X4.0205Y1.8787
X4.0205Y1.7787
X4.0205Y1.6787
X4.0205Y1.5787
X4.0205Y1.4787
X4.0205Y1.3787
X4.0205Y1.2787
X4.0205Y1.1787
X4.0205Y1.0787
X4.0205Y0.9787
X4.0205Y0.8787
X4.0205Y0.7787
T5
X-5.1715Y-0.74
X-5.1263Y-0.9486
X-4.2361Y-0.8095
X-4.0228Y-0.8198
X-3.8189Y2.0728
X-3.8189Y1.4035
X-3.8189Y0.7343
X-3.622Y1.9902
X-3.622Y1.3209
X-3.622Y0.6516
X-3.4856Y-0.58
X-3.2774Y-0.6272
X-3.0709Y2.2402
X-3.0709Y1.5709
X-3.0709Y0.9016
X-2.874Y2.1575
X-2.874Y1.4882
X-2.874Y0.8189
X-2.7067Y-0.4843
X-2.5098Y-0.5669
X-2.3228Y2.4075
X-2.3228Y1.7382
X-2.3228Y1.0689
X-2.126Y2.3248
X-2.126Y1.6555
X-2.126Y0.9862
X-1.5748Y2.0728
X-1.5748Y1.4035
X-1.5748Y0.7343
X-1.378Y1.9902
X-1.378Y1.3209
X-1.378Y0.6516
X-0.8268Y1.5709
X-0.8268Y0.9016
X-0.8268Y0.2323
X-0.6299Y1.4882
X-0.6299Y0.8189
X-0.6299Y0.1496
X0.0Y1.5709
X0.0Y0.9016
X0.0Y0.2323
X0.1969Y1.4882
X0.1969Y0.8189
X0.1969Y0.1496
X0.748Y2.0728
X0.748Y1.4035
X0.748Y0.7343
X0.9449Y1.9902
X0.9449Y1.3209
X0.9449Y0.6516
X1.4862Y-0.4843
X1.4961Y2.4075
X1.4961Y1.7382
X1.4961Y1.0689
X1.6831Y-0.5669
X1.6929Y2.3248
X1.6929Y1.6555
X1.6929Y0.9862
X2.2441Y2.2402
X2.2441Y1.5709
X2.2441Y0.9016
X2.2711Y-0.5116
X2.4409Y2.1575
X2.4409Y1.4882
X2.4409Y0.8189
X2.4506Y-0.6272
X2.9921Y2.0728
X2.9921Y1.4035
X2.9921Y0.7343
X3.0394Y-0.6748
X3.189Y1.9902
X3.189Y1.3209
X3.189Y0.6516
X3.1961Y-0.8198
X4.1189Y-1.0625
X4.2995Y-0.9486
T6
X-3.4469Y1.0531
X-2.6969Y1.8031
X-2.6969Y0.3031
X-1.9469Y1.0531
X1.1201Y1.0531
X1.8701Y1.8031
X1.8701Y0.3031
X2.6201Y1.0531
T1
G00X-4.7283Y0.5413
M15
G01X-4.7047Y0.5413
M16
G05
G00X-4.6102Y0.5413
M15
G01X-4.5866Y0.5413
M16
G05
G00X-4.4528Y0.5413
M15
G01X-4.4291Y0.5413
M16
G05
G00X-4.4094Y0.3602
M15
G01X-4.3858Y0.3602
M16
G05
G00X3.5827Y0.5453
M15
G01X3.5591Y0.5453
M16
G05
G00X3.626Y0.3642
M15
G01X3.6024Y0.3642
M16
G05
G00X3.7835Y0.3642
M15
G01X3.7598Y0.3642
M16
G05
G00X3.9016Y0.3642
M15
G01X3.878Y0.3642
M16
G05
T0
M30
