%TF.GenerationSoftware,KiCad,Pcbnew,(6.0.4)*%
%TF.CreationDate,2022-07-04T17:43:03-04:00*%
%TF.ProjectId,glitch,676c6974-6368-42e6-9b69-6361645f7063,v1.0.0*%
%TF.SameCoordinates,Original*%
%TF.FileFunction,Legend,Top*%
%TF.FilePolarity,Positive*%
%FSLAX46Y46*%
G04 Gerber Fmt 4.6, Leading zero omitted, Abs format (unit mm)*
G04 Created by KiCad (PCBNEW (6.0.4)) date 2022-07-04 17:43:03*
%MOMM*%
%LPD*%
G01*
G04 APERTURE LIST*
%ADD10C,0.150000*%
%ADD11C,0.100000*%
%ADD12R,1.752600X1.752600*%
%ADD13C,1.752600*%
G04 APERTURE END LIST*
D10*
%TO.C,MCU1*%
X98747619Y47358095D02*
X98480952Y47739047D01*
X98290476Y47358095D02*
X98290476Y48158095D01*
X98595238Y48158095D01*
X98671428Y48120000D01*
X98709523Y48081904D01*
X98747619Y48005714D01*
X98747619Y47891428D01*
X98709523Y47815238D01*
X98671428Y47777142D01*
X98595238Y47739047D01*
X98290476Y47739047D01*
X99052380Y47586666D02*
X99433333Y47586666D01*
X98976190Y47358095D02*
X99242857Y48158095D01*
X99509523Y47358095D01*
X99700000Y48158095D02*
X99890476Y47358095D01*
X100042857Y47929523D01*
X100195238Y47358095D01*
X100385714Y48158095D01*
X98690476Y45580000D02*
X98614285Y45618095D01*
X98500000Y45618095D01*
X98385714Y45580000D01*
X98309523Y45503809D01*
X98271428Y45427619D01*
X98233333Y45275238D01*
X98233333Y45160952D01*
X98271428Y45008571D01*
X98309523Y44932380D01*
X98385714Y44856190D01*
X98500000Y44818095D01*
X98576190Y44818095D01*
X98690476Y44856190D01*
X98728571Y44894285D01*
X98728571Y45160952D01*
X98576190Y45160952D01*
X99071428Y44818095D02*
X99071428Y45618095D01*
X99528571Y44818095D01*
X99528571Y45618095D01*
X99909523Y44818095D02*
X99909523Y45618095D01*
X100100000Y45618095D01*
X100214285Y45580000D01*
X100290476Y45503809D01*
X100328571Y45427619D01*
X100366666Y45275238D01*
X100366666Y45160952D01*
X100328571Y45008571D01*
X100290476Y44932380D01*
X100214285Y44856190D01*
X100100000Y44818095D01*
X99909523Y44818095D01*
X98861904Y42278095D02*
X98595238Y42659047D01*
X98404761Y42278095D02*
X98404761Y43078095D01*
X98709523Y43078095D01*
X98785714Y43040000D01*
X98823809Y43001904D01*
X98861904Y42925714D01*
X98861904Y42811428D01*
X98823809Y42735238D01*
X98785714Y42697142D01*
X98709523Y42659047D01*
X98404761Y42659047D01*
X99166666Y42316190D02*
X99280952Y42278095D01*
X99471428Y42278095D01*
X99547619Y42316190D01*
X99585714Y42354285D01*
X99623809Y42430476D01*
X99623809Y42506666D01*
X99585714Y42582857D01*
X99547619Y42620952D01*
X99471428Y42659047D01*
X99319047Y42697142D01*
X99242857Y42735238D01*
X99204761Y42773333D01*
X99166666Y42849523D01*
X99166666Y42925714D01*
X99204761Y43001904D01*
X99242857Y43040000D01*
X99319047Y43078095D01*
X99509523Y43078095D01*
X99623809Y43040000D01*
X99852380Y43078095D02*
X100309523Y43078095D01*
X100080952Y42278095D02*
X100080952Y43078095D01*
X98233333Y40538095D02*
X98500000Y39738095D01*
X98766666Y40538095D01*
X99490476Y39814285D02*
X99452380Y39776190D01*
X99338095Y39738095D01*
X99261904Y39738095D01*
X99147619Y39776190D01*
X99071428Y39852380D01*
X99033333Y39928571D01*
X98995238Y40080952D01*
X98995238Y40195238D01*
X99033333Y40347619D01*
X99071428Y40423809D01*
X99147619Y40500000D01*
X99261904Y40538095D01*
X99338095Y40538095D01*
X99452380Y40500000D01*
X99490476Y40461904D01*
X100290476Y39814285D02*
X100252380Y39776190D01*
X100138095Y39738095D01*
X100061904Y39738095D01*
X99947619Y39776190D01*
X99871428Y39852380D01*
X99833333Y39928571D01*
X99795238Y40080952D01*
X99795238Y40195238D01*
X99833333Y40347619D01*
X99871428Y40423809D01*
X99947619Y40500000D01*
X100061904Y40538095D01*
X100138095Y40538095D01*
X100252380Y40500000D01*
X100290476Y40461904D01*
X99033333Y37617142D02*
X98766666Y37617142D01*
X98766666Y37198095D02*
X98766666Y37998095D01*
X99147619Y37998095D01*
X99795238Y37731428D02*
X99795238Y37198095D01*
X99604761Y38036190D02*
X99414285Y37464761D01*
X99909523Y37464761D01*
X99033333Y35077142D02*
X98766666Y35077142D01*
X98766666Y34658095D02*
X98766666Y35458095D01*
X99147619Y35458095D01*
X99833333Y35458095D02*
X99452380Y35458095D01*
X99414285Y35077142D01*
X99452380Y35115238D01*
X99528571Y35153333D01*
X99719047Y35153333D01*
X99795238Y35115238D01*
X99833333Y35077142D01*
X99871428Y35000952D01*
X99871428Y34810476D01*
X99833333Y34734285D01*
X99795238Y34696190D01*
X99719047Y34658095D01*
X99528571Y34658095D01*
X99452380Y34696190D01*
X99414285Y34734285D01*
X99033333Y32537142D02*
X98766666Y32537142D01*
X98766666Y32118095D02*
X98766666Y32918095D01*
X99147619Y32918095D01*
X99795238Y32918095D02*
X99642857Y32918095D01*
X99566666Y32880000D01*
X99528571Y32841904D01*
X99452380Y32727619D01*
X99414285Y32575238D01*
X99414285Y32270476D01*
X99452380Y32194285D01*
X99490476Y32156190D01*
X99566666Y32118095D01*
X99719047Y32118095D01*
X99795238Y32156190D01*
X99833333Y32194285D01*
X99871428Y32270476D01*
X99871428Y32460952D01*
X99833333Y32537142D01*
X99795238Y32575238D01*
X99719047Y32613333D01*
X99566666Y32613333D01*
X99490476Y32575238D01*
X99452380Y32537142D01*
X99414285Y32460952D01*
X99033333Y29997142D02*
X98766666Y29997142D01*
X98766666Y29578095D02*
X98766666Y30378095D01*
X99147619Y30378095D01*
X99376190Y30378095D02*
X99909523Y30378095D01*
X99566666Y29578095D01*
X98976190Y27457142D02*
X99090476Y27419047D01*
X99128571Y27380952D01*
X99166666Y27304761D01*
X99166666Y27190476D01*
X99128571Y27114285D01*
X99090476Y27076190D01*
X99014285Y27038095D01*
X98709523Y27038095D01*
X98709523Y27838095D01*
X98976190Y27838095D01*
X99052380Y27800000D01*
X99090476Y27761904D01*
X99128571Y27685714D01*
X99128571Y27609523D01*
X99090476Y27533333D01*
X99052380Y27495238D01*
X98976190Y27457142D01*
X98709523Y27457142D01*
X99928571Y27038095D02*
X99471428Y27038095D01*
X99700000Y27038095D02*
X99700000Y27838095D01*
X99623809Y27723809D01*
X99547619Y27647619D01*
X99471428Y27609523D01*
X98976190Y24917142D02*
X99090476Y24879047D01*
X99128571Y24840952D01*
X99166666Y24764761D01*
X99166666Y24650476D01*
X99128571Y24574285D01*
X99090476Y24536190D01*
X99014285Y24498095D01*
X98709523Y24498095D01*
X98709523Y25298095D01*
X98976190Y25298095D01*
X99052380Y25260000D01*
X99090476Y25221904D01*
X99128571Y25145714D01*
X99128571Y25069523D01*
X99090476Y24993333D01*
X99052380Y24955238D01*
X98976190Y24917142D01*
X98709523Y24917142D01*
X99433333Y25298095D02*
X99928571Y25298095D01*
X99661904Y24993333D01*
X99776190Y24993333D01*
X99852380Y24955238D01*
X99890476Y24917142D01*
X99928571Y24840952D01*
X99928571Y24650476D01*
X99890476Y24574285D01*
X99852380Y24536190D01*
X99776190Y24498095D01*
X99547619Y24498095D01*
X99471428Y24536190D01*
X99433333Y24574285D01*
X98976190Y22377142D02*
X99090476Y22339047D01*
X99128571Y22300952D01*
X99166666Y22224761D01*
X99166666Y22110476D01*
X99128571Y22034285D01*
X99090476Y21996190D01*
X99014285Y21958095D01*
X98709523Y21958095D01*
X98709523Y22758095D01*
X98976190Y22758095D01*
X99052380Y22720000D01*
X99090476Y22681904D01*
X99128571Y22605714D01*
X99128571Y22529523D01*
X99090476Y22453333D01*
X99052380Y22415238D01*
X98976190Y22377142D01*
X98709523Y22377142D01*
X99471428Y22681904D02*
X99509523Y22720000D01*
X99585714Y22758095D01*
X99776190Y22758095D01*
X99852380Y22720000D01*
X99890476Y22681904D01*
X99928571Y22605714D01*
X99928571Y22529523D01*
X99890476Y22415238D01*
X99433333Y21958095D01*
X99928571Y21958095D01*
X98976190Y19837142D02*
X99090476Y19799047D01*
X99128571Y19760952D01*
X99166666Y19684761D01*
X99166666Y19570476D01*
X99128571Y19494285D01*
X99090476Y19456190D01*
X99014285Y19418095D01*
X98709523Y19418095D01*
X98709523Y20218095D01*
X98976190Y20218095D01*
X99052380Y20180000D01*
X99090476Y20141904D01*
X99128571Y20065714D01*
X99128571Y19989523D01*
X99090476Y19913333D01*
X99052380Y19875238D01*
X98976190Y19837142D01*
X98709523Y19837142D01*
X99852380Y20218095D02*
X99700000Y20218095D01*
X99623809Y20180000D01*
X99585714Y20141904D01*
X99509523Y20027619D01*
X99471428Y19875238D01*
X99471428Y19570476D01*
X99509523Y19494285D01*
X99547619Y19456190D01*
X99623809Y19418095D01*
X99776190Y19418095D01*
X99852380Y19456190D01*
X99890476Y19494285D01*
X99928571Y19570476D01*
X99928571Y19760952D01*
X99890476Y19837142D01*
X99852380Y19875238D01*
X99776190Y19913333D01*
X99623809Y19913333D01*
X99547619Y19875238D01*
X99509523Y19837142D01*
X99471428Y19760952D01*
X89109523Y47358095D02*
X89109523Y48158095D01*
X89300000Y48158095D01*
X89414285Y48120000D01*
X89490476Y48043809D01*
X89528571Y47967619D01*
X89566666Y47815238D01*
X89566666Y47700952D01*
X89528571Y47548571D01*
X89490476Y47472380D01*
X89414285Y47396190D01*
X89300000Y47358095D01*
X89109523Y47358095D01*
X89833333Y48158095D02*
X90328571Y48158095D01*
X90061904Y47853333D01*
X90176190Y47853333D01*
X90252380Y47815238D01*
X90290476Y47777142D01*
X90328571Y47700952D01*
X90328571Y47510476D01*
X90290476Y47434285D01*
X90252380Y47396190D01*
X90176190Y47358095D01*
X89947619Y47358095D01*
X89871428Y47396190D01*
X89833333Y47434285D01*
X89109523Y44818095D02*
X89109523Y45618095D01*
X89300000Y45618095D01*
X89414285Y45580000D01*
X89490476Y45503809D01*
X89528571Y45427619D01*
X89566666Y45275238D01*
X89566666Y45160952D01*
X89528571Y45008571D01*
X89490476Y44932380D01*
X89414285Y44856190D01*
X89300000Y44818095D01*
X89109523Y44818095D01*
X89871428Y45541904D02*
X89909523Y45580000D01*
X89985714Y45618095D01*
X90176190Y45618095D01*
X90252380Y45580000D01*
X90290476Y45541904D01*
X90328571Y45465714D01*
X90328571Y45389523D01*
X90290476Y45275238D01*
X89833333Y44818095D01*
X90328571Y44818095D01*
X89090476Y43040000D02*
X89014285Y43078095D01*
X88900000Y43078095D01*
X88785714Y43040000D01*
X88709523Y42963809D01*
X88671428Y42887619D01*
X88633333Y42735238D01*
X88633333Y42620952D01*
X88671428Y42468571D01*
X88709523Y42392380D01*
X88785714Y42316190D01*
X88900000Y42278095D01*
X88976190Y42278095D01*
X89090476Y42316190D01*
X89128571Y42354285D01*
X89128571Y42620952D01*
X88976190Y42620952D01*
X89471428Y42278095D02*
X89471428Y43078095D01*
X89928571Y42278095D01*
X89928571Y43078095D01*
X90309523Y42278095D02*
X90309523Y43078095D01*
X90500000Y43078095D01*
X90614285Y43040000D01*
X90690476Y42963809D01*
X90728571Y42887619D01*
X90766666Y42735238D01*
X90766666Y42620952D01*
X90728571Y42468571D01*
X90690476Y42392380D01*
X90614285Y42316190D01*
X90500000Y42278095D01*
X90309523Y42278095D01*
X89090476Y40500000D02*
X89014285Y40538095D01*
X88900000Y40538095D01*
X88785714Y40500000D01*
X88709523Y40423809D01*
X88671428Y40347619D01*
X88633333Y40195238D01*
X88633333Y40080952D01*
X88671428Y39928571D01*
X88709523Y39852380D01*
X88785714Y39776190D01*
X88900000Y39738095D01*
X88976190Y39738095D01*
X89090476Y39776190D01*
X89128571Y39814285D01*
X89128571Y40080952D01*
X88976190Y40080952D01*
X89471428Y39738095D02*
X89471428Y40538095D01*
X89928571Y39738095D01*
X89928571Y40538095D01*
X90309523Y39738095D02*
X90309523Y40538095D01*
X90500000Y40538095D01*
X90614285Y40500000D01*
X90690476Y40423809D01*
X90728571Y40347619D01*
X90766666Y40195238D01*
X90766666Y40080952D01*
X90728571Y39928571D01*
X90690476Y39852380D01*
X90614285Y39776190D01*
X90500000Y39738095D01*
X90309523Y39738095D01*
X89109523Y37198095D02*
X89109523Y37998095D01*
X89300000Y37998095D01*
X89414285Y37960000D01*
X89490476Y37883809D01*
X89528571Y37807619D01*
X89566666Y37655238D01*
X89566666Y37540952D01*
X89528571Y37388571D01*
X89490476Y37312380D01*
X89414285Y37236190D01*
X89300000Y37198095D01*
X89109523Y37198095D01*
X90328571Y37198095D02*
X89871428Y37198095D01*
X90100000Y37198095D02*
X90100000Y37998095D01*
X90023809Y37883809D01*
X89947619Y37807619D01*
X89871428Y37769523D01*
X89109523Y34658095D02*
X89109523Y35458095D01*
X89300000Y35458095D01*
X89414285Y35420000D01*
X89490476Y35343809D01*
X89528571Y35267619D01*
X89566666Y35115238D01*
X89566666Y35000952D01*
X89528571Y34848571D01*
X89490476Y34772380D01*
X89414285Y34696190D01*
X89300000Y34658095D01*
X89109523Y34658095D01*
X90061904Y35458095D02*
X90138095Y35458095D01*
X90214285Y35420000D01*
X90252380Y35381904D01*
X90290476Y35305714D01*
X90328571Y35153333D01*
X90328571Y34962857D01*
X90290476Y34810476D01*
X90252380Y34734285D01*
X90214285Y34696190D01*
X90138095Y34658095D01*
X90061904Y34658095D01*
X89985714Y34696190D01*
X89947619Y34734285D01*
X89909523Y34810476D01*
X89871428Y34962857D01*
X89871428Y35153333D01*
X89909523Y35305714D01*
X89947619Y35381904D01*
X89985714Y35420000D01*
X90061904Y35458095D01*
X89109523Y32118095D02*
X89109523Y32918095D01*
X89300000Y32918095D01*
X89414285Y32880000D01*
X89490476Y32803809D01*
X89528571Y32727619D01*
X89566666Y32575238D01*
X89566666Y32460952D01*
X89528571Y32308571D01*
X89490476Y32232380D01*
X89414285Y32156190D01*
X89300000Y32118095D01*
X89109523Y32118095D01*
X90252380Y32651428D02*
X90252380Y32118095D01*
X90061904Y32956190D02*
X89871428Y32384761D01*
X90366666Y32384761D01*
X89566666Y29654285D02*
X89528571Y29616190D01*
X89414285Y29578095D01*
X89338095Y29578095D01*
X89223809Y29616190D01*
X89147619Y29692380D01*
X89109523Y29768571D01*
X89071428Y29920952D01*
X89071428Y30035238D01*
X89109523Y30187619D01*
X89147619Y30263809D01*
X89223809Y30340000D01*
X89338095Y30378095D01*
X89414285Y30378095D01*
X89528571Y30340000D01*
X89566666Y30301904D01*
X90252380Y30378095D02*
X90100000Y30378095D01*
X90023809Y30340000D01*
X89985714Y30301904D01*
X89909523Y30187619D01*
X89871428Y30035238D01*
X89871428Y29730476D01*
X89909523Y29654285D01*
X89947619Y29616190D01*
X90023809Y29578095D01*
X90176190Y29578095D01*
X90252380Y29616190D01*
X90290476Y29654285D01*
X90328571Y29730476D01*
X90328571Y29920952D01*
X90290476Y29997142D01*
X90252380Y30035238D01*
X90176190Y30073333D01*
X90023809Y30073333D01*
X89947619Y30035238D01*
X89909523Y29997142D01*
X89871428Y29920952D01*
X89109523Y27038095D02*
X89109523Y27838095D01*
X89300000Y27838095D01*
X89414285Y27800000D01*
X89490476Y27723809D01*
X89528571Y27647619D01*
X89566666Y27495238D01*
X89566666Y27380952D01*
X89528571Y27228571D01*
X89490476Y27152380D01*
X89414285Y27076190D01*
X89300000Y27038095D01*
X89109523Y27038095D01*
X89833333Y27838095D02*
X90366666Y27838095D01*
X90023809Y27038095D01*
X89147619Y24917142D02*
X89414285Y24917142D01*
X89528571Y24498095D02*
X89147619Y24498095D01*
X89147619Y25298095D01*
X89528571Y25298095D01*
X90214285Y25298095D02*
X90061904Y25298095D01*
X89985714Y25260000D01*
X89947619Y25221904D01*
X89871428Y25107619D01*
X89833333Y24955238D01*
X89833333Y24650476D01*
X89871428Y24574285D01*
X89909523Y24536190D01*
X89985714Y24498095D01*
X90138095Y24498095D01*
X90214285Y24536190D01*
X90252380Y24574285D01*
X90290476Y24650476D01*
X90290476Y24840952D01*
X90252380Y24917142D01*
X90214285Y24955238D01*
X90138095Y24993333D01*
X89985714Y24993333D01*
X89909523Y24955238D01*
X89871428Y24917142D01*
X89833333Y24840952D01*
X89376190Y22377142D02*
X89490476Y22339047D01*
X89528571Y22300952D01*
X89566666Y22224761D01*
X89566666Y22110476D01*
X89528571Y22034285D01*
X89490476Y21996190D01*
X89414285Y21958095D01*
X89109523Y21958095D01*
X89109523Y22758095D01*
X89376190Y22758095D01*
X89452380Y22720000D01*
X89490476Y22681904D01*
X89528571Y22605714D01*
X89528571Y22529523D01*
X89490476Y22453333D01*
X89452380Y22415238D01*
X89376190Y22377142D01*
X89109523Y22377142D01*
X90252380Y22491428D02*
X90252380Y21958095D01*
X90061904Y22796190D02*
X89871428Y22224761D01*
X90366666Y22224761D01*
X89376190Y19837142D02*
X89490476Y19799047D01*
X89528571Y19760952D01*
X89566666Y19684761D01*
X89566666Y19570476D01*
X89528571Y19494285D01*
X89490476Y19456190D01*
X89414285Y19418095D01*
X89109523Y19418095D01*
X89109523Y20218095D01*
X89376190Y20218095D01*
X89452380Y20180000D01*
X89490476Y20141904D01*
X89528571Y20065714D01*
X89528571Y19989523D01*
X89490476Y19913333D01*
X89452380Y19875238D01*
X89376190Y19837142D01*
X89109523Y19837142D01*
X90290476Y20218095D02*
X89909523Y20218095D01*
X89871428Y19837142D01*
X89909523Y19875238D01*
X89985714Y19913333D01*
X90176190Y19913333D01*
X90252380Y19875238D01*
X90290476Y19837142D01*
X90328571Y19760952D01*
X90328571Y19570476D01*
X90290476Y19494285D01*
X90252380Y19456190D01*
X90176190Y19418095D01*
X89985714Y19418095D01*
X89909523Y19456190D01*
X89871428Y19494285D01*
%TO.C,MCU2*%
X-111252380Y47358095D02*
X-111519047Y47739047D01*
X-111709523Y47358095D02*
X-111709523Y48158095D01*
X-111404761Y48158095D01*
X-111328571Y48120000D01*
X-111290476Y48081904D01*
X-111252380Y48005714D01*
X-111252380Y47891428D01*
X-111290476Y47815238D01*
X-111328571Y47777142D01*
X-111404761Y47739047D01*
X-111709523Y47739047D01*
X-110947619Y47586666D02*
X-110566666Y47586666D01*
X-111023809Y47358095D02*
X-110757142Y48158095D01*
X-110490476Y47358095D01*
X-110300000Y48158095D02*
X-110109523Y47358095D01*
X-109957142Y47929523D01*
X-109804761Y47358095D01*
X-109614285Y48158095D01*
X-111309523Y45580000D02*
X-111385714Y45618095D01*
X-111500000Y45618095D01*
X-111614285Y45580000D01*
X-111690476Y45503809D01*
X-111728571Y45427619D01*
X-111766666Y45275238D01*
X-111766666Y45160952D01*
X-111728571Y45008571D01*
X-111690476Y44932380D01*
X-111614285Y44856190D01*
X-111500000Y44818095D01*
X-111423809Y44818095D01*
X-111309523Y44856190D01*
X-111271428Y44894285D01*
X-111271428Y45160952D01*
X-111423809Y45160952D01*
X-110928571Y44818095D02*
X-110928571Y45618095D01*
X-110471428Y44818095D01*
X-110471428Y45618095D01*
X-110090476Y44818095D02*
X-110090476Y45618095D01*
X-109900000Y45618095D01*
X-109785714Y45580000D01*
X-109709523Y45503809D01*
X-109671428Y45427619D01*
X-109633333Y45275238D01*
X-109633333Y45160952D01*
X-109671428Y45008571D01*
X-109709523Y44932380D01*
X-109785714Y44856190D01*
X-109900000Y44818095D01*
X-110090476Y44818095D01*
X-111138095Y42278095D02*
X-111404761Y42659047D01*
X-111595238Y42278095D02*
X-111595238Y43078095D01*
X-111290476Y43078095D01*
X-111214285Y43040000D01*
X-111176190Y43001904D01*
X-111138095Y42925714D01*
X-111138095Y42811428D01*
X-111176190Y42735238D01*
X-111214285Y42697142D01*
X-111290476Y42659047D01*
X-111595238Y42659047D01*
X-110833333Y42316190D02*
X-110719047Y42278095D01*
X-110528571Y42278095D01*
X-110452380Y42316190D01*
X-110414285Y42354285D01*
X-110376190Y42430476D01*
X-110376190Y42506666D01*
X-110414285Y42582857D01*
X-110452380Y42620952D01*
X-110528571Y42659047D01*
X-110680952Y42697142D01*
X-110757142Y42735238D01*
X-110795238Y42773333D01*
X-110833333Y42849523D01*
X-110833333Y42925714D01*
X-110795238Y43001904D01*
X-110757142Y43040000D01*
X-110680952Y43078095D01*
X-110490476Y43078095D01*
X-110376190Y43040000D01*
X-110147619Y43078095D02*
X-109690476Y43078095D01*
X-109919047Y42278095D02*
X-109919047Y43078095D01*
X-111766666Y40538095D02*
X-111500000Y39738095D01*
X-111233333Y40538095D01*
X-110509523Y39814285D02*
X-110547619Y39776190D01*
X-110661904Y39738095D01*
X-110738095Y39738095D01*
X-110852380Y39776190D01*
X-110928571Y39852380D01*
X-110966666Y39928571D01*
X-111004761Y40080952D01*
X-111004761Y40195238D01*
X-110966666Y40347619D01*
X-110928571Y40423809D01*
X-110852380Y40500000D01*
X-110738095Y40538095D01*
X-110661904Y40538095D01*
X-110547619Y40500000D01*
X-110509523Y40461904D01*
X-109709523Y39814285D02*
X-109747619Y39776190D01*
X-109861904Y39738095D01*
X-109938095Y39738095D01*
X-110052380Y39776190D01*
X-110128571Y39852380D01*
X-110166666Y39928571D01*
X-110204761Y40080952D01*
X-110204761Y40195238D01*
X-110166666Y40347619D01*
X-110128571Y40423809D01*
X-110052380Y40500000D01*
X-109938095Y40538095D01*
X-109861904Y40538095D01*
X-109747619Y40500000D01*
X-109709523Y40461904D01*
X-110966666Y37617142D02*
X-111233333Y37617142D01*
X-111233333Y37198095D02*
X-111233333Y37998095D01*
X-110852380Y37998095D01*
X-110204761Y37731428D02*
X-110204761Y37198095D01*
X-110395238Y38036190D02*
X-110585714Y37464761D01*
X-110090476Y37464761D01*
X-110966666Y35077142D02*
X-111233333Y35077142D01*
X-111233333Y34658095D02*
X-111233333Y35458095D01*
X-110852380Y35458095D01*
X-110166666Y35458095D02*
X-110547619Y35458095D01*
X-110585714Y35077142D01*
X-110547619Y35115238D01*
X-110471428Y35153333D01*
X-110280952Y35153333D01*
X-110204761Y35115238D01*
X-110166666Y35077142D01*
X-110128571Y35000952D01*
X-110128571Y34810476D01*
X-110166666Y34734285D01*
X-110204761Y34696190D01*
X-110280952Y34658095D01*
X-110471428Y34658095D01*
X-110547619Y34696190D01*
X-110585714Y34734285D01*
X-110966666Y32537142D02*
X-111233333Y32537142D01*
X-111233333Y32118095D02*
X-111233333Y32918095D01*
X-110852380Y32918095D01*
X-110204761Y32918095D02*
X-110357142Y32918095D01*
X-110433333Y32880000D01*
X-110471428Y32841904D01*
X-110547619Y32727619D01*
X-110585714Y32575238D01*
X-110585714Y32270476D01*
X-110547619Y32194285D01*
X-110509523Y32156190D01*
X-110433333Y32118095D01*
X-110280952Y32118095D01*
X-110204761Y32156190D01*
X-110166666Y32194285D01*
X-110128571Y32270476D01*
X-110128571Y32460952D01*
X-110166666Y32537142D01*
X-110204761Y32575238D01*
X-110280952Y32613333D01*
X-110433333Y32613333D01*
X-110509523Y32575238D01*
X-110547619Y32537142D01*
X-110585714Y32460952D01*
X-110966666Y29997142D02*
X-111233333Y29997142D01*
X-111233333Y29578095D02*
X-111233333Y30378095D01*
X-110852380Y30378095D01*
X-110623809Y30378095D02*
X-110090476Y30378095D01*
X-110433333Y29578095D01*
X-111023809Y27457142D02*
X-110909523Y27419047D01*
X-110871428Y27380952D01*
X-110833333Y27304761D01*
X-110833333Y27190476D01*
X-110871428Y27114285D01*
X-110909523Y27076190D01*
X-110985714Y27038095D01*
X-111290476Y27038095D01*
X-111290476Y27838095D01*
X-111023809Y27838095D01*
X-110947619Y27800000D01*
X-110909523Y27761904D01*
X-110871428Y27685714D01*
X-110871428Y27609523D01*
X-110909523Y27533333D01*
X-110947619Y27495238D01*
X-111023809Y27457142D01*
X-111290476Y27457142D01*
X-110071428Y27038095D02*
X-110528571Y27038095D01*
X-110300000Y27038095D02*
X-110300000Y27838095D01*
X-110376190Y27723809D01*
X-110452380Y27647619D01*
X-110528571Y27609523D01*
X-111023809Y24917142D02*
X-110909523Y24879047D01*
X-110871428Y24840952D01*
X-110833333Y24764761D01*
X-110833333Y24650476D01*
X-110871428Y24574285D01*
X-110909523Y24536190D01*
X-110985714Y24498095D01*
X-111290476Y24498095D01*
X-111290476Y25298095D01*
X-111023809Y25298095D01*
X-110947619Y25260000D01*
X-110909523Y25221904D01*
X-110871428Y25145714D01*
X-110871428Y25069523D01*
X-110909523Y24993333D01*
X-110947619Y24955238D01*
X-111023809Y24917142D01*
X-111290476Y24917142D01*
X-110566666Y25298095D02*
X-110071428Y25298095D01*
X-110338095Y24993333D01*
X-110223809Y24993333D01*
X-110147619Y24955238D01*
X-110109523Y24917142D01*
X-110071428Y24840952D01*
X-110071428Y24650476D01*
X-110109523Y24574285D01*
X-110147619Y24536190D01*
X-110223809Y24498095D01*
X-110452380Y24498095D01*
X-110528571Y24536190D01*
X-110566666Y24574285D01*
X-111023809Y22377142D02*
X-110909523Y22339047D01*
X-110871428Y22300952D01*
X-110833333Y22224761D01*
X-110833333Y22110476D01*
X-110871428Y22034285D01*
X-110909523Y21996190D01*
X-110985714Y21958095D01*
X-111290476Y21958095D01*
X-111290476Y22758095D01*
X-111023809Y22758095D01*
X-110947619Y22720000D01*
X-110909523Y22681904D01*
X-110871428Y22605714D01*
X-110871428Y22529523D01*
X-110909523Y22453333D01*
X-110947619Y22415238D01*
X-111023809Y22377142D01*
X-111290476Y22377142D01*
X-110528571Y22681904D02*
X-110490476Y22720000D01*
X-110414285Y22758095D01*
X-110223809Y22758095D01*
X-110147619Y22720000D01*
X-110109523Y22681904D01*
X-110071428Y22605714D01*
X-110071428Y22529523D01*
X-110109523Y22415238D01*
X-110566666Y21958095D01*
X-110071428Y21958095D01*
X-111023809Y19837142D02*
X-110909523Y19799047D01*
X-110871428Y19760952D01*
X-110833333Y19684761D01*
X-110833333Y19570476D01*
X-110871428Y19494285D01*
X-110909523Y19456190D01*
X-110985714Y19418095D01*
X-111290476Y19418095D01*
X-111290476Y20218095D01*
X-111023809Y20218095D01*
X-110947619Y20180000D01*
X-110909523Y20141904D01*
X-110871428Y20065714D01*
X-110871428Y19989523D01*
X-110909523Y19913333D01*
X-110947619Y19875238D01*
X-111023809Y19837142D01*
X-111290476Y19837142D01*
X-110147619Y20218095D02*
X-110300000Y20218095D01*
X-110376190Y20180000D01*
X-110414285Y20141904D01*
X-110490476Y20027619D01*
X-110528571Y19875238D01*
X-110528571Y19570476D01*
X-110490476Y19494285D01*
X-110452380Y19456190D01*
X-110376190Y19418095D01*
X-110223809Y19418095D01*
X-110147619Y19456190D01*
X-110109523Y19494285D01*
X-110071428Y19570476D01*
X-110071428Y19760952D01*
X-110109523Y19837142D01*
X-110147619Y19875238D01*
X-110223809Y19913333D01*
X-110376190Y19913333D01*
X-110452380Y19875238D01*
X-110490476Y19837142D01*
X-110528571Y19760952D01*
X-120890476Y47358095D02*
X-120890476Y48158095D01*
X-120700000Y48158095D01*
X-120585714Y48120000D01*
X-120509523Y48043809D01*
X-120471428Y47967619D01*
X-120433333Y47815238D01*
X-120433333Y47700952D01*
X-120471428Y47548571D01*
X-120509523Y47472380D01*
X-120585714Y47396190D01*
X-120700000Y47358095D01*
X-120890476Y47358095D01*
X-120166666Y48158095D02*
X-119671428Y48158095D01*
X-119938095Y47853333D01*
X-119823809Y47853333D01*
X-119747619Y47815238D01*
X-119709523Y47777142D01*
X-119671428Y47700952D01*
X-119671428Y47510476D01*
X-119709523Y47434285D01*
X-119747619Y47396190D01*
X-119823809Y47358095D01*
X-120052380Y47358095D01*
X-120128571Y47396190D01*
X-120166666Y47434285D01*
X-120890476Y44818095D02*
X-120890476Y45618095D01*
X-120700000Y45618095D01*
X-120585714Y45580000D01*
X-120509523Y45503809D01*
X-120471428Y45427619D01*
X-120433333Y45275238D01*
X-120433333Y45160952D01*
X-120471428Y45008571D01*
X-120509523Y44932380D01*
X-120585714Y44856190D01*
X-120700000Y44818095D01*
X-120890476Y44818095D01*
X-120128571Y45541904D02*
X-120090476Y45580000D01*
X-120014285Y45618095D01*
X-119823809Y45618095D01*
X-119747619Y45580000D01*
X-119709523Y45541904D01*
X-119671428Y45465714D01*
X-119671428Y45389523D01*
X-119709523Y45275238D01*
X-120166666Y44818095D01*
X-119671428Y44818095D01*
X-120909523Y43040000D02*
X-120985714Y43078095D01*
X-121100000Y43078095D01*
X-121214285Y43040000D01*
X-121290476Y42963809D01*
X-121328571Y42887619D01*
X-121366666Y42735238D01*
X-121366666Y42620952D01*
X-121328571Y42468571D01*
X-121290476Y42392380D01*
X-121214285Y42316190D01*
X-121100000Y42278095D01*
X-121023809Y42278095D01*
X-120909523Y42316190D01*
X-120871428Y42354285D01*
X-120871428Y42620952D01*
X-121023809Y42620952D01*
X-120528571Y42278095D02*
X-120528571Y43078095D01*
X-120071428Y42278095D01*
X-120071428Y43078095D01*
X-119690476Y42278095D02*
X-119690476Y43078095D01*
X-119500000Y43078095D01*
X-119385714Y43040000D01*
X-119309523Y42963809D01*
X-119271428Y42887619D01*
X-119233333Y42735238D01*
X-119233333Y42620952D01*
X-119271428Y42468571D01*
X-119309523Y42392380D01*
X-119385714Y42316190D01*
X-119500000Y42278095D01*
X-119690476Y42278095D01*
X-120909523Y40500000D02*
X-120985714Y40538095D01*
X-121100000Y40538095D01*
X-121214285Y40500000D01*
X-121290476Y40423809D01*
X-121328571Y40347619D01*
X-121366666Y40195238D01*
X-121366666Y40080952D01*
X-121328571Y39928571D01*
X-121290476Y39852380D01*
X-121214285Y39776190D01*
X-121100000Y39738095D01*
X-121023809Y39738095D01*
X-120909523Y39776190D01*
X-120871428Y39814285D01*
X-120871428Y40080952D01*
X-121023809Y40080952D01*
X-120528571Y39738095D02*
X-120528571Y40538095D01*
X-120071428Y39738095D01*
X-120071428Y40538095D01*
X-119690476Y39738095D02*
X-119690476Y40538095D01*
X-119500000Y40538095D01*
X-119385714Y40500000D01*
X-119309523Y40423809D01*
X-119271428Y40347619D01*
X-119233333Y40195238D01*
X-119233333Y40080952D01*
X-119271428Y39928571D01*
X-119309523Y39852380D01*
X-119385714Y39776190D01*
X-119500000Y39738095D01*
X-119690476Y39738095D01*
X-120890476Y37198095D02*
X-120890476Y37998095D01*
X-120700000Y37998095D01*
X-120585714Y37960000D01*
X-120509523Y37883809D01*
X-120471428Y37807619D01*
X-120433333Y37655238D01*
X-120433333Y37540952D01*
X-120471428Y37388571D01*
X-120509523Y37312380D01*
X-120585714Y37236190D01*
X-120700000Y37198095D01*
X-120890476Y37198095D01*
X-119671428Y37198095D02*
X-120128571Y37198095D01*
X-119900000Y37198095D02*
X-119900000Y37998095D01*
X-119976190Y37883809D01*
X-120052380Y37807619D01*
X-120128571Y37769523D01*
X-120890476Y34658095D02*
X-120890476Y35458095D01*
X-120700000Y35458095D01*
X-120585714Y35420000D01*
X-120509523Y35343809D01*
X-120471428Y35267619D01*
X-120433333Y35115238D01*
X-120433333Y35000952D01*
X-120471428Y34848571D01*
X-120509523Y34772380D01*
X-120585714Y34696190D01*
X-120700000Y34658095D01*
X-120890476Y34658095D01*
X-119938095Y35458095D02*
X-119861904Y35458095D01*
X-119785714Y35420000D01*
X-119747619Y35381904D01*
X-119709523Y35305714D01*
X-119671428Y35153333D01*
X-119671428Y34962857D01*
X-119709523Y34810476D01*
X-119747619Y34734285D01*
X-119785714Y34696190D01*
X-119861904Y34658095D01*
X-119938095Y34658095D01*
X-120014285Y34696190D01*
X-120052380Y34734285D01*
X-120090476Y34810476D01*
X-120128571Y34962857D01*
X-120128571Y35153333D01*
X-120090476Y35305714D01*
X-120052380Y35381904D01*
X-120014285Y35420000D01*
X-119938095Y35458095D01*
X-120890476Y32118095D02*
X-120890476Y32918095D01*
X-120700000Y32918095D01*
X-120585714Y32880000D01*
X-120509523Y32803809D01*
X-120471428Y32727619D01*
X-120433333Y32575238D01*
X-120433333Y32460952D01*
X-120471428Y32308571D01*
X-120509523Y32232380D01*
X-120585714Y32156190D01*
X-120700000Y32118095D01*
X-120890476Y32118095D01*
X-119747619Y32651428D02*
X-119747619Y32118095D01*
X-119938095Y32956190D02*
X-120128571Y32384761D01*
X-119633333Y32384761D01*
X-120433333Y29654285D02*
X-120471428Y29616190D01*
X-120585714Y29578095D01*
X-120661904Y29578095D01*
X-120776190Y29616190D01*
X-120852380Y29692380D01*
X-120890476Y29768571D01*
X-120928571Y29920952D01*
X-120928571Y30035238D01*
X-120890476Y30187619D01*
X-120852380Y30263809D01*
X-120776190Y30340000D01*
X-120661904Y30378095D01*
X-120585714Y30378095D01*
X-120471428Y30340000D01*
X-120433333Y30301904D01*
X-119747619Y30378095D02*
X-119900000Y30378095D01*
X-119976190Y30340000D01*
X-120014285Y30301904D01*
X-120090476Y30187619D01*
X-120128571Y30035238D01*
X-120128571Y29730476D01*
X-120090476Y29654285D01*
X-120052380Y29616190D01*
X-119976190Y29578095D01*
X-119823809Y29578095D01*
X-119747619Y29616190D01*
X-119709523Y29654285D01*
X-119671428Y29730476D01*
X-119671428Y29920952D01*
X-119709523Y29997142D01*
X-119747619Y30035238D01*
X-119823809Y30073333D01*
X-119976190Y30073333D01*
X-120052380Y30035238D01*
X-120090476Y29997142D01*
X-120128571Y29920952D01*
X-120890476Y27038095D02*
X-120890476Y27838095D01*
X-120700000Y27838095D01*
X-120585714Y27800000D01*
X-120509523Y27723809D01*
X-120471428Y27647619D01*
X-120433333Y27495238D01*
X-120433333Y27380952D01*
X-120471428Y27228571D01*
X-120509523Y27152380D01*
X-120585714Y27076190D01*
X-120700000Y27038095D01*
X-120890476Y27038095D01*
X-120166666Y27838095D02*
X-119633333Y27838095D01*
X-119976190Y27038095D01*
X-120852380Y24917142D02*
X-120585714Y24917142D01*
X-120471428Y24498095D02*
X-120852380Y24498095D01*
X-120852380Y25298095D01*
X-120471428Y25298095D01*
X-119785714Y25298095D02*
X-119938095Y25298095D01*
X-120014285Y25260000D01*
X-120052380Y25221904D01*
X-120128571Y25107619D01*
X-120166666Y24955238D01*
X-120166666Y24650476D01*
X-120128571Y24574285D01*
X-120090476Y24536190D01*
X-120014285Y24498095D01*
X-119861904Y24498095D01*
X-119785714Y24536190D01*
X-119747619Y24574285D01*
X-119709523Y24650476D01*
X-119709523Y24840952D01*
X-119747619Y24917142D01*
X-119785714Y24955238D01*
X-119861904Y24993333D01*
X-120014285Y24993333D01*
X-120090476Y24955238D01*
X-120128571Y24917142D01*
X-120166666Y24840952D01*
X-120623809Y22377142D02*
X-120509523Y22339047D01*
X-120471428Y22300952D01*
X-120433333Y22224761D01*
X-120433333Y22110476D01*
X-120471428Y22034285D01*
X-120509523Y21996190D01*
X-120585714Y21958095D01*
X-120890476Y21958095D01*
X-120890476Y22758095D01*
X-120623809Y22758095D01*
X-120547619Y22720000D01*
X-120509523Y22681904D01*
X-120471428Y22605714D01*
X-120471428Y22529523D01*
X-120509523Y22453333D01*
X-120547619Y22415238D01*
X-120623809Y22377142D01*
X-120890476Y22377142D01*
X-119747619Y22491428D02*
X-119747619Y21958095D01*
X-119938095Y22796190D02*
X-120128571Y22224761D01*
X-119633333Y22224761D01*
X-120623809Y19837142D02*
X-120509523Y19799047D01*
X-120471428Y19760952D01*
X-120433333Y19684761D01*
X-120433333Y19570476D01*
X-120471428Y19494285D01*
X-120509523Y19456190D01*
X-120585714Y19418095D01*
X-120890476Y19418095D01*
X-120890476Y20218095D01*
X-120623809Y20218095D01*
X-120547619Y20180000D01*
X-120509523Y20141904D01*
X-120471428Y20065714D01*
X-120471428Y19989523D01*
X-120509523Y19913333D01*
X-120547619Y19875238D01*
X-120623809Y19837142D01*
X-120890476Y19837142D01*
X-119709523Y20218095D02*
X-120090476Y20218095D01*
X-120128571Y19837142D01*
X-120090476Y19875238D01*
X-120014285Y19913333D01*
X-119823809Y19913333D01*
X-119747619Y19875238D01*
X-119709523Y19837142D01*
X-119671428Y19760952D01*
X-119671428Y19570476D01*
X-119709523Y19494285D01*
X-119747619Y19456190D01*
X-119823809Y19418095D01*
X-120014285Y19418095D01*
X-120090476Y19456190D01*
X-120128571Y19494285D01*
%TO.C,*%
D11*
%TO.C,D1*%
X250000Y-4500000D02*
X750000Y-4500000D01*
X250000Y-4900000D02*
X-350000Y-4500000D01*
X250000Y-4100000D02*
X250000Y-4900000D01*
X-350000Y-4500000D02*
X250000Y-4100000D01*
X-350000Y-4500000D02*
X-350000Y-5050000D01*
X-350000Y-4500000D02*
X-350000Y-3950000D01*
X-750000Y-4500000D02*
X-350000Y-4500000D01*
%TO.C,D2*%
X250000Y12500000D02*
X750000Y12500000D01*
X250000Y12100000D02*
X-350000Y12500000D01*
X250000Y12900000D02*
X250000Y12100000D01*
X-350000Y12500000D02*
X250000Y12900000D01*
X-350000Y12500000D02*
X-350000Y11950000D01*
X-350000Y12500000D02*
X-350000Y13050000D01*
X-750000Y12500000D02*
X-350000Y12500000D01*
%TO.C,D3*%
X250000Y29500000D02*
X750000Y29500000D01*
X250000Y29100000D02*
X-350000Y29500000D01*
X250000Y29900000D02*
X250000Y29100000D01*
X-350000Y29500000D02*
X250000Y29900000D01*
X-350000Y29500000D02*
X-350000Y28950000D01*
X-350000Y29500000D02*
X-350000Y30050000D01*
X-750000Y29500000D02*
X-350000Y29500000D01*
%TO.C,D4*%
X19250000Y8250000D02*
X19750000Y8250000D01*
X19250000Y7850000D02*
X18650000Y8250000D01*
X19250000Y8650000D02*
X19250000Y7850000D01*
X18650000Y8250000D02*
X19250000Y8650000D01*
X18650000Y8250000D02*
X18650000Y7700000D01*
X18650000Y8250000D02*
X18650000Y8800000D01*
X18250000Y8250000D02*
X18650000Y8250000D01*
%TO.C,D5*%
X19250000Y25250000D02*
X19750000Y25250000D01*
X19250000Y24850000D02*
X18650000Y25250000D01*
X19250000Y25650000D02*
X19250000Y24850000D01*
X18650000Y25250000D02*
X19250000Y25650000D01*
X18650000Y25250000D02*
X18650000Y24700000D01*
X18650000Y25250000D02*
X18650000Y25800000D01*
X18250000Y25250000D02*
X18650000Y25250000D01*
%TO.C,D6*%
X19250000Y42250000D02*
X19750000Y42250000D01*
X19250000Y41850000D02*
X18650000Y42250000D01*
X19250000Y42650000D02*
X19250000Y41850000D01*
X18650000Y42250000D02*
X19250000Y42650000D01*
X18650000Y42250000D02*
X18650000Y41700000D01*
X18650000Y42250000D02*
X18650000Y42800000D01*
X18250000Y42250000D02*
X18650000Y42250000D01*
%TO.C,D7*%
X38250000Y16750000D02*
X38750000Y16750000D01*
X38250000Y16350000D02*
X37650000Y16750000D01*
X38250000Y17150000D02*
X38250000Y16350000D01*
X37650000Y16750000D02*
X38250000Y17150000D01*
X37650000Y16750000D02*
X37650000Y16200000D01*
X37650000Y16750000D02*
X37650000Y17300000D01*
X37250000Y16750000D02*
X37650000Y16750000D01*
%TO.C,D8*%
X38250000Y33750000D02*
X38750000Y33750000D01*
X38250000Y33350000D02*
X37650000Y33750000D01*
X38250000Y34150000D02*
X38250000Y33350000D01*
X37650000Y33750000D02*
X38250000Y34150000D01*
X37650000Y33750000D02*
X37650000Y33200000D01*
X37650000Y33750000D02*
X37650000Y34300000D01*
X37250000Y33750000D02*
X37650000Y33750000D01*
%TO.C,D9*%
X38250000Y50750000D02*
X38750000Y50750000D01*
X38250000Y50350000D02*
X37650000Y50750000D01*
X38250000Y51150000D02*
X38250000Y50350000D01*
X37650000Y50750000D02*
X38250000Y51150000D01*
X37650000Y50750000D02*
X37650000Y50200000D01*
X37650000Y50750000D02*
X37650000Y51300000D01*
X37250000Y50750000D02*
X37650000Y50750000D01*
%TO.C,D10*%
X57250000Y12500000D02*
X57750000Y12500000D01*
X57250000Y12100000D02*
X56650000Y12500000D01*
X57250000Y12900000D02*
X57250000Y12100000D01*
X56650000Y12500000D02*
X57250000Y12900000D01*
X56650000Y12500000D02*
X56650000Y11950000D01*
X56650000Y12500000D02*
X56650000Y13050000D01*
X56250000Y12500000D02*
X56650000Y12500000D01*
%TO.C,D11*%
X57250000Y29500000D02*
X57750000Y29500000D01*
X57250000Y29100000D02*
X56650000Y29500000D01*
X57250000Y29900000D02*
X57250000Y29100000D01*
X56650000Y29500000D02*
X57250000Y29900000D01*
X56650000Y29500000D02*
X56650000Y28950000D01*
X56650000Y29500000D02*
X56650000Y30050000D01*
X56250000Y29500000D02*
X56650000Y29500000D01*
%TO.C,D12*%
X57250000Y46500000D02*
X57750000Y46500000D01*
X57250000Y46100000D02*
X56650000Y46500000D01*
X57250000Y46900000D02*
X57250000Y46100000D01*
X56650000Y46500000D02*
X57250000Y46900000D01*
X56650000Y46500000D02*
X56650000Y45950000D01*
X56650000Y46500000D02*
X56650000Y47050000D01*
X56250000Y46500000D02*
X56650000Y46500000D01*
%TO.C,D13*%
X76250000Y8250000D02*
X76750000Y8250000D01*
X76250000Y7850000D02*
X75650000Y8250000D01*
X76250000Y8650000D02*
X76250000Y7850000D01*
X75650000Y8250000D02*
X76250000Y8650000D01*
X75650000Y8250000D02*
X75650000Y7700000D01*
X75650000Y8250000D02*
X75650000Y8800000D01*
X75250000Y8250000D02*
X75650000Y8250000D01*
%TO.C,D14*%
X76250000Y25250000D02*
X76750000Y25250000D01*
X76250000Y24850000D02*
X75650000Y25250000D01*
X76250000Y25650000D02*
X76250000Y24850000D01*
X75650000Y25250000D02*
X76250000Y25650000D01*
X75650000Y25250000D02*
X75650000Y24700000D01*
X75650000Y25250000D02*
X75650000Y25800000D01*
X75250000Y25250000D02*
X75650000Y25250000D01*
%TO.C,D15*%
X76250000Y42250000D02*
X76750000Y42250000D01*
X76250000Y41850000D02*
X75650000Y42250000D01*
X76250000Y42650000D02*
X76250000Y41850000D01*
X75650000Y42250000D02*
X76250000Y42650000D01*
X75650000Y42250000D02*
X75650000Y41700000D01*
X75650000Y42250000D02*
X75650000Y42800000D01*
X75250000Y42250000D02*
X75650000Y42250000D01*
%TO.C,D16*%
X42500000Y-4000000D02*
X42000000Y-4000000D01*
X42500000Y-3600000D02*
X43100000Y-4000000D01*
X42500000Y-4400000D02*
X42500000Y-3600000D01*
X43100000Y-4000000D02*
X42500000Y-4400000D01*
X43100000Y-4000000D02*
X43100000Y-3450000D01*
X43100000Y-4000000D02*
X43100000Y-4550000D01*
X43500000Y-4000000D02*
X43100000Y-4000000D01*
%TO.C,D17*%
X63805738Y-5645289D02*
X63313334Y-5558465D01*
X63875197Y-5251366D02*
X64396623Y-5749478D01*
X63736279Y-6039212D02*
X63875197Y-5251366D01*
X64396623Y-5749478D02*
X63736279Y-6039212D01*
X64396623Y-5749478D02*
X64492129Y-5207834D01*
X64396623Y-5749478D02*
X64301116Y-6291122D01*
X64790546Y-5818937D02*
X64396623Y-5749478D01*
%TO.C,D18*%
X84502094Y-10965285D02*
X84032248Y-10794275D01*
X84638902Y-10589408D02*
X85065909Y-11170497D01*
X84365286Y-11341162D02*
X84638902Y-10589408D01*
X85065909Y-11170497D02*
X84365286Y-11341162D01*
X85065909Y-11170497D02*
X85254020Y-10653666D01*
X85065909Y-11170497D02*
X84877798Y-11687328D01*
X85441786Y-11307305D02*
X85065909Y-11170497D01*
%TO.C,D19*%
X100545255Y-18335292D02*
X100258467Y-18744868D01*
X100217594Y-18105861D02*
X100889401Y-17843801D01*
X100872916Y-18564723D02*
X100217594Y-18105861D01*
X100889401Y-17843801D02*
X100872916Y-18564723D01*
X100889401Y-17843801D02*
X100438867Y-17528334D01*
X100889401Y-17843801D02*
X101339934Y-18159268D01*
X101118831Y-17516140D02*
X100889401Y-17843801D01*
%TO.C,D20*%
X-20750000Y-4500000D02*
X-20250000Y-4500000D01*
X-20750000Y-4900000D02*
X-21350000Y-4500000D01*
X-20750000Y-4100000D02*
X-20750000Y-4900000D01*
X-21350000Y-4500000D02*
X-20750000Y-4100000D01*
X-21350000Y-4500000D02*
X-21350000Y-5050000D01*
X-21350000Y-4500000D02*
X-21350000Y-3950000D01*
X-21750000Y-4500000D02*
X-21350000Y-4500000D01*
%TO.C,D21*%
X-20750000Y12500000D02*
X-20250000Y12500000D01*
X-20750000Y12100000D02*
X-21350000Y12500000D01*
X-20750000Y12900000D02*
X-20750000Y12100000D01*
X-21350000Y12500000D02*
X-20750000Y12900000D01*
X-21350000Y12500000D02*
X-21350000Y11950000D01*
X-21350000Y12500000D02*
X-21350000Y13050000D01*
X-21750000Y12500000D02*
X-21350000Y12500000D01*
%TO.C,D22*%
X-20750000Y29500000D02*
X-20250000Y29500000D01*
X-20750000Y29100000D02*
X-21350000Y29500000D01*
X-20750000Y29900000D02*
X-20750000Y29100000D01*
X-21350000Y29500000D02*
X-20750000Y29900000D01*
X-21350000Y29500000D02*
X-21350000Y28950000D01*
X-21350000Y29500000D02*
X-21350000Y30050000D01*
X-21750000Y29500000D02*
X-21350000Y29500000D01*
%TO.C,D23*%
X-39750000Y8250000D02*
X-39250000Y8250000D01*
X-39750000Y7850000D02*
X-40350000Y8250000D01*
X-39750000Y8650000D02*
X-39750000Y7850000D01*
X-40350000Y8250000D02*
X-39750000Y8650000D01*
X-40350000Y8250000D02*
X-40350000Y7700000D01*
X-40350000Y8250000D02*
X-40350000Y8800000D01*
X-40750000Y8250000D02*
X-40350000Y8250000D01*
%TO.C,D24*%
X-39750000Y25250000D02*
X-39250000Y25250000D01*
X-39750000Y24850000D02*
X-40350000Y25250000D01*
X-39750000Y25650000D02*
X-39750000Y24850000D01*
X-40350000Y25250000D02*
X-39750000Y25650000D01*
X-40350000Y25250000D02*
X-40350000Y24700000D01*
X-40350000Y25250000D02*
X-40350000Y25800000D01*
X-40750000Y25250000D02*
X-40350000Y25250000D01*
%TO.C,D25*%
X-39750000Y42250000D02*
X-39250000Y42250000D01*
X-39750000Y41850000D02*
X-40350000Y42250000D01*
X-39750000Y42650000D02*
X-39750000Y41850000D01*
X-40350000Y42250000D02*
X-39750000Y42650000D01*
X-40350000Y42250000D02*
X-40350000Y41700000D01*
X-40350000Y42250000D02*
X-40350000Y42800000D01*
X-40750000Y42250000D02*
X-40350000Y42250000D01*
%TO.C,D26*%
X-58750000Y16750000D02*
X-58250000Y16750000D01*
X-58750000Y16350000D02*
X-59350000Y16750000D01*
X-58750000Y17150000D02*
X-58750000Y16350000D01*
X-59350000Y16750000D02*
X-58750000Y17150000D01*
X-59350000Y16750000D02*
X-59350000Y16200000D01*
X-59350000Y16750000D02*
X-59350000Y17300000D01*
X-59750000Y16750000D02*
X-59350000Y16750000D01*
%TO.C,D27*%
X-58750000Y33750000D02*
X-58250000Y33750000D01*
X-58750000Y33350000D02*
X-59350000Y33750000D01*
X-58750000Y34150000D02*
X-58750000Y33350000D01*
X-59350000Y33750000D02*
X-58750000Y34150000D01*
X-59350000Y33750000D02*
X-59350000Y33200000D01*
X-59350000Y33750000D02*
X-59350000Y34300000D01*
X-59750000Y33750000D02*
X-59350000Y33750000D01*
%TO.C,D28*%
X-58750000Y50750000D02*
X-58250000Y50750000D01*
X-58750000Y50350000D02*
X-59350000Y50750000D01*
X-58750000Y51150000D02*
X-58750000Y50350000D01*
X-59350000Y50750000D02*
X-58750000Y51150000D01*
X-59350000Y50750000D02*
X-59350000Y50200000D01*
X-59350000Y50750000D02*
X-59350000Y51300000D01*
X-59750000Y50750000D02*
X-59350000Y50750000D01*
%TO.C,D29*%
X-77750000Y12500000D02*
X-77250000Y12500000D01*
X-77750000Y12100000D02*
X-78350000Y12500000D01*
X-77750000Y12900000D02*
X-77750000Y12100000D01*
X-78350000Y12500000D02*
X-77750000Y12900000D01*
X-78350000Y12500000D02*
X-78350000Y11950000D01*
X-78350000Y12500000D02*
X-78350000Y13050000D01*
X-78750000Y12500000D02*
X-78350000Y12500000D01*
%TO.C,D30*%
X-77750000Y29500000D02*
X-77250000Y29500000D01*
X-77750000Y29100000D02*
X-78350000Y29500000D01*
X-77750000Y29900000D02*
X-77750000Y29100000D01*
X-78350000Y29500000D02*
X-77750000Y29900000D01*
X-78350000Y29500000D02*
X-78350000Y28950000D01*
X-78350000Y29500000D02*
X-78350000Y30050000D01*
X-78750000Y29500000D02*
X-78350000Y29500000D01*
%TO.C,D31*%
X-77750000Y46500000D02*
X-77250000Y46500000D01*
X-77750000Y46100000D02*
X-78350000Y46500000D01*
X-77750000Y46900000D02*
X-77750000Y46100000D01*
X-78350000Y46500000D02*
X-77750000Y46900000D01*
X-78350000Y46500000D02*
X-78350000Y45950000D01*
X-78350000Y46500000D02*
X-78350000Y47050000D01*
X-78750000Y46500000D02*
X-78350000Y46500000D01*
%TO.C,D32*%
X-96750000Y8250000D02*
X-96250000Y8250000D01*
X-96750000Y7850000D02*
X-97350000Y8250000D01*
X-96750000Y8650000D02*
X-96750000Y7850000D01*
X-97350000Y8250000D02*
X-96750000Y8650000D01*
X-97350000Y8250000D02*
X-97350000Y7700000D01*
X-97350000Y8250000D02*
X-97350000Y8800000D01*
X-97750000Y8250000D02*
X-97350000Y8250000D01*
%TO.C,D33*%
X-96750000Y25250000D02*
X-96250000Y25250000D01*
X-96750000Y24850000D02*
X-97350000Y25250000D01*
X-96750000Y25650000D02*
X-96750000Y24850000D01*
X-97350000Y25250000D02*
X-96750000Y25650000D01*
X-97350000Y25250000D02*
X-97350000Y24700000D01*
X-97350000Y25250000D02*
X-97350000Y25800000D01*
X-97750000Y25250000D02*
X-97350000Y25250000D01*
%TO.C,D34*%
X-96750000Y42250000D02*
X-96250000Y42250000D01*
X-96750000Y41850000D02*
X-97350000Y42250000D01*
X-96750000Y42650000D02*
X-96750000Y41850000D01*
X-97350000Y42250000D02*
X-96750000Y42650000D01*
X-97350000Y42250000D02*
X-97350000Y41700000D01*
X-97350000Y42250000D02*
X-97350000Y42800000D01*
X-97750000Y42250000D02*
X-97350000Y42250000D01*
%TO.C,D35*%
X-64000000Y-4000000D02*
X-64500000Y-4000000D01*
X-64000000Y-3600000D02*
X-63400000Y-4000000D01*
X-64000000Y-4400000D02*
X-64000000Y-3600000D01*
X-63400000Y-4000000D02*
X-64000000Y-4400000D01*
X-63400000Y-4000000D02*
X-63400000Y-3450000D01*
X-63400000Y-4000000D02*
X-63400000Y-4550000D01*
X-63000000Y-4000000D02*
X-63400000Y-4000000D01*
%TO.C,D36*%
X-85298142Y-5732113D02*
X-85790546Y-5818937D01*
X-85367601Y-5338190D02*
X-84707257Y-5627924D01*
X-85228683Y-6126036D02*
X-85367601Y-5338190D01*
X-84707257Y-5627924D02*
X-85228683Y-6126036D01*
X-84707257Y-5627924D02*
X-84802764Y-5086280D01*
X-84707257Y-5627924D02*
X-84611751Y-6169568D01*
X-84313334Y-5558465D02*
X-84707257Y-5627924D01*
%TO.C,D37*%
X-105971940Y-11136295D02*
X-106441786Y-11307305D01*
X-106108748Y-10760418D02*
X-105408125Y-10931083D01*
X-105835132Y-11512172D02*
X-106108748Y-10760418D01*
X-105408125Y-10931083D02*
X-105835132Y-11512172D01*
X-105408125Y-10931083D02*
X-105596236Y-10414252D01*
X-105408125Y-10931083D02*
X-105220014Y-11447914D01*
X-105032248Y-10794275D02*
X-105408125Y-10931083D01*
%TO.C,D38*%
X-121832043Y-17925716D02*
X-122118831Y-17516140D01*
X-121504382Y-17696285D02*
X-121487897Y-18417207D01*
X-122159704Y-18155147D02*
X-121504382Y-17696285D01*
X-121487897Y-18417207D02*
X-122159704Y-18155147D01*
X-121487897Y-18417207D02*
X-121037364Y-18101740D01*
X-121487897Y-18417207D02*
X-121938431Y-18732674D01*
X-121258467Y-18744868D02*
X-121487897Y-18417207D01*
%TD*%
D12*
%TO.C,MCU1*%
X102120000Y47720000D03*
D13*
X102120000Y45180000D03*
X102120000Y42640000D03*
X102120000Y40100000D03*
X102120000Y37560000D03*
X102120000Y35020000D03*
X102120000Y32480000D03*
X102120000Y29940000D03*
X102120000Y27400000D03*
X102120000Y24860000D03*
X102120000Y22320000D03*
X102120000Y19780000D03*
X86880000Y47720000D03*
X86880000Y45180000D03*
X86880000Y42640000D03*
X86880000Y40100000D03*
X86880000Y37560000D03*
X86880000Y35020000D03*
X86880000Y32480000D03*
X86880000Y29940000D03*
X86880000Y27400000D03*
X86880000Y24860000D03*
X86880000Y22320000D03*
X86880000Y19780000D03*
%TD*%
D12*
%TO.C,MCU2*%
X-107880000Y47720000D03*
D13*
X-107880000Y45180000D03*
X-107880000Y42640000D03*
X-107880000Y40100000D03*
X-107880000Y37560000D03*
X-107880000Y35020000D03*
X-107880000Y32480000D03*
X-107880000Y29940000D03*
X-107880000Y27400000D03*
X-107880000Y24860000D03*
X-107880000Y22320000D03*
X-107880000Y19780000D03*
X-123120000Y47720000D03*
X-123120000Y45180000D03*
X-123120000Y42640000D03*
X-123120000Y40100000D03*
X-123120000Y37560000D03*
X-123120000Y35020000D03*
X-123120000Y32480000D03*
X-123120000Y29940000D03*
X-123120000Y27400000D03*
X-123120000Y24860000D03*
X-123120000Y22320000D03*
X-123120000Y19780000D03*
%TD*%
M02*
