%TF.GenerationSoftware,KiCad,Pcbnew,(6.0.4)*%
%TF.CreationDate,2022-07-04T17:43:03-04:00*%
%TF.ProjectId,glitch,676c6974-6368-42e6-9b69-6361645f7063,v1.0.0*%
%TF.SameCoordinates,Original*%
%TF.FileFunction,Copper,L2,Bot*%
%TF.FilePolarity,Positive*%
%FSLAX46Y46*%
G04 Gerber Fmt 4.6, Leading zero omitted, Abs format (unit mm)*
G04 Created by KiCad (PCBNEW (6.0.4)) date 2022-07-04 17:43:03*
%MOMM*%
%LPD*%
G01*
G04 APERTURE LIST*
G04 Aperture macros list*
%AMRotRect*
0 Rectangle, with rotation*
0 The origin of the aperture is its center*
0 $1 length*
0 $2 width*
0 $3 Rotation angle, in degrees counterclockwise*
0 Add horizontal line*
21,1,$1,$2,0,0,$3*%
G04 Aperture macros list end*
%TA.AperFunction,ComponentPad*%
%ADD10C,2.500000*%
%TD*%
%TA.AperFunction,SMDPad,CuDef*%
%ADD11R,0.900000X1.200000*%
%TD*%
%TA.AperFunction,ComponentPad*%
%ADD12C,1.905000*%
%TD*%
%TA.AperFunction,ComponentPad*%
%ADD13R,1.778000X1.778000*%
%TD*%
%TA.AperFunction,SMDPad,CuDef*%
%ADD14RotRect,0.900000X1.200000X170.000000*%
%TD*%
%TA.AperFunction,ComponentPad*%
%ADD15RotRect,1.778000X1.778000X170.000000*%
%TD*%
%TA.AperFunction,SMDPad,CuDef*%
%ADD16RotRect,0.900000X1.200000X160.000000*%
%TD*%
%TA.AperFunction,ComponentPad*%
%ADD17RotRect,1.778000X1.778000X160.000000*%
%TD*%
%TA.AperFunction,SMDPad,CuDef*%
%ADD18RotRect,0.900000X1.200000X235.000000*%
%TD*%
%TA.AperFunction,ComponentPad*%
%ADD19RotRect,1.778000X1.778000X235.000000*%
%TD*%
%TA.AperFunction,SMDPad,CuDef*%
%ADD20RotRect,0.900000X1.200000X190.000000*%
%TD*%
%TA.AperFunction,ComponentPad*%
%ADD21RotRect,1.778000X1.778000X190.000000*%
%TD*%
%TA.AperFunction,SMDPad,CuDef*%
%ADD22RotRect,0.900000X1.200000X200.000000*%
%TD*%
%TA.AperFunction,ComponentPad*%
%ADD23RotRect,1.778000X1.778000X200.000000*%
%TD*%
%TA.AperFunction,SMDPad,CuDef*%
%ADD24RotRect,0.900000X1.200000X125.000000*%
%TD*%
%TA.AperFunction,ComponentPad*%
%ADD25RotRect,1.778000X1.778000X125.000000*%
%TD*%
%TA.AperFunction,ComponentPad*%
%ADD26R,1.752600X1.752600*%
%TD*%
%TA.AperFunction,ComponentPad*%
%ADD27C,1.752600*%
%TD*%
%TA.AperFunction,ComponentPad*%
%ADD28O,2.200000X1.600000*%
%TD*%
%TA.AperFunction,ComponentPad*%
%ADD29O,1.700000X1.700000*%
%TD*%
%TA.AperFunction,ComponentPad*%
%ADD30R,1.700000X1.700000*%
%TD*%
%TA.AperFunction,ComponentPad*%
%ADD31C,4.400000*%
%TD*%
%TA.AperFunction,Conductor*%
%ADD32C,0.127000*%
%TD*%
G04 APERTURE END LIST*
D10*
%TO.P,S1,1*%
%TO.N,pinky_bottom*%
X5000000Y3800000D03*
%TO.P,S1,2*%
%TO.N,D4*%
X0Y5900000D03*
%TD*%
D11*
%TO.P,D1,2*%
%TO.N,pinky_bottom*%
X1650000Y-4500000D03*
%TO.P,D1,1*%
%TO.N,B2*%
X-1650000Y-4500000D03*
D12*
%TO.N,pinky_bottom*%
X3810000Y-4500000D03*
D13*
%TO.P,D1,2*%
%TO.N,B2*%
X-3810000Y-4500000D03*
%TD*%
D10*
%TO.P,S2,1*%
%TO.N,pinky_home*%
X5000000Y20800000D03*
%TO.P,S2,2*%
%TO.N,D4*%
X0Y22900000D03*
%TD*%
D11*
%TO.P,D2,2*%
%TO.N,pinky_home*%
X1650000Y12500000D03*
%TO.P,D2,1*%
%TO.N,B3*%
X-1650000Y12500000D03*
D12*
%TO.N,pinky_home*%
X3810000Y12500000D03*
D13*
%TO.P,D2,2*%
%TO.N,B3*%
X-3810000Y12500000D03*
%TD*%
D10*
%TO.P,S3,1*%
%TO.N,pinky_top*%
X5000000Y37800000D03*
%TO.P,S3,2*%
%TO.N,D4*%
X0Y39900000D03*
%TD*%
D11*
%TO.P,D3,2*%
%TO.N,pinky_top*%
X1650000Y29500000D03*
%TO.P,D3,1*%
%TO.N,B1*%
X-1650000Y29500000D03*
D12*
%TO.N,pinky_top*%
X3810000Y29500000D03*
D13*
%TO.P,D3,2*%
%TO.N,B1*%
X-3810000Y29500000D03*
%TD*%
D10*
%TO.P,S4,1*%
%TO.N,ring_bottom*%
X24000000Y16550000D03*
%TO.P,S4,2*%
%TO.N,C6*%
X19000000Y18650000D03*
%TD*%
D11*
%TO.P,D4,2*%
%TO.N,ring_bottom*%
X20650000Y8250000D03*
%TO.P,D4,1*%
%TO.N,B2*%
X17350000Y8250000D03*
D12*
%TO.N,ring_bottom*%
X22810000Y8250000D03*
D13*
%TO.P,D4,2*%
%TO.N,B2*%
X15190000Y8250000D03*
%TD*%
D10*
%TO.P,S5,1*%
%TO.N,ring_home*%
X24000000Y33550000D03*
%TO.P,S5,2*%
%TO.N,C6*%
X19000000Y35650000D03*
%TD*%
D11*
%TO.P,D5,2*%
%TO.N,ring_home*%
X20650000Y25250000D03*
%TO.P,D5,1*%
%TO.N,B3*%
X17350000Y25250000D03*
D12*
%TO.N,ring_home*%
X22810000Y25250000D03*
D13*
%TO.P,D5,2*%
%TO.N,B3*%
X15190000Y25250000D03*
%TD*%
D10*
%TO.P,S6,1*%
%TO.N,ring_top*%
X24000000Y50550000D03*
%TO.P,S6,2*%
%TO.N,C6*%
X19000000Y52650000D03*
%TD*%
D11*
%TO.P,D6,2*%
%TO.N,ring_top*%
X20650000Y42250000D03*
%TO.P,D6,1*%
%TO.N,B1*%
X17350000Y42250000D03*
D12*
%TO.N,ring_top*%
X22810000Y42250000D03*
D13*
%TO.P,D6,2*%
%TO.N,B1*%
X15190000Y42250000D03*
%TD*%
D10*
%TO.P,S7,1*%
%TO.N,middle_bottom*%
X43000000Y25050000D03*
%TO.P,S7,2*%
%TO.N,D7*%
X38000000Y27150000D03*
%TD*%
D11*
%TO.P,D7,2*%
%TO.N,middle_bottom*%
X39650000Y16750000D03*
%TO.P,D7,1*%
%TO.N,B2*%
X36350000Y16750000D03*
D12*
%TO.N,middle_bottom*%
X41810000Y16750000D03*
D13*
%TO.P,D7,2*%
%TO.N,B2*%
X34190000Y16750000D03*
%TD*%
D10*
%TO.P,S8,1*%
%TO.N,middle_home*%
X43000000Y42050000D03*
%TO.P,S8,2*%
%TO.N,D7*%
X38000000Y44150000D03*
%TD*%
D11*
%TO.P,D8,2*%
%TO.N,middle_home*%
X39650000Y33750000D03*
%TO.P,D8,1*%
%TO.N,B3*%
X36350000Y33750000D03*
D12*
%TO.N,middle_home*%
X41810000Y33750000D03*
D13*
%TO.P,D8,2*%
%TO.N,B3*%
X34190000Y33750000D03*
%TD*%
D10*
%TO.P,S9,1*%
%TO.N,middle_top*%
X43000000Y59050000D03*
%TO.P,S9,2*%
%TO.N,D7*%
X38000000Y61150000D03*
%TD*%
D11*
%TO.P,D9,2*%
%TO.N,middle_top*%
X39650000Y50750000D03*
%TO.P,D9,1*%
%TO.N,B1*%
X36350000Y50750000D03*
D12*
%TO.N,middle_top*%
X41810000Y50750000D03*
D13*
%TO.P,D9,2*%
%TO.N,B1*%
X34190000Y50750000D03*
%TD*%
D10*
%TO.P,S10,1*%
%TO.N,index_bottom*%
X62000000Y20800000D03*
%TO.P,S10,2*%
%TO.N,E6*%
X57000000Y22900000D03*
%TD*%
D11*
%TO.P,D10,2*%
%TO.N,index_bottom*%
X58650000Y12500000D03*
%TO.P,D10,1*%
%TO.N,B2*%
X55350000Y12500000D03*
D12*
%TO.N,index_bottom*%
X60810000Y12500000D03*
D13*
%TO.P,D10,2*%
%TO.N,B2*%
X53190000Y12500000D03*
%TD*%
D10*
%TO.P,S11,1*%
%TO.N,index_home*%
X62000000Y37800000D03*
%TO.P,S11,2*%
%TO.N,E6*%
X57000000Y39900000D03*
%TD*%
D11*
%TO.P,D11,2*%
%TO.N,index_home*%
X58650000Y29500000D03*
%TO.P,D11,1*%
%TO.N,B3*%
X55350000Y29500000D03*
D12*
%TO.N,index_home*%
X60810000Y29500000D03*
D13*
%TO.P,D11,2*%
%TO.N,B3*%
X53190000Y29500000D03*
%TD*%
D10*
%TO.P,S12,1*%
%TO.N,index_top*%
X62000000Y54800000D03*
%TO.P,S12,2*%
%TO.N,E6*%
X57000000Y56900000D03*
%TD*%
D11*
%TO.P,D12,2*%
%TO.N,index_top*%
X58650000Y46500000D03*
%TO.P,D12,1*%
%TO.N,B1*%
X55350000Y46500000D03*
D12*
%TO.N,index_top*%
X60810000Y46500000D03*
D13*
%TO.P,D12,2*%
%TO.N,B1*%
X53190000Y46500000D03*
%TD*%
D10*
%TO.P,S13,1*%
%TO.N,inner_bottom*%
X81000000Y16550000D03*
%TO.P,S13,2*%
%TO.N,B4*%
X76000000Y18650000D03*
%TD*%
D11*
%TO.P,D13,2*%
%TO.N,inner_bottom*%
X77650000Y8250000D03*
%TO.P,D13,1*%
%TO.N,B2*%
X74350000Y8250000D03*
D12*
%TO.N,inner_bottom*%
X79810000Y8250000D03*
D13*
%TO.P,D13,2*%
%TO.N,B2*%
X72190000Y8250000D03*
%TD*%
D10*
%TO.P,S14,1*%
%TO.N,inner_home*%
X81000000Y33550000D03*
%TO.P,S14,2*%
%TO.N,B4*%
X76000000Y35650000D03*
%TD*%
D11*
%TO.P,D14,2*%
%TO.N,inner_home*%
X77650000Y25250000D03*
%TO.P,D14,1*%
%TO.N,B3*%
X74350000Y25250000D03*
D12*
%TO.N,inner_home*%
X79810000Y25250000D03*
D13*
%TO.P,D14,2*%
%TO.N,B3*%
X72190000Y25250000D03*
%TD*%
D10*
%TO.P,S15,1*%
%TO.N,inner_top*%
X81000000Y50550000D03*
%TO.P,S15,2*%
%TO.N,B4*%
X76000000Y52650000D03*
%TD*%
D11*
%TO.P,D15,2*%
%TO.N,inner_top*%
X77650000Y42250000D03*
%TO.P,D15,1*%
%TO.N,B1*%
X74350000Y42250000D03*
D12*
%TO.N,inner_top*%
X79810000Y42250000D03*
D13*
%TO.P,D15,2*%
%TO.N,B1*%
X72190000Y42250000D03*
%TD*%
D10*
%TO.P,S16,1*%
%TO.N,outer_thumbs*%
X37750000Y-12300000D03*
%TO.P,S16,2*%
%TO.N,C6*%
X42750000Y-14400000D03*
%TD*%
D11*
%TO.P,D16,2*%
%TO.N,outer_thumbs*%
X41100000Y-4000000D03*
%TO.P,D16,1*%
%TO.N,B6*%
X44400000Y-4000000D03*
D12*
%TO.N,outer_thumbs*%
X38940000Y-4000000D03*
D13*
%TO.P,D16,2*%
%TO.N,B6*%
X46560000Y-4000000D03*
%TD*%
D10*
%TO.P,S17,1*%
%TO.N,middle1_thumbs*%
X57686622Y-12994365D03*
%TO.P,S17,2*%
%TO.N,D7*%
X62246000Y-15930702D03*
%TD*%
D14*
%TO.P,D17,2*%
%TO.N,middle1_thumbs*%
X62427007Y-5402182D03*
%TO.P,D17,1*%
%TO.N,B6*%
X65676873Y-5975220D03*
D12*
%TO.N,middle1_thumbs*%
X60299822Y-5027101D03*
D15*
%TO.P,D17,2*%
%TO.N,B6*%
X67804058Y-6350301D03*
%TD*%
D10*
%TO.P,S18,1*%
%TO.N,middle2_thumbs*%
X77199786Y-17140138D03*
%TO.P,S18,2*%
%TO.N,E6*%
X81180007Y-20823593D03*
%TD*%
D16*
%TO.P,D18,2*%
%TO.N,middle2_thumbs*%
X83186524Y-10486457D03*
%TO.P,D18,1*%
%TO.N,B6*%
X86287510Y-11615123D03*
D12*
%TO.N,middle2_thumbs*%
X81156788Y-9747693D03*
D17*
%TO.P,D18,2*%
%TO.N,B6*%
X88317246Y-12353887D03*
%TD*%
D10*
%TO.P,S19,1*%
%TO.N,inner_thumbs*%
X104619730Y-26986949D03*
%TO.P,S19,2*%
%TO.N,B4*%
X109207831Y-24095699D03*
%TD*%
D18*
%TO.P,D19,2*%
%TO.N,inner_thumbs*%
X99742248Y-19482105D03*
%TO.P,D19,1*%
%TO.N,B6*%
X101635050Y-16778903D03*
D12*
%TO.N,inner_thumbs*%
X98503323Y-21251473D03*
D19*
%TO.P,D19,2*%
%TO.N,B6*%
X102873975Y-15009535D03*
%TD*%
D10*
%TO.P,S20,1*%
%TO.N,mirror_pinky_bottom*%
X-16000000Y3800000D03*
%TO.P,S20,2*%
%TO.N,F6*%
X-21000000Y5900000D03*
%TD*%
D11*
%TO.P,D20,2*%
%TO.N,mirror_pinky_bottom*%
X-19350000Y-4500000D03*
%TO.P,D20,1*%
%TO.N,B4*%
X-22650000Y-4500000D03*
D12*
%TO.N,mirror_pinky_bottom*%
X-17190000Y-4500000D03*
D13*
%TO.P,D20,2*%
%TO.N,B4*%
X-24810000Y-4500000D03*
%TD*%
D10*
%TO.P,S21,1*%
%TO.N,mirror_pinky_home*%
X-16000000Y20800000D03*
%TO.P,S21,2*%
%TO.N,F6*%
X-21000000Y22900000D03*
%TD*%
D11*
%TO.P,D21,2*%
%TO.N,mirror_pinky_home*%
X-19350000Y12500000D03*
%TO.P,D21,1*%
%TO.N,E6*%
X-22650000Y12500000D03*
D12*
%TO.N,mirror_pinky_home*%
X-17190000Y12500000D03*
D13*
%TO.P,D21,2*%
%TO.N,E6*%
X-24810000Y12500000D03*
%TD*%
D10*
%TO.P,S22,1*%
%TO.N,mirror_pinky_top*%
X-16000000Y37800000D03*
%TO.P,S22,2*%
%TO.N,F6*%
X-21000000Y39900000D03*
%TD*%
D11*
%TO.P,D22,2*%
%TO.N,mirror_pinky_top*%
X-19350000Y29500000D03*
%TO.P,D22,1*%
%TO.N,D7*%
X-22650000Y29500000D03*
D12*
%TO.N,mirror_pinky_top*%
X-17190000Y29500000D03*
D13*
%TO.P,D22,2*%
%TO.N,D7*%
X-24810000Y29500000D03*
%TD*%
D10*
%TO.P,S23,1*%
%TO.N,mirror_ring_bottom*%
X-35000000Y16550000D03*
%TO.P,S23,2*%
%TO.N,F7*%
X-40000000Y18650000D03*
%TD*%
D11*
%TO.P,D23,2*%
%TO.N,mirror_ring_bottom*%
X-38350000Y8250000D03*
%TO.P,D23,1*%
%TO.N,B4*%
X-41650000Y8250000D03*
D12*
%TO.N,mirror_ring_bottom*%
X-36190000Y8250000D03*
D13*
%TO.P,D23,2*%
%TO.N,B4*%
X-43810000Y8250000D03*
%TD*%
D10*
%TO.P,S24,1*%
%TO.N,mirror_ring_home*%
X-35000000Y33550000D03*
%TO.P,S24,2*%
%TO.N,F7*%
X-40000000Y35650000D03*
%TD*%
D11*
%TO.P,D24,2*%
%TO.N,mirror_ring_home*%
X-38350000Y25250000D03*
%TO.P,D24,1*%
%TO.N,E6*%
X-41650000Y25250000D03*
D12*
%TO.N,mirror_ring_home*%
X-36190000Y25250000D03*
D13*
%TO.P,D24,2*%
%TO.N,E6*%
X-43810000Y25250000D03*
%TD*%
D10*
%TO.P,S25,1*%
%TO.N,mirror_ring_top*%
X-35000000Y50550000D03*
%TO.P,S25,2*%
%TO.N,F7*%
X-40000000Y52650000D03*
%TD*%
D11*
%TO.P,D25,2*%
%TO.N,mirror_ring_top*%
X-38350000Y42250000D03*
%TO.P,D25,1*%
%TO.N,D7*%
X-41650000Y42250000D03*
D12*
%TO.N,mirror_ring_top*%
X-36190000Y42250000D03*
D13*
%TO.P,D25,2*%
%TO.N,D7*%
X-43810000Y42250000D03*
%TD*%
D10*
%TO.P,S26,1*%
%TO.N,mirror_middle_bottom*%
X-54000000Y25050000D03*
%TO.P,S26,2*%
%TO.N,B1*%
X-59000000Y27150000D03*
%TD*%
D11*
%TO.P,D26,2*%
%TO.N,mirror_middle_bottom*%
X-57350000Y16750000D03*
%TO.P,D26,1*%
%TO.N,B4*%
X-60650000Y16750000D03*
D12*
%TO.N,mirror_middle_bottom*%
X-55190000Y16750000D03*
D13*
%TO.P,D26,2*%
%TO.N,B4*%
X-62810000Y16750000D03*
%TD*%
D10*
%TO.P,S27,1*%
%TO.N,mirror_middle_home*%
X-54000000Y42050000D03*
%TO.P,S27,2*%
%TO.N,B1*%
X-59000000Y44150000D03*
%TD*%
D11*
%TO.P,D27,2*%
%TO.N,mirror_middle_home*%
X-57350000Y33750000D03*
%TO.P,D27,1*%
%TO.N,E6*%
X-60650000Y33750000D03*
D12*
%TO.N,mirror_middle_home*%
X-55190000Y33750000D03*
D13*
%TO.P,D27,2*%
%TO.N,E6*%
X-62810000Y33750000D03*
%TD*%
D10*
%TO.P,S28,1*%
%TO.N,mirror_middle_top*%
X-54000000Y59050000D03*
%TO.P,S28,2*%
%TO.N,B1*%
X-59000000Y61150000D03*
%TD*%
D11*
%TO.P,D28,2*%
%TO.N,mirror_middle_top*%
X-57350000Y50750000D03*
%TO.P,D28,1*%
%TO.N,D7*%
X-60650000Y50750000D03*
D12*
%TO.N,mirror_middle_top*%
X-55190000Y50750000D03*
D13*
%TO.P,D28,2*%
%TO.N,D7*%
X-62810000Y50750000D03*
%TD*%
D10*
%TO.P,S29,1*%
%TO.N,mirror_index_bottom*%
X-73000000Y20800000D03*
%TO.P,S29,2*%
%TO.N,B3*%
X-78000000Y22900000D03*
%TD*%
D11*
%TO.P,D29,2*%
%TO.N,mirror_index_bottom*%
X-76350000Y12500000D03*
%TO.P,D29,1*%
%TO.N,B4*%
X-79650000Y12500000D03*
D12*
%TO.N,mirror_index_bottom*%
X-74190000Y12500000D03*
D13*
%TO.P,D29,2*%
%TO.N,B4*%
X-81810000Y12500000D03*
%TD*%
D10*
%TO.P,S30,1*%
%TO.N,mirror_index_home*%
X-73000000Y37800000D03*
%TO.P,S30,2*%
%TO.N,B3*%
X-78000000Y39900000D03*
%TD*%
D11*
%TO.P,D30,2*%
%TO.N,mirror_index_home*%
X-76350000Y29500000D03*
%TO.P,D30,1*%
%TO.N,E6*%
X-79650000Y29500000D03*
D12*
%TO.N,mirror_index_home*%
X-74190000Y29500000D03*
D13*
%TO.P,D30,2*%
%TO.N,E6*%
X-81810000Y29500000D03*
%TD*%
D10*
%TO.P,S31,1*%
%TO.N,mirror_index_top*%
X-73000000Y54800000D03*
%TO.P,S31,2*%
%TO.N,B3*%
X-78000000Y56900000D03*
%TD*%
D11*
%TO.P,D31,2*%
%TO.N,mirror_index_top*%
X-76350000Y46500000D03*
%TO.P,D31,1*%
%TO.N,D7*%
X-79650000Y46500000D03*
D12*
%TO.N,mirror_index_top*%
X-74190000Y46500000D03*
D13*
%TO.P,D31,2*%
%TO.N,D7*%
X-81810000Y46500000D03*
%TD*%
D10*
%TO.P,S32,1*%
%TO.N,mirror_inner_bottom*%
X-92000000Y16550000D03*
%TO.P,S32,2*%
%TO.N,B2*%
X-97000000Y18650000D03*
%TD*%
D11*
%TO.P,D32,2*%
%TO.N,mirror_inner_bottom*%
X-95350000Y8250000D03*
%TO.P,D32,1*%
%TO.N,B4*%
X-98650000Y8250000D03*
D12*
%TO.N,mirror_inner_bottom*%
X-93190000Y8250000D03*
D13*
%TO.P,D32,2*%
%TO.N,B4*%
X-100810000Y8250000D03*
%TD*%
D10*
%TO.P,S33,1*%
%TO.N,mirror_inner_home*%
X-92000000Y33550000D03*
%TO.P,S33,2*%
%TO.N,B2*%
X-97000000Y35650000D03*
%TD*%
D11*
%TO.P,D33,2*%
%TO.N,mirror_inner_home*%
X-95350000Y25250000D03*
%TO.P,D33,1*%
%TO.N,E6*%
X-98650000Y25250000D03*
D12*
%TO.N,mirror_inner_home*%
X-93190000Y25250000D03*
D13*
%TO.P,D33,2*%
%TO.N,E6*%
X-100810000Y25250000D03*
%TD*%
D10*
%TO.P,S34,1*%
%TO.N,mirror_inner_top*%
X-92000000Y50550000D03*
%TO.P,S34,2*%
%TO.N,B2*%
X-97000000Y52650000D03*
%TD*%
D11*
%TO.P,D34,2*%
%TO.N,mirror_inner_top*%
X-95350000Y42250000D03*
%TO.P,D34,1*%
%TO.N,D7*%
X-98650000Y42250000D03*
D12*
%TO.N,mirror_inner_top*%
X-93190000Y42250000D03*
D13*
%TO.P,D34,2*%
%TO.N,D7*%
X-100810000Y42250000D03*
%TD*%
D10*
%TO.P,S35,1*%
%TO.N,mirror_outer_thumbs*%
X-68750000Y-12300000D03*
%TO.P,S35,2*%
%TO.N,F7*%
X-63750000Y-14400000D03*
%TD*%
D11*
%TO.P,D35,2*%
%TO.N,mirror_outer_thumbs*%
X-65400000Y-4000000D03*
%TO.P,D35,1*%
%TO.N,B5*%
X-62100000Y-4000000D03*
D12*
%TO.N,mirror_outer_thumbs*%
X-67560000Y-4000000D03*
D13*
%TO.P,D35,2*%
%TO.N,B5*%
X-59940000Y-4000000D03*
%TD*%
D10*
%TO.P,S36,1*%
%TO.N,mirror_middle1_thumbs*%
X-88534700Y-14730846D03*
%TO.P,S36,2*%
%TO.N,B1*%
X-83246000Y-15930702D03*
%TD*%
D20*
%TO.P,D36,2*%
%TO.N,mirror_middle1_thumbs*%
X-86676873Y-5975220D03*
%TO.P,D36,1*%
%TO.N,B5*%
X-83427007Y-5402182D03*
D12*
%TO.N,mirror_middle1_thumbs*%
X-88804058Y-6350301D03*
D21*
%TO.P,D36,2*%
%TO.N,B5*%
X-81299822Y-5027101D03*
%TD*%
D10*
%TO.P,S37,1*%
%TO.N,mirror_middle2_thumbs*%
X-107596713Y-20560340D03*
%TO.P,S37,2*%
%TO.N,B3*%
X-102180007Y-20823593D03*
%TD*%
D22*
%TO.P,D37,2*%
%TO.N,mirror_middle2_thumbs*%
X-107287510Y-11615123D03*
%TO.P,D37,1*%
%TO.N,B5*%
X-104186524Y-10486457D03*
D12*
%TO.N,mirror_middle2_thumbs*%
X-109317246Y-12353887D03*
D23*
%TO.P,D37,2*%
%TO.N,B5*%
X-102156788Y-9747693D03*
%TD*%
D10*
%TO.P,S38,1*%
%TO.N,mirror_inner_thumbs*%
X-131355494Y-18795428D03*
%TO.P,S38,2*%
%TO.N,B2*%
X-130207831Y-24095699D03*
%TD*%
D24*
%TO.P,D38,2*%
%TO.N,mirror_inner_thumbs*%
X-122635050Y-16778903D03*
%TO.P,D38,1*%
%TO.N,B5*%
X-120742248Y-19482105D03*
D12*
%TO.N,mirror_inner_thumbs*%
X-123873975Y-15009535D03*
D25*
%TO.P,D38,2*%
%TO.N,B5*%
X-119503323Y-21251473D03*
%TD*%
D26*
%TO.P,MCU1,1*%
%TO.N,RAW*%
X102120000Y47720000D03*
D27*
%TO.P,MCU1,2*%
%TO.N,GND*%
X102120000Y45180000D03*
%TO.P,MCU1,3*%
%TO.N,RST*%
X102120000Y42640000D03*
%TO.P,MCU1,4*%
%TO.N,VCC*%
X102120000Y40100000D03*
%TO.P,MCU1,5*%
%TO.N,F4*%
X102120000Y37560000D03*
%TO.P,MCU1,6*%
%TO.N,F5*%
X102120000Y35020000D03*
%TO.P,MCU1,7*%
%TO.N,F6*%
X102120000Y32480000D03*
%TO.P,MCU1,8*%
%TO.N,F7*%
X102120000Y29940000D03*
%TO.P,MCU1,9*%
%TO.N,B1*%
X102120000Y27400000D03*
%TO.P,MCU1,10*%
%TO.N,B3*%
X102120000Y24860000D03*
%TO.P,MCU1,11*%
%TO.N,B2*%
X102120000Y22320000D03*
%TO.P,MCU1,12*%
%TO.N,B6*%
X102120000Y19780000D03*
%TO.P,MCU1,13*%
%TO.N,D3*%
X86880000Y47720000D03*
%TO.P,MCU1,14*%
%TO.N,D2*%
X86880000Y45180000D03*
%TO.P,MCU1,15*%
%TO.N,GND*%
X86880000Y42640000D03*
%TO.P,MCU1,16*%
X86880000Y40100000D03*
%TO.P,MCU1,17*%
%TO.N,D1*%
X86880000Y37560000D03*
%TO.P,MCU1,18*%
%TO.N,D0*%
X86880000Y35020000D03*
%TO.P,MCU1,19*%
%TO.N,D4*%
X86880000Y32480000D03*
%TO.P,MCU1,20*%
%TO.N,C6*%
X86880000Y29940000D03*
%TO.P,MCU1,21*%
%TO.N,D7*%
X86880000Y27400000D03*
%TO.P,MCU1,22*%
%TO.N,E6*%
X86880000Y24860000D03*
%TO.P,MCU1,23*%
%TO.N,B4*%
X86880000Y22320000D03*
%TO.P,MCU1,24*%
%TO.N,B5*%
X86880000Y19780000D03*
%TD*%
D26*
%TO.P,MCU2,1*%
%TO.N,RAW*%
X-107880000Y47720000D03*
D27*
%TO.P,MCU2,2*%
%TO.N,GND*%
X-107880000Y45180000D03*
%TO.P,MCU2,3*%
%TO.N,RST*%
X-107880000Y42640000D03*
%TO.P,MCU2,4*%
%TO.N,VCC*%
X-107880000Y40100000D03*
%TO.P,MCU2,5*%
%TO.N,F4*%
X-107880000Y37560000D03*
%TO.P,MCU2,6*%
%TO.N,F5*%
X-107880000Y35020000D03*
%TO.P,MCU2,7*%
%TO.N,F6*%
X-107880000Y32480000D03*
%TO.P,MCU2,8*%
%TO.N,F7*%
X-107880000Y29940000D03*
%TO.P,MCU2,9*%
%TO.N,B1*%
X-107880000Y27400000D03*
%TO.P,MCU2,10*%
%TO.N,B3*%
X-107880000Y24860000D03*
%TO.P,MCU2,11*%
%TO.N,B2*%
X-107880000Y22320000D03*
%TO.P,MCU2,12*%
%TO.N,B6*%
X-107880000Y19780000D03*
%TO.P,MCU2,13*%
%TO.N,D3*%
X-123120000Y47720000D03*
%TO.P,MCU2,14*%
%TO.N,D2*%
X-123120000Y45180000D03*
%TO.P,MCU2,15*%
%TO.N,GND*%
X-123120000Y42640000D03*
%TO.P,MCU2,16*%
X-123120000Y40100000D03*
%TO.P,MCU2,17*%
%TO.N,D1*%
X-123120000Y37560000D03*
%TO.P,MCU2,18*%
%TO.N,D0*%
X-123120000Y35020000D03*
%TO.P,MCU2,19*%
%TO.N,D4*%
X-123120000Y32480000D03*
%TO.P,MCU2,20*%
%TO.N,C6*%
X-123120000Y29940000D03*
%TO.P,MCU2,21*%
%TO.N,D7*%
X-123120000Y27400000D03*
%TO.P,MCU2,22*%
%TO.N,E6*%
X-123120000Y24860000D03*
%TO.P,MCU2,23*%
%TO.N,B4*%
X-123120000Y22320000D03*
%TO.P,MCU2,24*%
%TO.N,B5*%
X-123120000Y19780000D03*
%TD*%
D28*
%TO.P,REF\u002A\u002A,1*%
%TO.N,GND*%
X90700000Y13850000D03*
%TO.P,REF\u002A\u002A,2*%
X91800000Y9250000D03*
%TO.P,REF\u002A\u002A,3*%
%TO.N,D2*%
X95800000Y9250000D03*
%TO.P,REF\u002A\u002A,4*%
%TO.N,VCC*%
X98800000Y9250000D03*
%TD*%
%TO.P,REF\u002A\u002A,1*%
%TO.N,GND*%
X-111700000Y9150000D03*
%TO.P,REF\u002A\u002A,2*%
X-112800000Y13750000D03*
%TO.P,REF\u002A\u002A,3*%
%TO.N,D2*%
X-116800000Y13750000D03*
%TO.P,REF\u002A\u002A,4*%
%TO.N,VCC*%
X-119800000Y13750000D03*
%TD*%
D29*
%TO.P,OLED1,4*%
%TO.N,D1*%
X90680000Y16850000D03*
%TO.P,OLED1,3*%
%TO.N,D0*%
X93220000Y16850000D03*
%TO.P,OLED1,2*%
%TO.N,VCC*%
X95760000Y16850000D03*
D30*
%TO.P,OLED1,1*%
%TO.N,GND*%
X98300000Y16850000D03*
%TD*%
D29*
%TO.P,OLED2,4*%
%TO.N,D1*%
X-119320000Y16850000D03*
%TO.P,OLED2,3*%
%TO.N,D0*%
X-116780000Y16850000D03*
%TO.P,OLED2,2*%
%TO.N,VCC*%
X-114240000Y16850000D03*
D30*
%TO.P,OLED2,1*%
%TO.N,GND*%
X-111700000Y16850000D03*
%TD*%
D31*
%TO.P,,1*%
%TO.N,N/C*%
X47500000Y45800000D03*
X47500000Y7700000D03*
X28450000Y26750000D03*
X66550000Y26750000D03*
%TD*%
%TO.P,,1*%
%TO.N,N/C*%
X-68500000Y45800000D03*
X-68500000Y7700000D03*
X-87550000Y26750000D03*
X-49450000Y26750000D03*
%TD*%
D32*
%TO.N,B3*%
X15190000Y28807349D02*
X15190000Y25250000D01*
X34190000Y33750000D02*
X32840000Y35100000D01*
X32840000Y35100000D02*
X21482651Y35100000D01*
X21482651Y35100000D02*
X15190000Y28807349D01*
%TO.N,D2*%
X85700000Y12900000D02*
X85700000Y44000000D01*
X90400000Y8200000D02*
X85700000Y12900000D01*
X94750000Y8200000D02*
X90400000Y8200000D01*
X95800000Y9250000D02*
X94750000Y8200000D01*
X85700000Y44000000D02*
X86880000Y45180000D01*
%TO.N,VCC*%
X100900000Y15900000D02*
X100900000Y38880000D01*
X100900000Y38880000D02*
X102120000Y40100000D01*
X98810000Y13810000D02*
X100900000Y15900000D01*
X98810000Y13800000D02*
X98810000Y13810000D01*
X95760000Y16850000D02*
X98810000Y13800000D01*
X98800000Y13810000D02*
X95760000Y16850000D01*
X98800000Y9250000D02*
X98800000Y13810000D01*
X-109000000Y38980000D02*
X-107880000Y40100000D01*
X-109000000Y17500000D02*
X-109000000Y38980000D01*
X-110800000Y15700000D02*
X-109000000Y17500000D01*
X-113090000Y15700000D02*
X-110800000Y15700000D01*
X-114240000Y16850000D02*
X-113090000Y15700000D01*
%TO.N,GND*%
X-110008532Y16850000D02*
X-109253520Y17605012D01*
X-109253520Y17605012D02*
X-109253520Y43806480D01*
X-109253520Y43806480D02*
X-107880000Y45180000D01*
X-111700000Y16850000D02*
X-110008532Y16850000D01*
X100646480Y19196480D02*
X100646480Y43706480D01*
X100646480Y43706480D02*
X102120000Y45180000D01*
X98300000Y16850000D02*
X100646480Y19196480D01*
%TO.N,D0*%
X88000000Y33900000D02*
X86880000Y35020000D01*
X90200000Y15700000D02*
X88000000Y17900000D01*
X92070000Y15700000D02*
X90200000Y15700000D01*
X88000000Y17900000D02*
X88000000Y33900000D01*
X93220000Y16850000D02*
X92070000Y15700000D01*
%TO.N,D1*%
X88253520Y18105012D02*
X88253520Y36186480D01*
X89508532Y16850000D02*
X88253520Y18105012D01*
X90680000Y16850000D02*
X89508532Y16850000D01*
X88253520Y36186480D02*
X86880000Y37560000D01*
%TO.N,E6*%
X75700000Y-17800000D02*
X78723593Y-20823593D01*
X78723593Y-20823593D02*
X81180007Y-20823593D01*
X75700000Y-6500000D02*
X75700000Y-17800000D01*
X54972479Y20872479D02*
X54972479Y14227521D01*
X57000000Y22900000D02*
X54972479Y20872479D01*
X54972479Y14227521D02*
X75700000Y-6500000D01*
%TO.N,C6*%
X37600000Y-14400000D02*
X42750000Y-14400000D01*
X16972479Y10057543D02*
X36200000Y-9169978D01*
X16972479Y16622479D02*
X16972479Y10057543D01*
X36200000Y-13000000D02*
X37600000Y-14400000D01*
X19000000Y18650000D02*
X16972479Y16622479D01*
X36200000Y-9169978D02*
X36200000Y-13000000D01*
%TO.N,D7*%
X56100000Y-11200000D02*
X56100000Y-13700000D01*
X56100000Y-13700000D02*
X58330702Y-15930702D01*
X37900000Y7000000D02*
X56100000Y-11200000D01*
X37900000Y16600000D02*
X37900000Y7000000D01*
X35972479Y25122479D02*
X35972479Y18527521D01*
X35972479Y18527521D02*
X37900000Y16600000D01*
X38000000Y27150000D02*
X35972479Y25122479D01*
X58330702Y-15930702D02*
X62246000Y-15930702D01*
%TO.N,D4*%
X0Y29400000D02*
X0Y22900000D01*
X-2027521Y37872479D02*
X-2027521Y31427521D01*
X-2027521Y31427521D02*
X0Y29400000D01*
X0Y39900000D02*
X-2027521Y37872479D01*
%TO.N,B4*%
X105214662Y-18684077D02*
X109207831Y-22677246D01*
X76040011Y6359989D02*
X101084077Y-18684077D01*
X101084077Y-18684077D02*
X105214662Y-18684077D01*
X109207831Y-22677246D02*
X109207831Y-24095699D01*
X76040011Y8070033D02*
X76040011Y6359989D01*
X73972479Y16622479D02*
X73972479Y10137565D01*
X76000000Y18650000D02*
X73972479Y16622479D01*
X73972479Y10137565D02*
X76040011Y8070033D01*
X76000000Y25000000D02*
X76000000Y18650000D01*
X73972479Y33622479D02*
X73972479Y27027521D01*
X76000000Y35650000D02*
X73972479Y33622479D01*
X73972479Y27027521D02*
X76000000Y25000000D01*
X76000000Y42030022D02*
X76000000Y35650000D01*
X73972479Y44057543D02*
X76000000Y42030022D01*
X76000000Y52650000D02*
X73972479Y50622479D01*
X73972479Y50622479D02*
X73972479Y44057543D01*
%TO.N,E6*%
X57000000Y29200000D02*
X57000000Y22900000D01*
X54972479Y31227521D02*
X57000000Y29200000D01*
X54972479Y37872479D02*
X54972479Y31227521D01*
X57000000Y39900000D02*
X54972479Y37872479D01*
X57000000Y46280022D02*
X57000000Y39900000D01*
X54972479Y54872479D02*
X54972479Y48307543D01*
X54972479Y48307543D02*
X57000000Y46280022D01*
X57000000Y56900000D02*
X54972479Y54872479D01*
%TO.N,D7*%
X35972479Y35527521D02*
X38000000Y33500000D01*
X35972479Y42122479D02*
X35972479Y35527521D01*
X38000000Y44150000D02*
X35972479Y42122479D01*
X38000000Y33500000D02*
X38000000Y27150000D01*
X38000000Y50530022D02*
X38000000Y44150000D01*
X35972479Y52557543D02*
X38000000Y50530022D01*
X35972479Y59122479D02*
X35972479Y52557543D01*
X38000000Y61150000D02*
X35972479Y59122479D01*
%TO.N,C6*%
X19000000Y42030022D02*
X19000000Y35650000D01*
X16972479Y44057543D02*
X19000000Y42030022D01*
X16972479Y50622479D02*
X16972479Y44057543D01*
X19000000Y52650000D02*
X16972479Y50622479D01*
%TO.N,D4*%
X0Y12200000D02*
X0Y5900000D01*
X-2027521Y14227521D02*
X0Y12200000D01*
X-2027521Y20872479D02*
X-2027521Y14227521D01*
X0Y22900000D02*
X-2027521Y20872479D01*
%TO.N,middle2_thumbs*%
X80839924Y-13500000D02*
X80843212Y-13500000D01*
X81156788Y-13186424D02*
X81156788Y-9747693D01*
X77199786Y-17140138D02*
X80839924Y-13500000D01*
X80843212Y-13500000D02*
X81156788Y-13186424D01*
%TO.N,inner_thumbs*%
X104619730Y-25219183D02*
X100652020Y-21251473D01*
X104619730Y-26986949D02*
X104619730Y-25219183D01*
X100652020Y-21251473D02*
X98503323Y-21251473D01*
%TO.N,middle1_thumbs*%
X60299822Y-10381165D02*
X60299822Y-5027101D01*
X57686622Y-12994365D02*
X60299822Y-10381165D01*
%TO.N,outer_thumbs*%
X38940000Y-11110000D02*
X38940000Y-4000000D01*
X37750000Y-12300000D02*
X38940000Y-11110000D01*
%TO.N,inner_bottom*%
X79810000Y15360000D02*
X79810000Y8250000D01*
X81000000Y16550000D02*
X79810000Y15360000D01*
%TO.N,inner_home*%
X81000000Y33550000D02*
X79810000Y32360000D01*
X79810000Y32360000D02*
X79810000Y25250000D01*
%TO.N,inner_top*%
X79810000Y49360000D02*
X79810000Y42250000D01*
X81000000Y50550000D02*
X79810000Y49360000D01*
%TO.N,index_bottom*%
X60810000Y19610000D02*
X60810000Y12500000D01*
X62000000Y20800000D02*
X60810000Y19610000D01*
%TO.N,index_home*%
X60810000Y36610000D02*
X60810000Y29500000D01*
X62000000Y37800000D02*
X60810000Y36610000D01*
%TO.N,index_top*%
X60810000Y53610000D02*
X60810000Y46500000D01*
X62000000Y54800000D02*
X60810000Y53610000D01*
%TO.N,middle_bottom*%
X41810000Y23860000D02*
X41810000Y16750000D01*
X43000000Y25050000D02*
X41810000Y23860000D01*
%TO.N,middle_home*%
X41810000Y40860000D02*
X41810000Y33750000D01*
X43000000Y42050000D02*
X41810000Y40860000D01*
%TO.N,middle_top*%
X41810000Y57860000D02*
X41810000Y50750000D01*
X43000000Y59050000D02*
X41810000Y57860000D01*
%TO.N,ring_bottom*%
X22810000Y15360000D02*
X22810000Y8250000D01*
X24000000Y16550000D02*
X22810000Y15360000D01*
%TO.N,ring_home*%
X22810000Y32360000D02*
X22810000Y25250000D01*
X24000000Y33550000D02*
X22810000Y32360000D01*
%TO.N,ring_top*%
X24000000Y50550000D02*
X22810000Y49360000D01*
X22810000Y49360000D02*
X22810000Y42250000D01*
%TO.N,pinky_bottom*%
X3810000Y2610000D02*
X3810000Y-4500000D01*
X5000000Y3800000D02*
X3810000Y2610000D01*
%TO.N,pinky_home*%
X3810000Y19610000D02*
X3810000Y12500000D01*
X5000000Y20800000D02*
X3810000Y19610000D01*
%TO.N,pinky_top*%
X3810000Y36610000D02*
X3810000Y29500000D01*
X5000000Y37800000D02*
X3810000Y36610000D01*
%TO.N,B1*%
X-64000000Y32150000D02*
X-59000000Y27150000D01*
X-64000000Y37103966D02*
X-64000000Y32150000D01*
X-59000000Y42103966D02*
X-64000000Y37103966D01*
X-59000000Y44150000D02*
X-59000000Y42103966D01*
%TO.N,F7*%
X-45000000Y40650000D02*
X-40000000Y35650000D01*
X-45000000Y45603966D02*
X-45000000Y40650000D01*
X-40000000Y50603966D02*
X-45000000Y45603966D01*
X-40000000Y52650000D02*
X-40000000Y50603966D01*
%TO.N,inner_thumbs*%
X99742248Y-20012548D02*
X99742248Y-19482105D01*
X98503323Y-21251473D02*
X99742248Y-20012548D01*
%TO.N,B6*%
X101635050Y-16248460D02*
X101635050Y-16778903D01*
X102873975Y-15009535D02*
X101635050Y-16248460D01*
X87026274Y-12353887D02*
X88317246Y-12353887D01*
X86287510Y-11615123D02*
X87026274Y-12353887D01*
%TO.N,middle2_thumbs*%
X82447760Y-9747693D02*
X83186524Y-10486457D01*
X81156788Y-9747693D02*
X82447760Y-9747693D01*
%TO.N,B6*%
X67428977Y-5975220D02*
X67804058Y-6350301D01*
X65676873Y-5975220D02*
X67428977Y-5975220D01*
%TO.N,middle1_thumbs*%
X62051926Y-5027101D02*
X62427007Y-5402182D01*
X60299822Y-5027101D02*
X62051926Y-5027101D01*
%TO.N,B6*%
X44400000Y-4000000D02*
X46560000Y-4000000D01*
%TO.N,outer_thumbs*%
X38940000Y-4000000D02*
X41100000Y-4000000D01*
%TO.N,inner_bottom*%
X77650000Y8250000D02*
X79810000Y8250000D01*
%TO.N,B2*%
X72190000Y8250000D02*
X74350000Y8250000D01*
%TO.N,B3*%
X74350000Y25250000D02*
X72190000Y25250000D01*
%TO.N,inner_home*%
X79810000Y25250000D02*
X77650000Y25250000D01*
%TO.N,inner_top*%
X77650000Y42250000D02*
X79810000Y42250000D01*
%TO.N,B1*%
X72190000Y42250000D02*
X74350000Y42250000D01*
%TO.N,index_top*%
X58650000Y46500000D02*
X60810000Y46500000D01*
%TO.N,B1*%
X53190000Y46500000D02*
X55350000Y46500000D01*
%TO.N,B3*%
X55350000Y29500000D02*
X53190000Y29500000D01*
%TO.N,index_home*%
X60810000Y29500000D02*
X58650000Y29500000D01*
%TO.N,index_bottom*%
X58650000Y12500000D02*
X60810000Y12500000D01*
%TO.N,B2*%
X53190000Y12500000D02*
X55350000Y12500000D01*
%TO.N,middle_bottom*%
X39650000Y16750000D02*
X41810000Y16750000D01*
%TO.N,B2*%
X34190000Y16750000D02*
X36350000Y16750000D01*
%TO.N,B3*%
X36350000Y33750000D02*
X34190000Y33750000D01*
%TO.N,middle_home*%
X41810000Y33750000D02*
X39650000Y33750000D01*
%TO.N,middle_top*%
X39650000Y50750000D02*
X41810000Y50750000D01*
%TO.N,B1*%
X34190000Y50750000D02*
X36350000Y50750000D01*
X17350000Y42250000D02*
X15190000Y42250000D01*
%TO.N,ring_top*%
X22810000Y42250000D02*
X20650000Y42250000D01*
%TO.N,ring_home*%
X22810000Y25250000D02*
X20650000Y25250000D01*
%TO.N,B3*%
X17350000Y25250000D02*
X15190000Y25250000D01*
%TO.N,ring_bottom*%
X20650000Y8250000D02*
X22810000Y8250000D01*
%TO.N,B2*%
X15190000Y8250000D02*
X17350000Y8250000D01*
%TO.N,pinky_bottom*%
X1650000Y-4500000D02*
X3810000Y-4500000D01*
%TO.N,B2*%
X-3810000Y-4500000D02*
X-1650000Y-4500000D01*
%TO.N,B3*%
X-1650000Y12500000D02*
X-3810000Y12500000D01*
%TO.N,pinky_home*%
X3810000Y12500000D02*
X1650000Y12500000D01*
%TO.N,pinky_top*%
X1650000Y29500000D02*
X3810000Y29500000D01*
%TO.N,B1*%
X-3810000Y29500000D02*
X-1650000Y29500000D01*
%TO.N,F6*%
X-23027521Y14307543D02*
X-21000000Y12280022D01*
X-23027521Y20872479D02*
X-23027521Y14307543D01*
X-21000000Y12280022D02*
X-21000000Y5900000D01*
X-21000000Y22900000D02*
X-23027521Y20872479D01*
X-23027521Y31227521D02*
X-21000000Y29200000D01*
X-23027521Y37872479D02*
X-23027521Y31227521D01*
X-21000000Y39900000D02*
X-23027521Y37872479D01*
X-21000000Y29200000D02*
X-21000000Y22900000D01*
%TO.N,F7*%
X-61800000Y-14400000D02*
X-63750000Y-14400000D01*
X-40000000Y7400000D02*
X-61800000Y-14400000D01*
X-42730989Y11487033D02*
X-40000000Y8756044D01*
X-42730989Y17686777D02*
X-42730989Y11487033D01*
X-41767766Y18650000D02*
X-42730989Y17686777D01*
X-40000000Y18650000D02*
X-41767766Y18650000D01*
X-40000000Y8756044D02*
X-40000000Y7400000D01*
%TO.N,B1*%
X-81300000Y-13984702D02*
X-83246000Y-15930702D01*
X-59100000Y16630022D02*
X-59100000Y13720013D01*
X-61027521Y18557543D02*
X-59100000Y16630022D01*
X-61027521Y25122479D02*
X-61027521Y18557543D01*
X-59000000Y27150000D02*
X-61027521Y25122479D01*
X-59100000Y13720013D02*
X-81300000Y-8479987D01*
X-81300000Y-8479987D02*
X-81300000Y-13984702D01*
%TO.N,B3*%
X-101700000Y-13400000D02*
X-101700000Y-20343586D01*
X-78000000Y12280022D02*
X-78000000Y10300000D01*
X-78000000Y10300000D02*
X-101700000Y-13400000D01*
X-101700000Y-20343586D02*
X-102180007Y-20823593D01*
X-80027521Y14307543D02*
X-78000000Y12280022D01*
X-80027521Y20872479D02*
X-80027521Y14307543D01*
X-78000000Y22900000D02*
X-80027521Y20872479D01*
%TO.N,B2*%
X-130203530Y-24100000D02*
X-130207831Y-24095699D01*
X-125200000Y-24100000D02*
X-130203530Y-24100000D01*
X-122300000Y-18800000D02*
X-122300000Y-21200000D01*
X-97000000Y8030022D02*
X-97000000Y6500000D01*
X-97000000Y6500000D02*
X-122300000Y-18800000D01*
X-99027521Y16622479D02*
X-99027521Y10057543D01*
X-122300000Y-21200000D02*
X-125200000Y-24100000D01*
X-97000000Y18650000D02*
X-99027521Y16622479D01*
X-99027521Y10057543D02*
X-97000000Y8030022D01*
%TO.N,F7*%
X-42027521Y33622479D02*
X-42027521Y27057543D01*
X-40000000Y25030022D02*
X-40000000Y18650000D01*
X-40000000Y35650000D02*
X-42027521Y33622479D01*
X-42027521Y27057543D02*
X-40000000Y25030022D01*
%TO.N,B1*%
X-61027521Y52527521D02*
X-59000000Y50500000D01*
X-61027521Y59122479D02*
X-61027521Y52527521D01*
X-59000000Y50500000D02*
X-59000000Y44150000D01*
X-59000000Y61150000D02*
X-61027521Y59122479D01*
%TO.N,B3*%
X-80027521Y31307543D02*
X-78000000Y29280022D01*
X-78000000Y29280022D02*
X-78000000Y22900000D01*
X-80027521Y37872479D02*
X-80027521Y31307543D01*
X-78000000Y39900000D02*
X-80027521Y37872479D01*
X-78000000Y46280022D02*
X-78000000Y39900000D01*
X-80027521Y54872479D02*
X-80027521Y48307543D01*
X-80027521Y48307543D02*
X-78000000Y46280022D01*
X-78000000Y56900000D02*
X-80027521Y54872479D01*
%TO.N,B2*%
X-99027521Y27057543D02*
X-97000000Y25030022D01*
X-99027521Y33622479D02*
X-99027521Y27057543D01*
X-97000000Y25030022D02*
X-97000000Y18650000D01*
X-97000000Y35650000D02*
X-99027521Y33622479D01*
X-97000000Y42000000D02*
X-97000000Y35650000D01*
X-99027521Y50622479D02*
X-99027521Y44027521D01*
X-99027521Y44027521D02*
X-97000000Y42000000D01*
X-97000000Y52650000D02*
X-99027521Y50622479D01*
%TO.N,E6*%
X-79650000Y29500000D02*
X-81810000Y29500000D01*
%TO.N,mirror_index_home*%
X-74190000Y29500000D02*
X-76350000Y29500000D01*
%TO.N,mirror_middle_bottom*%
X-57350000Y16750000D02*
X-55190000Y16750000D01*
%TO.N,B4*%
X-62810000Y16750000D02*
X-60650000Y16750000D01*
%TO.N,mirror_index_bottom*%
X-76350000Y12500000D02*
X-74190000Y12500000D01*
%TO.N,B4*%
X-81810000Y12500000D02*
X-79650000Y12500000D01*
X-98650000Y8250000D02*
X-100810000Y8250000D01*
%TO.N,mirror_inner_bottom*%
X-93190000Y8250000D02*
X-95350000Y8250000D01*
%TO.N,mirror_inner_home*%
X-95350000Y25250000D02*
X-93190000Y25250000D01*
%TO.N,E6*%
X-100810000Y25250000D02*
X-98650000Y25250000D01*
%TO.N,D7*%
X-98650000Y42250000D02*
X-100810000Y42250000D01*
%TO.N,mirror_inner_top*%
X-93190000Y42250000D02*
X-95350000Y42250000D01*
%TO.N,D7*%
X-79650000Y46500000D02*
X-81810000Y46500000D01*
%TO.N,mirror_index_top*%
X-74190000Y46500000D02*
X-76350000Y46500000D01*
%TO.N,D7*%
X-60650000Y50750000D02*
X-62810000Y50750000D01*
%TO.N,mirror_middle_top*%
X-55190000Y50750000D02*
X-57350000Y50750000D01*
%TO.N,E6*%
X-60650000Y33750000D02*
X-62810000Y33750000D01*
%TO.N,mirror_middle_home*%
X-55190000Y33750000D02*
X-57350000Y33750000D01*
%TO.N,D7*%
X-41650000Y42250000D02*
X-43810000Y42250000D01*
%TO.N,mirror_ring_top*%
X-36190000Y42250000D02*
X-38350000Y42250000D01*
%TO.N,E6*%
X-41650000Y25250000D02*
X-43810000Y25250000D01*
%TO.N,mirror_ring_home*%
X-36190000Y25250000D02*
X-38350000Y25250000D01*
%TO.N,B4*%
X-41650000Y8250000D02*
X-43810000Y8250000D01*
%TO.N,mirror_ring_bottom*%
X-36190000Y8250000D02*
X-38350000Y8250000D01*
%TO.N,mirror_pinky_top*%
X-19350000Y29500000D02*
X-17190000Y29500000D01*
%TO.N,D7*%
X-24810000Y29500000D02*
X-22650000Y29500000D01*
%TO.N,E6*%
X-22650000Y12500000D02*
X-24810000Y12500000D01*
%TO.N,mirror_pinky_home*%
X-17190000Y12500000D02*
X-19350000Y12500000D01*
%TO.N,mirror_pinky_bottom*%
X-19350000Y-4500000D02*
X-17190000Y-4500000D01*
%TO.N,B4*%
X-24810000Y-4500000D02*
X-22650000Y-4500000D01*
%TO.N,B5*%
X-59940000Y-4000000D02*
X-62100000Y-4000000D01*
%TO.N,mirror_outer_thumbs*%
X-65400000Y-4000000D02*
X-67560000Y-4000000D01*
%TO.N,B5*%
X-83051926Y-5027101D02*
X-83427007Y-5402182D01*
X-81299822Y-5027101D02*
X-83051926Y-5027101D01*
%TO.N,mirror_middle1_thumbs*%
X-88804058Y-6350301D02*
X-87051954Y-6350301D01*
X-87051954Y-6350301D02*
X-86676873Y-5975220D01*
%TO.N,B5*%
X-102895552Y-10486457D02*
X-104186524Y-10486457D01*
X-102156788Y-9747693D02*
X-102895552Y-10486457D01*
%TO.N,mirror_middle2_thumbs*%
X-108026274Y-12353887D02*
X-107287510Y-11615123D01*
X-109317246Y-12353887D02*
X-108026274Y-12353887D01*
%TO.N,B5*%
X-120742248Y-20012548D02*
X-120742248Y-19482105D01*
X-119503323Y-21251473D02*
X-120742248Y-20012548D01*
%TO.N,mirror_inner_thumbs*%
X-123873975Y-15539978D02*
X-123873975Y-15009535D01*
X-122635050Y-16778903D02*
X-123873975Y-15539978D01*
X-131355494Y-18795428D02*
X-127659868Y-18795428D01*
X-127659868Y-18795428D02*
X-123873975Y-15009535D01*
%TO.N,mirror_middle2_thumbs*%
X-107596713Y-14074420D02*
X-109317246Y-12353887D01*
X-107596713Y-20560340D02*
X-107596713Y-14074420D01*
%TO.N,mirror_middle1_thumbs*%
X-87284701Y-7869658D02*
X-88804058Y-6350301D01*
X-87284701Y-13480847D02*
X-87284701Y-7869658D01*
X-88534700Y-14730846D02*
X-87284701Y-13480847D01*
%TO.N,mirror_outer_thumbs*%
X-67560000Y-11110000D02*
X-67560000Y-4000000D01*
X-68750000Y-12300000D02*
X-67560000Y-11110000D01*
%TO.N,mirror_inner_bottom*%
X-93190000Y15360000D02*
X-93190000Y8250000D01*
X-92000000Y16550000D02*
X-93190000Y15360000D01*
%TO.N,mirror_index_bottom*%
X-74190000Y19610000D02*
X-74190000Y12500000D01*
X-73000000Y20800000D02*
X-74190000Y19610000D01*
%TO.N,mirror_middle_bottom*%
X-55190000Y23860000D02*
X-55190000Y16750000D01*
X-54000000Y25050000D02*
X-55190000Y23860000D01*
%TO.N,mirror_ring_bottom*%
X-35000000Y16550000D02*
X-36190000Y15360000D01*
X-36190000Y15360000D02*
X-36190000Y8250000D01*
%TO.N,mirror_pinky_bottom*%
X-16000000Y3800000D02*
X-17190000Y2610000D01*
X-17190000Y2610000D02*
X-17190000Y-4500000D01*
%TO.N,mirror_pinky_home*%
X-17190000Y19610000D02*
X-17190000Y12500000D01*
X-16000000Y20800000D02*
X-17190000Y19610000D01*
%TO.N,mirror_ring_home*%
X-36190000Y32360000D02*
X-36190000Y25250000D01*
X-35000000Y33550000D02*
X-36190000Y32360000D01*
%TO.N,mirror_middle_home*%
X-55190000Y40860000D02*
X-55190000Y33750000D01*
X-54000000Y42050000D02*
X-55190000Y40860000D01*
%TO.N,mirror_index_home*%
X-74190000Y36610000D02*
X-74190000Y29500000D01*
X-73000000Y37800000D02*
X-74190000Y36610000D01*
%TO.N,mirror_inner_home*%
X-93190000Y32360000D02*
X-93190000Y25250000D01*
X-92000000Y33550000D02*
X-93190000Y32360000D01*
%TO.N,mirror_pinky_top*%
X-17190000Y36610000D02*
X-17190000Y29500000D01*
X-16000000Y37800000D02*
X-17190000Y36610000D01*
%TO.N,mirror_ring_top*%
X-36190000Y49360000D02*
X-36190000Y42250000D01*
X-35000000Y50550000D02*
X-36190000Y49360000D01*
%TO.N,mirror_middle_top*%
X-55190000Y57860000D02*
X-55190000Y50750000D01*
X-54000000Y59050000D02*
X-55190000Y57860000D01*
%TO.N,mirror_index_top*%
X-74190000Y53610000D02*
X-74190000Y46500000D01*
X-73000000Y54800000D02*
X-74190000Y53610000D01*
%TO.N,mirror_inner_top*%
X-92000000Y50550000D02*
X-93190000Y49360000D01*
X-93190000Y49360000D02*
X-93190000Y42250000D01*
%TO.N,E6*%
X-61560000Y32500000D02*
X-62810000Y33750000D01*
X-43810000Y25250000D02*
X-51060000Y32500000D01*
X-51060000Y32500000D02*
X-61560000Y32500000D01*
%TO.N,D7*%
X-42560000Y41000000D02*
X-43810000Y42250000D01*
X-31853966Y41000000D02*
X-42560000Y41000000D01*
X-24810000Y33956034D02*
X-31853966Y41000000D01*
X-24810000Y29500000D02*
X-24810000Y33956034D01*
%TO.N,D1*%
X-121646480Y17905012D02*
X-121646480Y36086480D01*
X-121646480Y36086480D02*
X-123120000Y37560000D01*
X-120591468Y16850000D02*
X-121646480Y17905012D01*
X-119320000Y16850000D02*
X-120591468Y16850000D01*
%TO.N,D0*%
X-121900000Y17800000D02*
X-121900000Y33800000D01*
X-119800000Y15700000D02*
X-121900000Y17800000D01*
X-117930000Y15700000D02*
X-119800000Y15700000D01*
X-121900000Y33800000D02*
X-123120000Y35020000D01*
X-116780000Y16850000D02*
X-117930000Y15700000D01*
%TD*%
M02*
