M48
; DRILL file {KiCad (6.0.4)} date Mon Jul  4 17:42:59 2022
; FORMAT={-:-/ absolute / inch / decimal}
; #@! TF.CreationDate,2022-07-04T17:42:59-04:00
; #@! TF.GenerationSoftware,Kicad,Pcbnew,(6.0.4)
; #@! TF.FileFunction,NonPlated,1,2,NPTH
FMAT,2
INCH
; #@! TA.AperFunction,NonPlated,NPTH,ComponentDrill
T1C0.0310
; #@! TA.AperFunction,NonPlated,NPTH,ComponentDrill
T2C0.0591
; #@! TA.AperFunction,NonPlated,NPTH,ComponentDrill
T3C0.0670
; #@! TA.AperFunction,NonPlated,NPTH,ComponentDrill
T4C0.1350
%
G90
G05
T1
X-0.4428Y1.4386
X-0.4428Y1.3886
X-0.4428Y1.3386
X-0.4428Y1.2886
X-0.4428Y1.2386
X-0.4428Y0.7693
X-0.4428Y0.7193
X-0.4428Y0.6693
X-0.4428Y0.6193
X-0.4428Y0.5693
X-0.4428Y0.1
X-0.4428Y0.05
X-0.4428Y0.0
X-0.4428Y-0.05
X-0.4428Y-0.1
X-0.384Y1.4386
X-0.384Y1.3886
X-0.384Y1.3386
X-0.384Y1.2886
X-0.384Y1.2386
X-0.384Y0.7693
X-0.384Y0.7193
X-0.384Y0.6693
X-0.384Y0.6193
X-0.384Y0.5693
X-0.384Y0.1
X-0.384Y0.05
X-0.384Y0.0
X-0.384Y-0.05
X-0.384Y-0.1
T2
X-4.7795Y0.4508
X-4.5039Y0.4508
X3.6772Y0.4547
X3.9528Y0.4547
T3
X-5.0602Y-0.638
X-4.8118Y-0.9928
X-4.3058Y-0.6756
X-4.0354Y1.8406
X-4.0354Y1.1713
X-4.0354Y0.502
X-3.8988Y-0.5275
X-3.6024Y1.8406
X-3.6024Y1.1713
X-3.6024Y0.502
X-3.531Y-0.436
X-3.2874Y2.0079
X-3.2874Y1.3386
X-3.2874Y0.6693
X-3.1045Y-0.3608
X-2.8543Y2.0079
X-2.8543Y1.3386
X-2.8543Y0.6693
X-2.7264Y-0.3346
X-2.5394Y2.1752
X-2.5394Y1.5059
X-2.5394Y0.8366
X-2.2933Y-0.3346
X-2.1063Y2.1752
X-2.1063Y1.5059
X-2.1063Y0.8366
X-1.7913Y1.8406
X-1.7913Y1.1713
X-1.7913Y0.502
X-1.3583Y1.8406
X-1.3583Y1.1713
X-1.3583Y0.502
X-1.0433Y1.3386
X-1.0433Y0.6693
X-1.0433Y0.0
X-0.6102Y1.3386
X-0.6102Y0.6693
X-0.6102Y0.0
X-0.2165Y1.3386
X-0.2165Y0.6693
X-0.2165Y0.0
X0.2165Y1.3386
X0.2165Y0.6693
X0.2165Y0.0
X0.5315Y1.8406
X0.5315Y1.1713
X0.5315Y0.502
X0.9646Y1.8406
X0.9646Y1.1713
X0.9646Y0.502
X1.2795Y2.1752
X1.2795Y1.5059
X1.2795Y0.8366
X1.4665Y-0.3346
X1.7126Y2.1752
X1.7126Y1.5059
X1.7126Y0.8366
X1.8996Y-0.3346
X2.0276Y2.0079
X2.0276Y1.3386
X2.0276Y0.6693
X2.2777Y-0.3608
X2.4606Y2.0079
X2.4606Y1.3386
X2.4606Y0.6693
X2.7042Y-0.436
X2.7756Y1.8406
X2.7756Y1.1713
X2.7756Y0.502
X3.072Y-0.5275
X3.2087Y1.8406
X3.2087Y1.1713
X3.2087Y0.502
X3.479Y-0.6756
X3.985Y-0.9928
X4.2334Y-0.638
T4
X-4.936Y-0.8154
X-4.1023Y-0.6016
X-3.8189Y1.8406
X-3.8189Y1.1713
X-3.8189Y0.502
X-3.3177Y-0.3984
X-3.0709Y2.0079
X-3.0709Y1.3386
X-3.0709Y0.6693
X-2.5098Y-0.3346
X-2.3228Y2.1752
X-2.3228Y1.5059
X-2.3228Y0.8366
X-1.5748Y1.8406
X-1.5748Y1.1713
X-1.5748Y0.502
X-0.8268Y1.3386
X-0.8268Y0.6693
X-0.8268Y0.0
X0.0Y1.3386
X0.0Y0.6693
X0.0Y0.0
X0.748Y1.8406
X0.748Y1.1713
X0.748Y0.502
X1.4961Y2.1752
X1.4961Y1.5059
X1.4961Y0.8366
X1.6831Y-0.3346
X2.2441Y2.0079
X2.2441Y1.3386
X2.2441Y0.6693
X2.491Y-0.3984
X2.9921Y1.8406
X2.9921Y1.1713
X2.9921Y0.502
X3.2755Y-0.6016
X4.1092Y-0.8154
T0
M30
