%TF.GenerationSoftware,KiCad,Pcbnew,(6.0.4)*%
%TF.CreationDate,2022-07-04T17:43:03-04:00*%
%TF.ProjectId,glitch,676c6974-6368-42e6-9b69-6361645f7063,v1.0.0*%
%TF.SameCoordinates,Original*%
%TF.FileFunction,Copper,L1,Top*%
%TF.FilePolarity,Positive*%
%FSLAX46Y46*%
G04 Gerber Fmt 4.6, Leading zero omitted, Abs format (unit mm)*
G04 Created by KiCad (PCBNEW (6.0.4)) date 2022-07-04 17:43:03*
%MOMM*%
%LPD*%
G01*
G04 APERTURE LIST*
G04 Aperture macros list*
%AMRotRect*
0 Rectangle, with rotation*
0 The origin of the aperture is its center*
0 $1 length*
0 $2 width*
0 $3 Rotation angle, in degrees counterclockwise*
0 Add horizontal line*
21,1,$1,$2,0,0,$3*%
G04 Aperture macros list end*
%TA.AperFunction,ComponentPad*%
%ADD10C,2.500000*%
%TD*%
%TA.AperFunction,SMDPad,CuDef*%
%ADD11R,0.900000X1.200000*%
%TD*%
%TA.AperFunction,ComponentPad*%
%ADD12C,1.905000*%
%TD*%
%TA.AperFunction,ComponentPad*%
%ADD13R,1.778000X1.778000*%
%TD*%
%TA.AperFunction,SMDPad,CuDef*%
%ADD14RotRect,0.900000X1.200000X170.000000*%
%TD*%
%TA.AperFunction,ComponentPad*%
%ADD15RotRect,1.778000X1.778000X170.000000*%
%TD*%
%TA.AperFunction,SMDPad,CuDef*%
%ADD16RotRect,0.900000X1.200000X160.000000*%
%TD*%
%TA.AperFunction,ComponentPad*%
%ADD17RotRect,1.778000X1.778000X160.000000*%
%TD*%
%TA.AperFunction,SMDPad,CuDef*%
%ADD18RotRect,0.900000X1.200000X235.000000*%
%TD*%
%TA.AperFunction,ComponentPad*%
%ADD19RotRect,1.778000X1.778000X235.000000*%
%TD*%
%TA.AperFunction,SMDPad,CuDef*%
%ADD20RotRect,0.900000X1.200000X190.000000*%
%TD*%
%TA.AperFunction,ComponentPad*%
%ADD21RotRect,1.778000X1.778000X190.000000*%
%TD*%
%TA.AperFunction,SMDPad,CuDef*%
%ADD22RotRect,0.900000X1.200000X200.000000*%
%TD*%
%TA.AperFunction,ComponentPad*%
%ADD23RotRect,1.778000X1.778000X200.000000*%
%TD*%
%TA.AperFunction,SMDPad,CuDef*%
%ADD24RotRect,0.900000X1.200000X125.000000*%
%TD*%
%TA.AperFunction,ComponentPad*%
%ADD25RotRect,1.778000X1.778000X125.000000*%
%TD*%
%TA.AperFunction,ComponentPad*%
%ADD26R,1.752600X1.752600*%
%TD*%
%TA.AperFunction,ComponentPad*%
%ADD27C,1.752600*%
%TD*%
%TA.AperFunction,ComponentPad*%
%ADD28O,2.200000X1.600000*%
%TD*%
%TA.AperFunction,ComponentPad*%
%ADD29O,1.700000X1.700000*%
%TD*%
%TA.AperFunction,ComponentPad*%
%ADD30R,1.700000X1.700000*%
%TD*%
%TA.AperFunction,ComponentPad*%
%ADD31C,4.400000*%
%TD*%
%TA.AperFunction,Conductor*%
%ADD32C,0.127000*%
%TD*%
G04 APERTURE END LIST*
D10*
%TO.P,S1,1*%
%TO.N,pinky_bottom*%
X5000000Y3800000D03*
%TO.P,S1,2*%
%TO.N,D4*%
X0Y5900000D03*
%TD*%
D11*
%TO.P,D1,1*%
%TO.N,B2*%
X-1650000Y-4500000D03*
%TO.P,D1,2*%
%TO.N,pinky_bottom*%
X1650000Y-4500000D03*
D12*
%TO.P,D1,1*%
X3810000Y-4500000D03*
D13*
%TO.P,D1,2*%
%TO.N,B2*%
X-3810000Y-4500000D03*
%TD*%
D10*
%TO.P,S2,1*%
%TO.N,pinky_home*%
X5000000Y20800000D03*
%TO.P,S2,2*%
%TO.N,D4*%
X0Y22900000D03*
%TD*%
D11*
%TO.P,D2,1*%
%TO.N,B3*%
X-1650000Y12500000D03*
%TO.P,D2,2*%
%TO.N,pinky_home*%
X1650000Y12500000D03*
D12*
%TO.P,D2,1*%
X3810000Y12500000D03*
D13*
%TO.P,D2,2*%
%TO.N,B3*%
X-3810000Y12500000D03*
%TD*%
D10*
%TO.P,S3,1*%
%TO.N,pinky_top*%
X5000000Y37800000D03*
%TO.P,S3,2*%
%TO.N,D4*%
X0Y39900000D03*
%TD*%
D11*
%TO.P,D3,1*%
%TO.N,B1*%
X-1650000Y29500000D03*
%TO.P,D3,2*%
%TO.N,pinky_top*%
X1650000Y29500000D03*
D12*
%TO.P,D3,1*%
X3810000Y29500000D03*
D13*
%TO.P,D3,2*%
%TO.N,B1*%
X-3810000Y29500000D03*
%TD*%
D10*
%TO.P,S4,1*%
%TO.N,ring_bottom*%
X24000000Y16550000D03*
%TO.P,S4,2*%
%TO.N,C6*%
X19000000Y18650000D03*
%TD*%
D11*
%TO.P,D4,1*%
%TO.N,B2*%
X17350000Y8250000D03*
%TO.P,D4,2*%
%TO.N,ring_bottom*%
X20650000Y8250000D03*
D12*
%TO.P,D4,1*%
X22810000Y8250000D03*
D13*
%TO.P,D4,2*%
%TO.N,B2*%
X15190000Y8250000D03*
%TD*%
D10*
%TO.P,S5,1*%
%TO.N,ring_home*%
X24000000Y33550000D03*
%TO.P,S5,2*%
%TO.N,C6*%
X19000000Y35650000D03*
%TD*%
D11*
%TO.P,D5,1*%
%TO.N,B3*%
X17350000Y25250000D03*
%TO.P,D5,2*%
%TO.N,ring_home*%
X20650000Y25250000D03*
D12*
%TO.P,D5,1*%
X22810000Y25250000D03*
D13*
%TO.P,D5,2*%
%TO.N,B3*%
X15190000Y25250000D03*
%TD*%
D10*
%TO.P,S6,1*%
%TO.N,ring_top*%
X24000000Y50550000D03*
%TO.P,S6,2*%
%TO.N,C6*%
X19000000Y52650000D03*
%TD*%
D11*
%TO.P,D6,1*%
%TO.N,B1*%
X17350000Y42250000D03*
%TO.P,D6,2*%
%TO.N,ring_top*%
X20650000Y42250000D03*
D12*
%TO.P,D6,1*%
X22810000Y42250000D03*
D13*
%TO.P,D6,2*%
%TO.N,B1*%
X15190000Y42250000D03*
%TD*%
D10*
%TO.P,S7,1*%
%TO.N,middle_bottom*%
X43000000Y25050000D03*
%TO.P,S7,2*%
%TO.N,D7*%
X38000000Y27150000D03*
%TD*%
D11*
%TO.P,D7,1*%
%TO.N,B2*%
X36350000Y16750000D03*
%TO.P,D7,2*%
%TO.N,middle_bottom*%
X39650000Y16750000D03*
D12*
%TO.P,D7,1*%
X41810000Y16750000D03*
D13*
%TO.P,D7,2*%
%TO.N,B2*%
X34190000Y16750000D03*
%TD*%
D10*
%TO.P,S8,1*%
%TO.N,middle_home*%
X43000000Y42050000D03*
%TO.P,S8,2*%
%TO.N,D7*%
X38000000Y44150000D03*
%TD*%
D11*
%TO.P,D8,1*%
%TO.N,B3*%
X36350000Y33750000D03*
%TO.P,D8,2*%
%TO.N,middle_home*%
X39650000Y33750000D03*
D12*
%TO.P,D8,1*%
X41810000Y33750000D03*
D13*
%TO.P,D8,2*%
%TO.N,B3*%
X34190000Y33750000D03*
%TD*%
D10*
%TO.P,S9,1*%
%TO.N,middle_top*%
X43000000Y59050000D03*
%TO.P,S9,2*%
%TO.N,D7*%
X38000000Y61150000D03*
%TD*%
D11*
%TO.P,D9,1*%
%TO.N,B1*%
X36350000Y50750000D03*
%TO.P,D9,2*%
%TO.N,middle_top*%
X39650000Y50750000D03*
D12*
%TO.P,D9,1*%
X41810000Y50750000D03*
D13*
%TO.P,D9,2*%
%TO.N,B1*%
X34190000Y50750000D03*
%TD*%
D10*
%TO.P,S10,1*%
%TO.N,index_bottom*%
X62000000Y20800000D03*
%TO.P,S10,2*%
%TO.N,E6*%
X57000000Y22900000D03*
%TD*%
D11*
%TO.P,D10,1*%
%TO.N,B2*%
X55350000Y12500000D03*
%TO.P,D10,2*%
%TO.N,index_bottom*%
X58650000Y12500000D03*
D12*
%TO.P,D10,1*%
X60810000Y12500000D03*
D13*
%TO.P,D10,2*%
%TO.N,B2*%
X53190000Y12500000D03*
%TD*%
D10*
%TO.P,S11,1*%
%TO.N,index_home*%
X62000000Y37800000D03*
%TO.P,S11,2*%
%TO.N,E6*%
X57000000Y39900000D03*
%TD*%
D11*
%TO.P,D11,1*%
%TO.N,B3*%
X55350000Y29500000D03*
%TO.P,D11,2*%
%TO.N,index_home*%
X58650000Y29500000D03*
D12*
%TO.P,D11,1*%
X60810000Y29500000D03*
D13*
%TO.P,D11,2*%
%TO.N,B3*%
X53190000Y29500000D03*
%TD*%
D10*
%TO.P,S12,1*%
%TO.N,index_top*%
X62000000Y54800000D03*
%TO.P,S12,2*%
%TO.N,E6*%
X57000000Y56900000D03*
%TD*%
D11*
%TO.P,D12,1*%
%TO.N,B1*%
X55350000Y46500000D03*
%TO.P,D12,2*%
%TO.N,index_top*%
X58650000Y46500000D03*
D12*
%TO.P,D12,1*%
X60810000Y46500000D03*
D13*
%TO.P,D12,2*%
%TO.N,B1*%
X53190000Y46500000D03*
%TD*%
D10*
%TO.P,S13,1*%
%TO.N,inner_bottom*%
X81000000Y16550000D03*
%TO.P,S13,2*%
%TO.N,B4*%
X76000000Y18650000D03*
%TD*%
D11*
%TO.P,D13,1*%
%TO.N,B2*%
X74350000Y8250000D03*
%TO.P,D13,2*%
%TO.N,inner_bottom*%
X77650000Y8250000D03*
D12*
%TO.P,D13,1*%
X79810000Y8250000D03*
D13*
%TO.P,D13,2*%
%TO.N,B2*%
X72190000Y8250000D03*
%TD*%
D10*
%TO.P,S14,1*%
%TO.N,inner_home*%
X81000000Y33550000D03*
%TO.P,S14,2*%
%TO.N,B4*%
X76000000Y35650000D03*
%TD*%
D11*
%TO.P,D14,1*%
%TO.N,B3*%
X74350000Y25250000D03*
%TO.P,D14,2*%
%TO.N,inner_home*%
X77650000Y25250000D03*
D12*
%TO.P,D14,1*%
X79810000Y25250000D03*
D13*
%TO.P,D14,2*%
%TO.N,B3*%
X72190000Y25250000D03*
%TD*%
D10*
%TO.P,S15,1*%
%TO.N,inner_top*%
X81000000Y50550000D03*
%TO.P,S15,2*%
%TO.N,B4*%
X76000000Y52650000D03*
%TD*%
D11*
%TO.P,D15,1*%
%TO.N,B1*%
X74350000Y42250000D03*
%TO.P,D15,2*%
%TO.N,inner_top*%
X77650000Y42250000D03*
D12*
%TO.P,D15,1*%
X79810000Y42250000D03*
D13*
%TO.P,D15,2*%
%TO.N,B1*%
X72190000Y42250000D03*
%TD*%
D10*
%TO.P,S16,1*%
%TO.N,outer_thumbs*%
X37750000Y-12300000D03*
%TO.P,S16,2*%
%TO.N,C6*%
X42750000Y-14400000D03*
%TD*%
D11*
%TO.P,D16,1*%
%TO.N,B6*%
X44400000Y-4000000D03*
%TO.P,D16,2*%
%TO.N,outer_thumbs*%
X41100000Y-4000000D03*
D12*
%TO.P,D16,1*%
X38940000Y-4000000D03*
D13*
%TO.P,D16,2*%
%TO.N,B6*%
X46560000Y-4000000D03*
%TD*%
D10*
%TO.P,S17,1*%
%TO.N,middle1_thumbs*%
X57686622Y-12994365D03*
%TO.P,S17,2*%
%TO.N,D7*%
X62246000Y-15930702D03*
%TD*%
D14*
%TO.P,D17,1*%
%TO.N,B6*%
X65676873Y-5975220D03*
%TO.P,D17,2*%
%TO.N,middle1_thumbs*%
X62427007Y-5402182D03*
D12*
%TO.P,D17,1*%
X60299822Y-5027101D03*
D15*
%TO.P,D17,2*%
%TO.N,B6*%
X67804058Y-6350301D03*
%TD*%
D10*
%TO.P,S18,1*%
%TO.N,middle2_thumbs*%
X77199786Y-17140138D03*
%TO.P,S18,2*%
%TO.N,E6*%
X81180007Y-20823593D03*
%TD*%
D16*
%TO.P,D18,1*%
%TO.N,B6*%
X86287510Y-11615123D03*
%TO.P,D18,2*%
%TO.N,middle2_thumbs*%
X83186524Y-10486457D03*
D12*
%TO.P,D18,1*%
X81156788Y-9747693D03*
D17*
%TO.P,D18,2*%
%TO.N,B6*%
X88317246Y-12353887D03*
%TD*%
D10*
%TO.P,S19,1*%
%TO.N,inner_thumbs*%
X104619730Y-26986949D03*
%TO.P,S19,2*%
%TO.N,B4*%
X109207831Y-24095699D03*
%TD*%
D18*
%TO.P,D19,1*%
%TO.N,B6*%
X101635050Y-16778903D03*
%TO.P,D19,2*%
%TO.N,inner_thumbs*%
X99742248Y-19482105D03*
D12*
%TO.P,D19,1*%
X98503323Y-21251473D03*
D19*
%TO.P,D19,2*%
%TO.N,B6*%
X102873975Y-15009535D03*
%TD*%
D10*
%TO.P,S20,1*%
%TO.N,mirror_pinky_bottom*%
X-16000000Y3800000D03*
%TO.P,S20,2*%
%TO.N,F6*%
X-21000000Y5900000D03*
%TD*%
D11*
%TO.P,D20,1*%
%TO.N,B4*%
X-22650000Y-4500000D03*
%TO.P,D20,2*%
%TO.N,mirror_pinky_bottom*%
X-19350000Y-4500000D03*
D12*
%TO.P,D20,1*%
X-17190000Y-4500000D03*
D13*
%TO.P,D20,2*%
%TO.N,B4*%
X-24810000Y-4500000D03*
%TD*%
D10*
%TO.P,S21,1*%
%TO.N,mirror_pinky_home*%
X-16000000Y20800000D03*
%TO.P,S21,2*%
%TO.N,F6*%
X-21000000Y22900000D03*
%TD*%
D11*
%TO.P,D21,1*%
%TO.N,E6*%
X-22650000Y12500000D03*
%TO.P,D21,2*%
%TO.N,mirror_pinky_home*%
X-19350000Y12500000D03*
D12*
%TO.P,D21,1*%
X-17190000Y12500000D03*
D13*
%TO.P,D21,2*%
%TO.N,E6*%
X-24810000Y12500000D03*
%TD*%
D10*
%TO.P,S22,1*%
%TO.N,mirror_pinky_top*%
X-16000000Y37800000D03*
%TO.P,S22,2*%
%TO.N,F6*%
X-21000000Y39900000D03*
%TD*%
D11*
%TO.P,D22,1*%
%TO.N,D7*%
X-22650000Y29500000D03*
%TO.P,D22,2*%
%TO.N,mirror_pinky_top*%
X-19350000Y29500000D03*
D12*
%TO.P,D22,1*%
X-17190000Y29500000D03*
D13*
%TO.P,D22,2*%
%TO.N,D7*%
X-24810000Y29500000D03*
%TD*%
D10*
%TO.P,S23,1*%
%TO.N,mirror_ring_bottom*%
X-35000000Y16550000D03*
%TO.P,S23,2*%
%TO.N,F7*%
X-40000000Y18650000D03*
%TD*%
D11*
%TO.P,D23,1*%
%TO.N,B4*%
X-41650000Y8250000D03*
%TO.P,D23,2*%
%TO.N,mirror_ring_bottom*%
X-38350000Y8250000D03*
D12*
%TO.P,D23,1*%
X-36190000Y8250000D03*
D13*
%TO.P,D23,2*%
%TO.N,B4*%
X-43810000Y8250000D03*
%TD*%
D10*
%TO.P,S24,1*%
%TO.N,mirror_ring_home*%
X-35000000Y33550000D03*
%TO.P,S24,2*%
%TO.N,F7*%
X-40000000Y35650000D03*
%TD*%
D11*
%TO.P,D24,1*%
%TO.N,E6*%
X-41650000Y25250000D03*
%TO.P,D24,2*%
%TO.N,mirror_ring_home*%
X-38350000Y25250000D03*
D12*
%TO.P,D24,1*%
X-36190000Y25250000D03*
D13*
%TO.P,D24,2*%
%TO.N,E6*%
X-43810000Y25250000D03*
%TD*%
D10*
%TO.P,S25,1*%
%TO.N,mirror_ring_top*%
X-35000000Y50550000D03*
%TO.P,S25,2*%
%TO.N,F7*%
X-40000000Y52650000D03*
%TD*%
D11*
%TO.P,D25,1*%
%TO.N,D7*%
X-41650000Y42250000D03*
%TO.P,D25,2*%
%TO.N,mirror_ring_top*%
X-38350000Y42250000D03*
D12*
%TO.P,D25,1*%
X-36190000Y42250000D03*
D13*
%TO.P,D25,2*%
%TO.N,D7*%
X-43810000Y42250000D03*
%TD*%
D10*
%TO.P,S26,1*%
%TO.N,mirror_middle_bottom*%
X-54000000Y25050000D03*
%TO.P,S26,2*%
%TO.N,B1*%
X-59000000Y27150000D03*
%TD*%
D11*
%TO.P,D26,1*%
%TO.N,B4*%
X-60650000Y16750000D03*
%TO.P,D26,2*%
%TO.N,mirror_middle_bottom*%
X-57350000Y16750000D03*
D12*
%TO.P,D26,1*%
X-55190000Y16750000D03*
D13*
%TO.P,D26,2*%
%TO.N,B4*%
X-62810000Y16750000D03*
%TD*%
D10*
%TO.P,S27,1*%
%TO.N,mirror_middle_home*%
X-54000000Y42050000D03*
%TO.P,S27,2*%
%TO.N,B1*%
X-59000000Y44150000D03*
%TD*%
D11*
%TO.P,D27,1*%
%TO.N,E6*%
X-60650000Y33750000D03*
%TO.P,D27,2*%
%TO.N,mirror_middle_home*%
X-57350000Y33750000D03*
D12*
%TO.P,D27,1*%
X-55190000Y33750000D03*
D13*
%TO.P,D27,2*%
%TO.N,E6*%
X-62810000Y33750000D03*
%TD*%
D10*
%TO.P,S28,1*%
%TO.N,mirror_middle_top*%
X-54000000Y59050000D03*
%TO.P,S28,2*%
%TO.N,B1*%
X-59000000Y61150000D03*
%TD*%
D11*
%TO.P,D28,1*%
%TO.N,D7*%
X-60650000Y50750000D03*
%TO.P,D28,2*%
%TO.N,mirror_middle_top*%
X-57350000Y50750000D03*
D12*
%TO.P,D28,1*%
X-55190000Y50750000D03*
D13*
%TO.P,D28,2*%
%TO.N,D7*%
X-62810000Y50750000D03*
%TD*%
D10*
%TO.P,S29,1*%
%TO.N,mirror_index_bottom*%
X-73000000Y20800000D03*
%TO.P,S29,2*%
%TO.N,B3*%
X-78000000Y22900000D03*
%TD*%
D11*
%TO.P,D29,1*%
%TO.N,B4*%
X-79650000Y12500000D03*
%TO.P,D29,2*%
%TO.N,mirror_index_bottom*%
X-76350000Y12500000D03*
D12*
%TO.P,D29,1*%
X-74190000Y12500000D03*
D13*
%TO.P,D29,2*%
%TO.N,B4*%
X-81810000Y12500000D03*
%TD*%
D10*
%TO.P,S30,1*%
%TO.N,mirror_index_home*%
X-73000000Y37800000D03*
%TO.P,S30,2*%
%TO.N,B3*%
X-78000000Y39900000D03*
%TD*%
D11*
%TO.P,D30,1*%
%TO.N,E6*%
X-79650000Y29500000D03*
%TO.P,D30,2*%
%TO.N,mirror_index_home*%
X-76350000Y29500000D03*
D12*
%TO.P,D30,1*%
X-74190000Y29500000D03*
D13*
%TO.P,D30,2*%
%TO.N,E6*%
X-81810000Y29500000D03*
%TD*%
D10*
%TO.P,S31,1*%
%TO.N,mirror_index_top*%
X-73000000Y54800000D03*
%TO.P,S31,2*%
%TO.N,B3*%
X-78000000Y56900000D03*
%TD*%
D11*
%TO.P,D31,1*%
%TO.N,D7*%
X-79650000Y46500000D03*
%TO.P,D31,2*%
%TO.N,mirror_index_top*%
X-76350000Y46500000D03*
D12*
%TO.P,D31,1*%
X-74190000Y46500000D03*
D13*
%TO.P,D31,2*%
%TO.N,D7*%
X-81810000Y46500000D03*
%TD*%
D10*
%TO.P,S32,1*%
%TO.N,mirror_inner_bottom*%
X-92000000Y16550000D03*
%TO.P,S32,2*%
%TO.N,B2*%
X-97000000Y18650000D03*
%TD*%
D11*
%TO.P,D32,1*%
%TO.N,B4*%
X-98650000Y8250000D03*
%TO.P,D32,2*%
%TO.N,mirror_inner_bottom*%
X-95350000Y8250000D03*
D12*
%TO.P,D32,1*%
X-93190000Y8250000D03*
D13*
%TO.P,D32,2*%
%TO.N,B4*%
X-100810000Y8250000D03*
%TD*%
D10*
%TO.P,S33,1*%
%TO.N,mirror_inner_home*%
X-92000000Y33550000D03*
%TO.P,S33,2*%
%TO.N,B2*%
X-97000000Y35650000D03*
%TD*%
D11*
%TO.P,D33,1*%
%TO.N,E6*%
X-98650000Y25250000D03*
%TO.P,D33,2*%
%TO.N,mirror_inner_home*%
X-95350000Y25250000D03*
D12*
%TO.P,D33,1*%
X-93190000Y25250000D03*
D13*
%TO.P,D33,2*%
%TO.N,E6*%
X-100810000Y25250000D03*
%TD*%
D10*
%TO.P,S34,1*%
%TO.N,mirror_inner_top*%
X-92000000Y50550000D03*
%TO.P,S34,2*%
%TO.N,B2*%
X-97000000Y52650000D03*
%TD*%
D11*
%TO.P,D34,1*%
%TO.N,D7*%
X-98650000Y42250000D03*
%TO.P,D34,2*%
%TO.N,mirror_inner_top*%
X-95350000Y42250000D03*
D12*
%TO.P,D34,1*%
X-93190000Y42250000D03*
D13*
%TO.P,D34,2*%
%TO.N,D7*%
X-100810000Y42250000D03*
%TD*%
D10*
%TO.P,S35,1*%
%TO.N,mirror_outer_thumbs*%
X-68750000Y-12300000D03*
%TO.P,S35,2*%
%TO.N,F7*%
X-63750000Y-14400000D03*
%TD*%
D11*
%TO.P,D35,1*%
%TO.N,B5*%
X-62100000Y-4000000D03*
%TO.P,D35,2*%
%TO.N,mirror_outer_thumbs*%
X-65400000Y-4000000D03*
D12*
%TO.P,D35,1*%
X-67560000Y-4000000D03*
D13*
%TO.P,D35,2*%
%TO.N,B5*%
X-59940000Y-4000000D03*
%TD*%
D10*
%TO.P,S36,1*%
%TO.N,mirror_middle1_thumbs*%
X-88534700Y-14730846D03*
%TO.P,S36,2*%
%TO.N,B1*%
X-83246000Y-15930702D03*
%TD*%
D20*
%TO.P,D36,1*%
%TO.N,B5*%
X-83427007Y-5402182D03*
%TO.P,D36,2*%
%TO.N,mirror_middle1_thumbs*%
X-86676873Y-5975220D03*
D12*
%TO.P,D36,1*%
X-88804058Y-6350301D03*
D21*
%TO.P,D36,2*%
%TO.N,B5*%
X-81299822Y-5027101D03*
%TD*%
D10*
%TO.P,S37,1*%
%TO.N,mirror_middle2_thumbs*%
X-107596713Y-20560340D03*
%TO.P,S37,2*%
%TO.N,B3*%
X-102180007Y-20823593D03*
%TD*%
D22*
%TO.P,D37,1*%
%TO.N,B5*%
X-104186524Y-10486457D03*
%TO.P,D37,2*%
%TO.N,mirror_middle2_thumbs*%
X-107287510Y-11615123D03*
D12*
%TO.P,D37,1*%
X-109317246Y-12353887D03*
D23*
%TO.P,D37,2*%
%TO.N,B5*%
X-102156788Y-9747693D03*
%TD*%
D10*
%TO.P,S38,1*%
%TO.N,mirror_inner_thumbs*%
X-131355494Y-18795428D03*
%TO.P,S38,2*%
%TO.N,B2*%
X-130207831Y-24095699D03*
%TD*%
D24*
%TO.P,D38,1*%
%TO.N,B5*%
X-120742248Y-19482105D03*
%TO.P,D38,2*%
%TO.N,mirror_inner_thumbs*%
X-122635050Y-16778903D03*
D12*
%TO.P,D38,1*%
X-123873975Y-15009535D03*
D25*
%TO.P,D38,2*%
%TO.N,B5*%
X-119503323Y-21251473D03*
%TD*%
D26*
%TO.P,MCU1,1*%
%TO.N,RAW*%
X102120000Y47720000D03*
D27*
%TO.P,MCU1,2*%
%TO.N,GND*%
X102120000Y45180000D03*
%TO.P,MCU1,3*%
%TO.N,RST*%
X102120000Y42640000D03*
%TO.P,MCU1,4*%
%TO.N,VCC*%
X102120000Y40100000D03*
%TO.P,MCU1,5*%
%TO.N,F4*%
X102120000Y37560000D03*
%TO.P,MCU1,6*%
%TO.N,F5*%
X102120000Y35020000D03*
%TO.P,MCU1,7*%
%TO.N,F6*%
X102120000Y32480000D03*
%TO.P,MCU1,8*%
%TO.N,F7*%
X102120000Y29940000D03*
%TO.P,MCU1,9*%
%TO.N,B1*%
X102120000Y27400000D03*
%TO.P,MCU1,10*%
%TO.N,B3*%
X102120000Y24860000D03*
%TO.P,MCU1,11*%
%TO.N,B2*%
X102120000Y22320000D03*
%TO.P,MCU1,12*%
%TO.N,B6*%
X102120000Y19780000D03*
%TO.P,MCU1,13*%
%TO.N,D3*%
X86880000Y47720000D03*
%TO.P,MCU1,14*%
%TO.N,D2*%
X86880000Y45180000D03*
%TO.P,MCU1,15*%
%TO.N,GND*%
X86880000Y42640000D03*
%TO.P,MCU1,16*%
X86880000Y40100000D03*
%TO.P,MCU1,17*%
%TO.N,D1*%
X86880000Y37560000D03*
%TO.P,MCU1,18*%
%TO.N,D0*%
X86880000Y35020000D03*
%TO.P,MCU1,19*%
%TO.N,D4*%
X86880000Y32480000D03*
%TO.P,MCU1,20*%
%TO.N,C6*%
X86880000Y29940000D03*
%TO.P,MCU1,21*%
%TO.N,D7*%
X86880000Y27400000D03*
%TO.P,MCU1,22*%
%TO.N,E6*%
X86880000Y24860000D03*
%TO.P,MCU1,23*%
%TO.N,B4*%
X86880000Y22320000D03*
%TO.P,MCU1,24*%
%TO.N,B5*%
X86880000Y19780000D03*
%TD*%
D26*
%TO.P,MCU2,1*%
%TO.N,RAW*%
X-107880000Y47720000D03*
D27*
%TO.P,MCU2,2*%
%TO.N,GND*%
X-107880000Y45180000D03*
%TO.P,MCU2,3*%
%TO.N,RST*%
X-107880000Y42640000D03*
%TO.P,MCU2,4*%
%TO.N,VCC*%
X-107880000Y40100000D03*
%TO.P,MCU2,5*%
%TO.N,F4*%
X-107880000Y37560000D03*
%TO.P,MCU2,6*%
%TO.N,F5*%
X-107880000Y35020000D03*
%TO.P,MCU2,7*%
%TO.N,F6*%
X-107880000Y32480000D03*
%TO.P,MCU2,8*%
%TO.N,F7*%
X-107880000Y29940000D03*
%TO.P,MCU2,9*%
%TO.N,B1*%
X-107880000Y27400000D03*
%TO.P,MCU2,10*%
%TO.N,B3*%
X-107880000Y24860000D03*
%TO.P,MCU2,11*%
%TO.N,B2*%
X-107880000Y22320000D03*
%TO.P,MCU2,12*%
%TO.N,B6*%
X-107880000Y19780000D03*
%TO.P,MCU2,13*%
%TO.N,D3*%
X-123120000Y47720000D03*
%TO.P,MCU2,14*%
%TO.N,D2*%
X-123120000Y45180000D03*
%TO.P,MCU2,15*%
%TO.N,GND*%
X-123120000Y42640000D03*
%TO.P,MCU2,16*%
X-123120000Y40100000D03*
%TO.P,MCU2,17*%
%TO.N,D1*%
X-123120000Y37560000D03*
%TO.P,MCU2,18*%
%TO.N,D0*%
X-123120000Y35020000D03*
%TO.P,MCU2,19*%
%TO.N,D4*%
X-123120000Y32480000D03*
%TO.P,MCU2,20*%
%TO.N,C6*%
X-123120000Y29940000D03*
%TO.P,MCU2,21*%
%TO.N,D7*%
X-123120000Y27400000D03*
%TO.P,MCU2,22*%
%TO.N,E6*%
X-123120000Y24860000D03*
%TO.P,MCU2,23*%
%TO.N,B4*%
X-123120000Y22320000D03*
%TO.P,MCU2,24*%
%TO.N,B5*%
X-123120000Y19780000D03*
%TD*%
D28*
%TO.P,REF\u002A\u002A,1*%
%TO.N,GND*%
X90700000Y13850000D03*
%TO.P,REF\u002A\u002A,2*%
X91800000Y9250000D03*
%TO.P,REF\u002A\u002A,3*%
%TO.N,D2*%
X95800000Y9250000D03*
%TO.P,REF\u002A\u002A,4*%
%TO.N,VCC*%
X98800000Y9250000D03*
%TD*%
%TO.P,REF\u002A\u002A,1*%
%TO.N,GND*%
X-111700000Y9150000D03*
%TO.P,REF\u002A\u002A,2*%
X-112800000Y13750000D03*
%TO.P,REF\u002A\u002A,3*%
%TO.N,D2*%
X-116800000Y13750000D03*
%TO.P,REF\u002A\u002A,4*%
%TO.N,VCC*%
X-119800000Y13750000D03*
%TD*%
D29*
%TO.P,OLED1,4*%
%TO.N,D1*%
X90680000Y16850000D03*
%TO.P,OLED1,3*%
%TO.N,D0*%
X93220000Y16850000D03*
%TO.P,OLED1,2*%
%TO.N,VCC*%
X95760000Y16850000D03*
D30*
%TO.P,OLED1,1*%
%TO.N,GND*%
X98300000Y16850000D03*
%TD*%
D29*
%TO.P,OLED2,4*%
%TO.N,D1*%
X-119320000Y16850000D03*
%TO.P,OLED2,3*%
%TO.N,D0*%
X-116780000Y16850000D03*
%TO.P,OLED2,2*%
%TO.N,VCC*%
X-114240000Y16850000D03*
D30*
%TO.P,OLED2,1*%
%TO.N,GND*%
X-111700000Y16850000D03*
%TD*%
D31*
%TO.P,,1*%
%TO.N,N/C*%
X47500000Y45800000D03*
X47500000Y7700000D03*
X28450000Y26750000D03*
X66550000Y26750000D03*
%TD*%
%TO.P,,1*%
%TO.N,N/C*%
X-68500000Y45800000D03*
X-68500000Y7700000D03*
X-87550000Y26750000D03*
X-49450000Y26750000D03*
%TD*%
D32*
%TO.N,B3*%
X53575596Y29500000D02*
X53190000Y29500000D01*
X59461516Y23614080D02*
X53575596Y29500000D01*
X70554080Y23614080D02*
X59461516Y23614080D01*
X72190000Y25250000D02*
X70554080Y23614080D01*
%TO.N,D4*%
X85185920Y30785920D02*
X86880000Y32480000D01*
X85185920Y23744452D02*
X85185920Y30785920D01*
X84802028Y23360560D02*
X85185920Y23744452D01*
X59356504Y23360560D02*
X84802028Y23360560D01*
X55060024Y27657040D02*
X59356504Y23360560D01*
X38805012Y28953520D02*
X40101492Y27657040D01*
X21046480Y36153520D02*
X24446480Y36153520D01*
X24446480Y36153520D02*
X31646480Y28953520D01*
X40101492Y27657040D02*
X55060024Y27657040D01*
X17300000Y39900000D02*
X21046480Y36153520D01*
X0Y39900000D02*
X17300000Y39900000D01*
X31646480Y28953520D02*
X38805012Y28953520D01*
%TO.N,C6*%
X85439440Y28499440D02*
X86880000Y29940000D01*
X85439440Y23639440D02*
X85439440Y28499440D01*
X84907040Y23107040D02*
X85439440Y23639440D01*
X59251492Y23107040D02*
X84907040Y23107040D01*
X31500000Y28700000D02*
X38700000Y28700000D01*
X24300000Y35900000D02*
X31500000Y28700000D01*
X38700000Y28700000D02*
X39996481Y27403520D01*
X19250000Y35900000D02*
X24300000Y35900000D01*
X39996481Y27403520D02*
X54955012Y27403520D01*
X54955012Y27403520D02*
X59251492Y23107040D01*
X19000000Y35650000D02*
X19250000Y35900000D01*
%TO.N,D7*%
X85692960Y26212960D02*
X86880000Y27400000D01*
X85692960Y23534428D02*
X85692960Y26212960D01*
X59146480Y22853520D02*
X85012052Y22853520D01*
X85012052Y22853520D02*
X85692960Y23534428D01*
X38000000Y27150000D02*
X54850000Y27150000D01*
X54850000Y27150000D02*
X59146480Y22853520D01*
%TO.N,E6*%
X85117064Y22600000D02*
X86880000Y24362936D01*
X57300000Y22600000D02*
X85117064Y22600000D01*
X86880000Y24362936D02*
X86880000Y24860000D01*
X57000000Y22900000D02*
X57300000Y22600000D01*
%TO.N,B1*%
X16440000Y43500000D02*
X15190000Y42250000D01*
X26940000Y43500000D02*
X16440000Y43500000D01*
X34190000Y50750000D02*
X26940000Y43500000D01*
%TO.N,B2*%
X23600000Y9500000D02*
X16400000Y9500000D01*
X30850000Y16750000D02*
X23600000Y9500000D01*
X34190000Y16750000D02*
X30850000Y16750000D01*
X16400000Y9500000D02*
X15190000Y8290000D01*
X15190000Y8290000D02*
X15190000Y8250000D01*
%TO.N,B3*%
X40206504Y27910560D02*
X34367064Y33750000D01*
X51600560Y27910560D02*
X40206504Y27910560D01*
X34367064Y33750000D02*
X34190000Y33750000D01*
X53190000Y29500000D02*
X51600560Y27910560D01*
%TO.N,B2*%
X100500000Y18600000D02*
X101000000Y19100000D01*
X101000000Y19100000D02*
X101000000Y21200000D01*
X85700000Y18600000D02*
X100500000Y18600000D01*
X101000000Y21200000D02*
X102120000Y22320000D01*
X77800000Y10700000D02*
X85700000Y18600000D01*
X72190000Y8250000D02*
X74640000Y10700000D01*
X74640000Y10700000D02*
X77800000Y10700000D01*
%TO.N,GND*%
X90700000Y10350000D02*
X90700000Y13850000D01*
X91800000Y9250000D02*
X90700000Y10350000D01*
X95300000Y13850000D02*
X98300000Y16850000D01*
X90700000Y13850000D02*
X95300000Y13850000D01*
%TO.N,C6*%
X16972479Y33622479D02*
X16972479Y27027521D01*
X19000000Y25000000D02*
X19000000Y18650000D01*
X19000000Y35650000D02*
X16972479Y33622479D01*
X16972479Y27027521D02*
X19000000Y25000000D01*
%TO.N,B2*%
X4598511Y-3357489D02*
X-2667489Y-3357489D01*
X15190000Y7234000D02*
X4598511Y-3357489D01*
X-2667489Y-3357489D02*
X-3810000Y-4500000D01*
X15190000Y8250000D02*
X15190000Y7234000D01*
X53190000Y12500000D02*
X38440000Y12500000D01*
X38440000Y12500000D02*
X34190000Y16750000D01*
X57440000Y8250000D02*
X53190000Y12500000D01*
X72190000Y8250000D02*
X57440000Y8250000D01*
%TO.N,B3*%
X-2667489Y13642511D02*
X-3810000Y12500000D01*
X6568267Y13642511D02*
X-2667489Y13642511D01*
X15190000Y22264244D02*
X6568267Y13642511D01*
X15190000Y25250000D02*
X15190000Y22264244D01*
%TO.N,B1*%
X-3810000Y38126484D02*
X-3810000Y29500000D01*
X313516Y42250000D02*
X-3810000Y38126484D01*
X15190000Y42250000D02*
X313516Y42250000D01*
X36749989Y48190011D02*
X34190000Y50750000D01*
X51499989Y48190011D02*
X36749989Y48190011D01*
X53190000Y46500000D02*
X51499989Y48190011D01*
X57440000Y42250000D02*
X53190000Y46500000D01*
X72190000Y42250000D02*
X57440000Y42250000D01*
%TO.N,B6*%
X100686480Y18346480D02*
X102120000Y19780000D01*
X85805012Y18346480D02*
X100686480Y18346480D01*
X88317246Y-12353887D02*
X82900000Y-6936641D01*
X82900000Y-6936641D02*
X82900000Y15441468D01*
X82900000Y15441468D02*
X85805012Y18346480D01*
X82863359Y-6900000D02*
X68353757Y-6900000D01*
X88317246Y-12353887D02*
X82863359Y-6900000D01*
X68353757Y-6900000D02*
X67804058Y-6350301D01*
X64453757Y-3000000D02*
X47560000Y-3000000D01*
X67804058Y-6350301D02*
X64453757Y-3000000D01*
X47560000Y-3000000D02*
X46560000Y-4000000D01*
X90972894Y-15009535D02*
X88317246Y-12353887D01*
X102873975Y-15009535D02*
X90972894Y-15009535D01*
%TO.N,B3*%
X101000000Y25980000D02*
X102120000Y24860000D01*
X101000000Y28161468D02*
X101000000Y25980000D01*
X84932400Y32136397D02*
X86496003Y33700000D01*
X84932400Y27432400D02*
X84932400Y32136397D01*
X84000000Y26500000D02*
X84932400Y27432400D01*
X73440000Y26500000D02*
X84000000Y26500000D01*
X86496003Y33700000D02*
X95461468Y33700000D01*
X72190000Y25250000D02*
X73440000Y26500000D01*
X95461468Y33700000D02*
X101000000Y28161468D01*
%TO.N,B1*%
X86100000Y36300000D02*
X93220000Y36300000D01*
X81400000Y41000000D02*
X86100000Y36300000D01*
X73440000Y41000000D02*
X81400000Y41000000D01*
X72190000Y42250000D02*
X73440000Y41000000D01*
X93220000Y36300000D02*
X102120000Y27400000D01*
%TO.N,B4*%
X86853520Y22346480D02*
X86880000Y22320000D01*
X76484128Y18650000D02*
X80180608Y22346480D01*
X80180608Y22346480D02*
X86853520Y22346480D01*
X76000000Y18650000D02*
X76484128Y18650000D01*
%TO.N,B2*%
X-1650000Y-4500000D02*
X-3810000Y-4500000D01*
%TO.N,pinky_bottom*%
X3810000Y-4500000D02*
X1650000Y-4500000D01*
%TO.N,pinky_home*%
X1650000Y12500000D02*
X3810000Y12500000D01*
%TO.N,B3*%
X-3810000Y12500000D02*
X-1650000Y12500000D01*
%TO.N,B1*%
X-1650000Y29500000D02*
X-3810000Y29500000D01*
%TO.N,pinky_top*%
X3810000Y29500000D02*
X1650000Y29500000D01*
%TO.N,B2*%
X17350000Y8250000D02*
X15190000Y8250000D01*
%TO.N,ring_bottom*%
X22810000Y8250000D02*
X20650000Y8250000D01*
%TO.N,ring_home*%
X20650000Y25250000D02*
X22810000Y25250000D01*
%TO.N,B3*%
X15190000Y25250000D02*
X17350000Y25250000D01*
%TO.N,B1*%
X17350000Y42250000D02*
X15190000Y42250000D01*
%TO.N,ring_top*%
X22810000Y42250000D02*
X20650000Y42250000D01*
%TO.N,B1*%
X36350000Y50750000D02*
X34190000Y50750000D01*
%TO.N,middle_top*%
X41810000Y50750000D02*
X39650000Y50750000D01*
%TO.N,middle_home*%
X39650000Y33750000D02*
X41810000Y33750000D01*
%TO.N,B3*%
X34190000Y33750000D02*
X36350000Y33750000D01*
%TO.N,B2*%
X36350000Y16750000D02*
X34190000Y16750000D01*
%TO.N,middle_bottom*%
X41810000Y16750000D02*
X39650000Y16750000D01*
%TO.N,index_bottom*%
X58650000Y12500000D02*
X60810000Y12500000D01*
%TO.N,B2*%
X53190000Y12500000D02*
X55350000Y12500000D01*
%TO.N,B3*%
X55350000Y29500000D02*
X53190000Y29500000D01*
%TO.N,index_home*%
X60810000Y29500000D02*
X58650000Y29500000D01*
%TO.N,B1*%
X55350000Y46500000D02*
X53190000Y46500000D01*
%TO.N,index_top*%
X60810000Y46500000D02*
X58650000Y46500000D01*
%TO.N,B1*%
X74350000Y42250000D02*
X72190000Y42250000D01*
%TO.N,inner_top*%
X79810000Y42250000D02*
X77650000Y42250000D01*
%TO.N,inner_home*%
X77650000Y25250000D02*
X79810000Y25250000D01*
%TO.N,B3*%
X72190000Y25250000D02*
X74350000Y25250000D01*
%TO.N,B2*%
X74350000Y8250000D02*
X72190000Y8250000D01*
%TO.N,inner_bottom*%
X79810000Y8250000D02*
X77650000Y8250000D01*
%TO.N,outer_thumbs*%
X41100000Y-4000000D02*
X38940000Y-4000000D01*
%TO.N,B6*%
X46560000Y-4000000D02*
X44400000Y-4000000D01*
%TO.N,middle1_thumbs*%
X60674903Y-5402182D02*
X60299822Y-5027101D01*
X62427007Y-5402182D02*
X60674903Y-5402182D01*
%TO.N,B6*%
X66051954Y-6350301D02*
X65676873Y-5975220D01*
X67804058Y-6350301D02*
X66051954Y-6350301D01*
%TO.N,middle2_thumbs*%
X82447760Y-9747693D02*
X81156788Y-9747693D01*
X83186524Y-10486457D02*
X82447760Y-9747693D01*
%TO.N,B6*%
X87578482Y-11615123D02*
X86287510Y-11615123D01*
X88317246Y-12353887D02*
X87578482Y-11615123D01*
X102873975Y-15539978D02*
X102873975Y-15009535D01*
X101635050Y-16778903D02*
X102873975Y-15539978D01*
%TO.N,inner_thumbs*%
X99742248Y-20012548D02*
X99742248Y-19482105D01*
X98503323Y-21251473D02*
X99742248Y-20012548D01*
%TO.N,mirror_inner_thumbs*%
X-123873975Y-15539978D02*
X-123873975Y-15009535D01*
X-122635050Y-16778903D02*
X-123873975Y-15539978D01*
%TO.N,B5*%
X-120742248Y-20012548D02*
X-120742248Y-19482105D01*
X-119503323Y-21251473D02*
X-120742248Y-20012548D01*
%TO.N,mirror_middle2_thumbs*%
X-108026274Y-12353887D02*
X-109317246Y-12353887D01*
X-107287510Y-11615123D02*
X-108026274Y-12353887D01*
%TO.N,B5*%
X-102895552Y-10486457D02*
X-104186524Y-10486457D01*
X-102156788Y-9747693D02*
X-102895552Y-10486457D01*
%TO.N,mirror_middle1_thumbs*%
X-88428977Y-5975220D02*
X-88804058Y-6350301D01*
X-86676873Y-5975220D02*
X-88428977Y-5975220D01*
%TO.N,B5*%
X-83051926Y-5027101D02*
X-83427007Y-5402182D01*
X-81299822Y-5027101D02*
X-83051926Y-5027101D01*
%TO.N,mirror_outer_thumbs*%
X-65400000Y-4000000D02*
X-67560000Y-4000000D01*
%TO.N,B5*%
X-59940000Y-4000000D02*
X-62100000Y-4000000D01*
%TO.N,mirror_pinky_bottom*%
X-17190000Y-4500000D02*
X-19350000Y-4500000D01*
%TO.N,B4*%
X-22650000Y-4500000D02*
X-24810000Y-4500000D01*
%TO.N,mirror_ring_bottom*%
X-36190000Y8250000D02*
X-38350000Y8250000D01*
%TO.N,B4*%
X-41650000Y8250000D02*
X-43810000Y8250000D01*
%TO.N,mirror_middle_bottom*%
X-55190000Y16750000D02*
X-57350000Y16750000D01*
%TO.N,B4*%
X-60650000Y16750000D02*
X-62810000Y16750000D01*
%TO.N,mirror_index_bottom*%
X-74190000Y12500000D02*
X-76350000Y12500000D01*
%TO.N,B4*%
X-79650000Y12500000D02*
X-81810000Y12500000D01*
%TO.N,mirror_inner_bottom*%
X-93190000Y8250000D02*
X-95350000Y8250000D01*
%TO.N,B4*%
X-98650000Y8250000D02*
X-100810000Y8250000D01*
%TO.N,E6*%
X-98650000Y25250000D02*
X-100810000Y25250000D01*
%TO.N,mirror_inner_home*%
X-93190000Y25250000D02*
X-95350000Y25250000D01*
%TO.N,E6*%
X-79650000Y29500000D02*
X-81810000Y29500000D01*
%TO.N,mirror_index_home*%
X-74190000Y29500000D02*
X-76350000Y29500000D01*
%TO.N,E6*%
X-60650000Y33750000D02*
X-62810000Y33750000D01*
%TO.N,mirror_middle_home*%
X-55190000Y33750000D02*
X-57350000Y33750000D01*
%TO.N,E6*%
X-41650000Y25250000D02*
X-43810000Y25250000D01*
%TO.N,mirror_ring_home*%
X-36190000Y25250000D02*
X-38350000Y25250000D01*
%TO.N,mirror_pinky_home*%
X-17190000Y12500000D02*
X-19350000Y12500000D01*
%TO.N,E6*%
X-22650000Y12500000D02*
X-24810000Y12500000D01*
%TO.N,mirror_pinky_top*%
X-19350000Y29500000D02*
X-17190000Y29500000D01*
%TO.N,D7*%
X-24810000Y29500000D02*
X-22650000Y29500000D01*
%TO.N,mirror_ring_top*%
X-38350000Y42250000D02*
X-36190000Y42250000D01*
%TO.N,D7*%
X-43810000Y42250000D02*
X-41650000Y42250000D01*
X-60650000Y50750000D02*
X-62810000Y50750000D01*
%TO.N,mirror_middle_top*%
X-57350000Y50750000D02*
X-55190000Y50750000D01*
%TO.N,mirror_index_top*%
X-76350000Y46500000D02*
X-74190000Y46500000D01*
%TO.N,D7*%
X-81810000Y46500000D02*
X-79650000Y46500000D01*
%TO.N,mirror_inner_top*%
X-95350000Y42250000D02*
X-93190000Y42250000D01*
%TO.N,D7*%
X-100810000Y42250000D02*
X-98650000Y42250000D01*
%TO.N,B5*%
X-79072721Y-2800000D02*
X-81299822Y-5027101D01*
X-61140000Y-2800000D02*
X-79072721Y-2800000D01*
X-59940000Y-4000000D02*
X-61140000Y-2800000D01*
X-96709095Y-4300000D02*
X-102156788Y-9747693D01*
X-82026923Y-4300000D02*
X-96709095Y-4300000D01*
X-81299822Y-5027101D02*
X-82026923Y-4300000D01*
X-102156788Y-9747693D02*
X-108326808Y-9747693D01*
X-108326808Y-9747693D02*
X-119503323Y-20924208D01*
X-119503323Y-20924208D02*
X-119503323Y-21251473D01*
%TO.N,B4*%
X-24810000Y-43966D02*
X-31853966Y7000000D01*
X-24810000Y-4500000D02*
X-24810000Y-43966D01*
X-31853966Y7000000D02*
X-42560000Y7000000D01*
X-42560000Y7000000D02*
X-43810000Y8250000D01*
%TO.N,B5*%
X-102156788Y-9747693D02*
X-102156788Y10056788D01*
X-121633520Y22066480D02*
X-123120000Y20580000D01*
X-123120000Y20580000D02*
X-123120000Y19780000D01*
X-114166480Y22066480D02*
X-121633520Y22066480D01*
X-102156788Y10056788D02*
X-114166480Y22066480D01*
%TO.N,B4*%
X-61560000Y15500000D02*
X-62810000Y16750000D01*
X-51060000Y15500000D02*
X-61560000Y15500000D01*
X-43810000Y8250000D02*
X-51060000Y15500000D01*
X-65860000Y13700000D02*
X-80610000Y13700000D01*
X-62810000Y16750000D02*
X-65860000Y13700000D01*
X-80610000Y13700000D02*
X-81810000Y12500000D01*
X-99560000Y9500000D02*
X-100810000Y8250000D01*
X-84810000Y9500000D02*
X-99560000Y9500000D01*
X-81810000Y12500000D02*
X-84810000Y9500000D01*
%TO.N,E6*%
X-34353966Y26500000D02*
X-42560000Y26500000D01*
X-24810000Y16956034D02*
X-34353966Y26500000D01*
X-24810000Y12500000D02*
X-24810000Y16956034D01*
X-42560000Y26500000D02*
X-43810000Y25250000D01*
X-65860000Y30700000D02*
X-80610000Y30700000D01*
X-80610000Y30700000D02*
X-81810000Y29500000D01*
X-62810000Y33750000D02*
X-65860000Y30700000D01*
%TO.N,D7*%
X-51100000Y49500000D02*
X-61600000Y49500000D01*
X-43850000Y42250000D02*
X-51100000Y49500000D01*
X-61600000Y49500000D02*
X-62810000Y50710000D01*
X-62810000Y50710000D02*
X-62810000Y50750000D01*
X-43810000Y42250000D02*
X-43850000Y42250000D01*
X-62810000Y50750000D02*
X-65260000Y48300000D01*
X-65260000Y48300000D02*
X-80010000Y48300000D01*
X-80010000Y48300000D02*
X-81810000Y46500000D01*
X-99560000Y43500000D02*
X-100810000Y42250000D01*
X-84810000Y43500000D02*
X-99560000Y43500000D01*
X-81810000Y46500000D02*
X-84810000Y43500000D01*
%TO.N,E6*%
X-99667489Y26392511D02*
X-100810000Y25250000D01*
X-91287476Y26392511D02*
X-99667489Y26392511D01*
X-81810000Y29500000D02*
X-88179987Y29500000D01*
X-88179987Y29500000D02*
X-91287476Y26392511D01*
%TO.N,D2*%
X-124400000Y43900000D02*
X-123120000Y45180000D01*
X-120500000Y12700000D02*
X-124400000Y16600000D01*
X-117850000Y12700000D02*
X-120500000Y12700000D01*
X-116800000Y13750000D02*
X-117850000Y12700000D01*
X-124400000Y16600000D02*
X-124400000Y43900000D01*
%TO.N,VCC*%
X-115790000Y15300000D02*
X-114240000Y16850000D01*
X-118250000Y15300000D02*
X-115790000Y15300000D01*
X-119800000Y13750000D02*
X-118250000Y15300000D01*
%TO.N,GND*%
X-111700000Y14850000D02*
X-111700000Y16850000D01*
X-112800000Y13750000D02*
X-111700000Y14850000D01*
X-111700000Y9150000D02*
X-111700000Y12650000D01*
X-111700000Y12650000D02*
X-112800000Y13750000D01*
%TO.N,B4*%
X-100810000Y9068531D02*
X-114061469Y22320000D01*
X-114061469Y22320000D02*
X-123120000Y22320000D01*
X-100810000Y8250000D02*
X-100810000Y9068531D01*
%TO.N,E6*%
X-123120000Y25780000D02*
X-123120000Y24860000D01*
X-122000000Y26900000D02*
X-123120000Y25780000D01*
X-116461468Y33700000D02*
X-122000000Y28161468D01*
X-107184629Y33700000D02*
X-116461468Y33700000D01*
X-105939440Y24353568D02*
X-105939440Y32454811D01*
X-105939440Y32454811D02*
X-107184629Y33700000D01*
X-105199952Y23614080D02*
X-105939440Y24353568D01*
X-122000000Y28161468D02*
X-122000000Y26900000D01*
X-102445920Y23614080D02*
X-105199952Y23614080D01*
X-100810000Y25250000D02*
X-102445920Y23614080D01*
%TO.N,D7*%
X-114220000Y36300000D02*
X-123120000Y27400000D01*
X-106800000Y36300000D02*
X-114220000Y36300000D01*
X-100850000Y42250000D02*
X-106800000Y36300000D01*
X-100810000Y42250000D02*
X-100850000Y42250000D01*
%TO.N,F6*%
X-106192960Y30792960D02*
X-107880000Y32480000D01*
X-106192960Y24248556D02*
X-106192960Y30792960D01*
X-105304964Y23360560D02*
X-106192960Y24248556D01*
X-80292988Y23360560D02*
X-105304964Y23360560D01*
X-63811481Y24847051D02*
X-78806496Y24847051D01*
X-59705012Y28953520D02*
X-63811481Y24847051D01*
X-51105012Y28953520D02*
X-59705012Y28953520D01*
X-78806496Y24847051D02*
X-80292988Y23360560D01*
X-42858532Y37200000D02*
X-51105012Y28953520D01*
X-23700000Y37200000D02*
X-42858532Y37200000D01*
X-21000000Y39900000D02*
X-23700000Y37200000D01*
%TO.N,F7*%
X-106446480Y28506480D02*
X-107880000Y29940000D01*
X-106446480Y24143544D02*
X-106446480Y28506480D01*
X-78701485Y24593531D02*
X-80187976Y23107040D01*
X-80187976Y23107040D02*
X-105409976Y23107040D01*
X-105409976Y23107040D02*
X-106446480Y24143544D01*
X-51000000Y28700000D02*
X-59600000Y28700000D01*
X-63706469Y24593531D02*
X-78701485Y24593531D01*
X-44050000Y35650000D02*
X-51000000Y28700000D01*
X-59600000Y28700000D02*
X-63706469Y24593531D01*
X-40000000Y35650000D02*
X-44050000Y35650000D01*
%TO.N,B1*%
X-105514988Y22853520D02*
X-106700000Y24038532D01*
X-80082964Y22853520D02*
X-105514988Y22853520D01*
X-106700000Y26220000D02*
X-107880000Y27400000D01*
X-78596473Y24340011D02*
X-80082964Y22853520D01*
X-106700000Y24038532D02*
X-106700000Y26220000D01*
X-63559989Y24340011D02*
X-78596473Y24340011D01*
X-60750000Y27150000D02*
X-63559989Y24340011D01*
X-59000000Y27150000D02*
X-60750000Y27150000D01*
%TO.N,B3*%
X-105620000Y22600000D02*
X-107880000Y24860000D01*
X-78300000Y22600000D02*
X-105620000Y22600000D01*
X-78000000Y22900000D02*
X-78300000Y22600000D01*
%TO.N,B2*%
X-100670000Y22320000D02*
X-107880000Y22320000D01*
X-97000000Y18650000D02*
X-100670000Y22320000D01*
%TD*%
M02*
